<?xml version="1.0" encoding="utf-8"?>
<!-- Generator: Adobe Illustrator 24.0.2, SVG Export Plug-In . SVG Version: 6.00 Build 0)  -->
<svg version="1.1" id="Layer_1" xmlns="http://www.w3.org/2000/svg" xmlns:xlink="http://www.w3.org/1999/xlink" x="0px" y="0px"
	 viewBox="0 0 775.04 1144.56" style="enable-background:new 0 0 775.04 1144.56;" xml:space="preserve">
<style type="text/css">
	.st0{fill:#FDD99E;}
	.st1{opacity:0.15;fill:#5C1F00;enable-background:new    ;}
</style>
<g>
	<rect y="-2.04" class="st0" width="775.04" height="1146.61"/>
	<path class="st1" d="M423.31,237.9c10.77-2.6,27.78-15.68,36.18-23.82c6.44-6.24,8.62-14.3,10.31-20.57
		c4.89-18.18,2.93-38.05-13.81-54.44c-7.65-7.47-14.44-11.5-21.97-13.43c-17.37-4.42-45.61-0.11-63.17,17.43
		c-9.02,9-17.3,27.03-14,40.24c0.6,2.37,2.51,5.51,3.64,8.73c1.11,3.15,1.75,6.44,2.96,9.27
		C373.93,225.6,401.69,243.13,423.31,237.9z M464.75,191.07c1.01,0.92,0.27,1.62,0.89,2.49c-4.21,5.99-12.59,6.54-18.43,10.1
		C448.6,198.4,461.07,198.39,464.75,191.07z M467.03,187.22c-5.9,3.08-12.1,8.4-17.93,10.75c-2.43-3.08-0.67-5.6-1.3-8.45
		c6.09-1.49,12.86-8.07,19.11-10.59C468.06,181.83,468.01,184.58,467.03,187.22z M467.27,171.28c0.67,1.66,0.26,3.17,0.58,4.81
		c-6.61,0.81-14.32,10.39-20.61,8.6C451.65,180.03,460.61,178.19,467.27,171.28z M467.06,168.3c-6.67,6.09-12.97,8.93-19.25,11.74
		c-2.45-2.27-0.3-3.99-2.75-6.25c7.22-5.53,14.14-8.82,21.06-12.13C466.18,163.83,466.51,166.03,467.06,168.3z M462.06,156.4
		c1.33-1.22,2.1,2.09,3.21,2.77c-4.55,2.63-14.48,8.77-20.92,10.96C445.36,165.65,458.75,163.83,462.06,156.4z M449.99,139.49
		c-5.27,2.72-10.73,6.99-15.95,9.21c5.11,1.77,12.31-4.61,16.46-8.55c4.28,2.1,8.11,7.68,11.99,12.76
		c-4.61,6.11-14.04,11.72-20.04,13.43c-2.18-7.58,10.34-7.54,15.39-14.02c-5.45-0.44-11.76,5.6-17.63,8.41
		c-3.78-4.64-7.38-10.34-11.35-13.27c5.65-2.44,11.48-6.49,17.42-11.41C447.38,138.43,448.82,137.94,449.99,139.49z M433.42,130.29
		c-0.9,2.11-7.12,6.57-9.55,5.29C428.28,133.55,429.29,129.94,433.42,130.29z M410.34,130.32c0.43,2.04-3.94,3.46-5.42,5.24
		c2.14,3.54,8.69-3.3,9.55-5.3c4.51-1.41,8.72-0.26,13.11-0.68c-1.06,4.3-8.09,4.15-9.33,8.26c5.67,5.09,13.25-5.03,19.67-5.78
		c-2.2,4.84-9.08,6.5-13.13,10.18c4.69,1.92,10.62-6.02,15.98-9.22c1.26,0.88,2.45,2.47,3.86,2.28
		c-2.85,3.59-13.29,7.49-16.27,11.54c-8.89-6.17-18.19-9.11-27.87-8.87C401.44,135.29,407.67,130.89,410.34,130.32z M403.19,130.61
		c-2.89,3.41-7.61,9.89-11.5,6.83C396.83,133.61,398.35,130.62,403.19,130.61z M382.28,141.55c-2.55,0.03,3.99-3.79,5.4-5.22
		C390.22,136.3,383.69,140.1,382.28,141.55z M361.45,179.75c-0.69-12.15,2.61-24.41,19.08-33.69c31.5-17.76,68.18,15.47,63.54,49.48
		c-8.01,9.16-13.96,24.42-28.22,31.33c-4.67,2.27-10.74,0.32-15.22,3.41c-6.73-2.55-13.78-5.94-19.78-11.99
		C369.48,206.87,366.7,189.54,361.45,179.75z"/>
	<path class="st1" d="M385.81,405.61c5.13-1.17,13.27-6.91,17.3-10.47c3.09-2.73,4.16-6.23,4.99-8.96c2.4-7.9,1.55-16.51-6.35-23.54
		c-3.61-3.21-6.81-4.93-10.39-5.74c-8.24-1.85-21.68,0.14-30.1,7.81c-4.32,3.94-8.33,11.79-6.82,17.5c0.28,1.03,1.17,2.38,1.69,3.77
		c0.51,1.36,0.81,2.79,1.37,4.01C362.39,400.48,375.51,407.97,385.81,405.61z M405.7,385.14c0.48,0.39,0.12,0.7,0.41,1.07
		c-2.03,2.62-6.01,2.88-8.8,4.45C397.99,388.39,403.92,388.33,405.7,385.14z M406.8,383.47c-2.82,1.36-5.79,3.69-8.57,4.74
		c-1.14-1.33-0.3-2.42-0.58-3.66c2.9-0.67,6.14-3.55,9.13-4.67C407.31,381.13,407.27,382.32,406.8,383.47z M406.98,376.55
		c0.31,0.72,0.11,1.37,0.25,2.08c-3.15,0.38-6.85,4.56-9.83,3.81C399.52,380.41,403.78,379.57,406.98,376.55z M406.89,375.26
		c-3.2,2.67-6.2,3.92-9.2,5.17c-1.16-0.98-0.13-1.73-1.29-2.7c3.45-2.43,6.76-3.88,10.06-5.35
		C406.49,373.33,406.64,374.28,406.89,375.26z M404.56,370.12c0.64-0.53,0.99,0.9,1.51,1.19c-2.18,1.16-6.92,3.86-9.99,4.84
		C396.58,374.2,402.96,373.36,404.56,370.12z M398.89,362.84c-2.52,1.2-5.13,3.07-7.62,4.06c2.42,0.75,5.87-2.05,7.86-3.78
		c2.03,0.9,3.82,3.3,5.65,5.48c-2.22,2.67-6.72,5.14-9.58,5.9c-1-3.28,4.95-3.31,7.37-6.14c-2.59-0.17-5.61,2.47-8.41,3.72
		c-1.78-2-3.47-4.45-5.34-5.71c2.7-1.08,5.48-2.86,8.33-5.02C397.65,362.39,398.34,362.17,398.89,362.84z M391.05,358.92
		c-0.44,0.91-3.41,2.87-4.56,2.33C388.6,360.35,389.09,358.78,391.05,358.92z M380.08,359.02c0.2,0.88-1.89,1.51-2.6,2.29
		c1,1.52,4.14-1.47,4.56-2.34c2.15-0.63,4.15-0.15,6.24-0.35c-0.52,1.87-3.86,1.83-4.47,3.62c2.67,2.18,6.32-2.24,9.37-2.58
		c-1.07,2.11-4.35,2.85-6.28,4.46c2.22,0.82,5.07-2.65,7.64-4.06c0.6,0.38,1.15,1.06,1.83,0.97c-1.37,1.57-6.35,3.3-7.78,5.07
		c-4.2-2.64-8.61-3.87-13.21-3.73C375.83,361.21,378.81,359.28,380.08,359.02z M376.68,359.18c-1.39,1.49-3.65,4.31-5.5,3.01
		C373.65,360.5,374.38,359.21,376.68,359.18z M366.7,364.01c-1.21,0.02,1.91-1.66,2.59-2.28
		C370.49,361.7,367.37,363.37,366.7,364.01z M356.64,380.65c-0.28-5.27,1.34-10.59,9.21-14.68c15.05-7.83,32.35,6.43,30.01,21.2
		c-3.85,4.01-6.73,10.64-13.54,13.69c-2.23,1-5.1,0.18-7.25,1.54c-3.19-1.08-6.53-2.52-9.35-5.12
		C360.34,392.37,359.1,384.87,356.64,380.65z"/>
	<path class="st1" d="M191.46,922.07c4.63-1.12,11.94-6.78,15.55-10.3c2.77-2.7,3.7-6.19,4.43-8.91c2.1-7.87,1.25-16.48-5.96-23.58
		c-3.29-3.24-6.21-4.99-9.45-5.82c-7.47-1.92-19.61-0.06-27.15,7.53c-3.88,3.9-7.43,11.7-6.01,17.43c0.26,1.03,1.08,2.39,1.57,3.78
		c0.48,1.36,0.76,2.79,1.28,4.01C170.23,916.73,182.17,924.33,191.46,922.07z M209.26,901.8c0.44,0.4,0.12,0.7,0.38,1.08
		c-1.81,2.59-5.41,2.83-7.92,4.37C202.32,904.97,207.68,904.97,209.26,901.8z M210.24,900.14c-2.54,1.33-5.2,3.63-7.71,4.65
		c-1.05-1.34-0.29-2.43-0.56-3.66c2.62-0.64,5.52-3.49,8.21-4.58C210.68,897.8,210.66,898.99,210.24,900.14z M210.34,893.23
		c0.29,0.72,0.11,1.37,0.25,2.08c-2.84,0.35-6.15,4.5-8.86,3.72C203.62,897.01,207.48,896.22,210.34,893.23z M210.25,891.94
		c-2.87,2.64-5.58,3.86-8.27,5.08c-1.06-0.98-0.13-1.73-1.19-2.71c3.1-2.4,6.08-3.82,9.05-5.25
		C209.87,890.01,210.01,890.96,210.25,891.94z M208.09,886.79c0.57-0.53,0.91,0.91,1.38,1.2c-1.96,1.14-6.22,3.8-8.99,4.74
		C200.91,890.79,206.67,890.01,208.09,886.79z M202.9,879.46c-2.27,1.18-4.61,3.03-6.85,3.99c2.2,0.77,5.29-1.99,7.07-3.7
		c1.84,0.91,3.49,3.33,5.16,5.53c-1.98,2.65-6.03,5.07-8.61,5.81c-0.94-3.28,4.44-3.26,6.61-6.07c-2.34-0.19-5.06,2.42-7.58,3.64
		c-1.63-2.01-3.18-4.48-4.88-5.75c2.43-1.06,4.93-2.81,7.49-4.94C201.78,879,202.4,878.78,202.9,879.46z M195.77,875.47
		c-0.38,0.91-3.06,2.84-4.11,2.29C193.56,876.88,194,875.31,195.77,875.47z M185.85,875.47c0.19,0.88-1.69,1.5-2.33,2.27
		c0.92,1.53,3.73-1.43,4.1-2.29c1.94-0.61,3.75-0.11,5.64-0.29c-0.45,1.86-3.48,1.79-4.01,3.58c2.43,2.2,5.69-2.18,8.45-2.5
		c-0.95,2.1-3.9,2.81-5.64,4.4c2.02,0.83,4.56-2.6,6.87-3.99c0.54,0.38,1.06,1.07,1.66,0.99c-1.22,1.55-5.71,3.24-6.99,4.99
		c-3.82-2.68-7.82-3.95-11.98-3.85C182.03,877.62,184.71,875.72,185.85,875.47z M182.78,875.6c-1.24,1.48-3.27,4.28-4.94,2.95
		C180.05,876.89,180.7,875.6,182.78,875.6z M173.79,880.33c-1.09,0.01,1.72-1.64,2.32-2.26C177.21,878.06,174.4,879.7,173.79,880.33
		z M164.85,896.86c-0.3-5.26,1.12-10.57,8.19-14.59c13.54-7.68,29.31,6.72,27.33,21.45c-3.44,3.96-5.99,10.57-12.12,13.56
		c-2.01,0.98-4.61,0.14-6.54,1.48c-2.9-1.11-5.93-2.57-8.51-5.2C168.31,908.61,167.11,901.11,164.85,896.86z"/>
	<path class="st1" d="M311.26,1115.14c4.63-1.12,11.94-6.78,15.55-10.3c2.77-2.7,3.7-6.19,4.43-8.91c2.1-7.87,1.25-16.48-5.96-23.58
		c-3.29-3.24-6.21-4.99-9.45-5.82c-7.47-1.92-19.61-0.06-27.15,7.53c-3.88,3.9-7.43,11.7-6.01,17.43c0.26,1.03,1.08,2.39,1.57,3.78
		c0.48,1.36,0.76,2.79,1.28,4.01C290.03,1109.8,301.96,1117.4,311.26,1115.14z M329.06,1094.87c0.44,0.4,0.12,0.7,0.38,1.08
		c-1.81,2.59-5.41,2.83-7.92,4.37C322.11,1098.04,327.48,1098.04,329.06,1094.87z M330.03,1093.21c-2.54,1.33-5.2,3.63-7.71,4.65
		c-1.05-1.34-0.29-2.43-0.56-3.66c2.62-0.64,5.52-3.49,8.21-4.58C330.48,1090.87,330.45,1092.06,330.03,1093.21z M330.13,1086.3
		c0.29,0.72,0.11,1.37,0.25,2.08c-2.84,0.35-6.15,4.5-8.86,3.72C323.42,1090.09,327.27,1089.29,330.13,1086.3z M330.04,1085.01
		c-2.87,2.64-5.58,3.86-8.27,5.08c-1.06-0.98-0.13-1.73-1.19-2.71c3.1-2.4,6.08-3.82,9.05-5.25
		C329.67,1083.08,329.81,1084.03,330.04,1085.01z M327.89,1079.86c0.57-0.53,0.91,0.91,1.38,1.2c-1.96,1.14-6.22,3.8-8.99,4.74
		C320.71,1083.86,326.47,1083.07,327.89,1079.86z M322.7,1072.53c-2.27,1.18-4.61,3.02-6.85,3.99c2.2,0.77,5.29-1.99,7.07-3.7
		c1.84,0.91,3.49,3.33,5.16,5.53c-1.98,2.65-6.03,5.07-8.61,5.81c-0.94-3.28,4.44-3.26,6.61-6.07c-2.35-0.19-5.06,2.42-7.58,3.64
		c-1.63-2.01-3.18-4.48-4.88-5.75c2.43-1.06,4.93-2.81,7.49-4.94C321.57,1072.07,322.19,1071.86,322.7,1072.53z M315.57,1068.54
		c-0.38,0.91-3.06,2.84-4.11,2.29C313.36,1069.95,313.79,1068.38,315.57,1068.54z M305.65,1068.54c0.19,0.88-1.69,1.5-2.33,2.27
		c0.92,1.53,3.73-1.43,4.1-2.29c1.94-0.61,3.75-0.11,5.64-0.29c-0.45,1.86-3.48,1.79-4.01,3.58c2.43,2.2,5.69-2.18,8.45-2.5
		c-0.95,2.1-3.9,2.81-5.64,4.4c2.02,0.83,4.56-2.6,6.87-3.99c0.54,0.38,1.06,1.07,1.66,0.99c-1.22,1.55-5.71,3.24-6.99,4.99
		c-3.82-2.68-7.82-3.95-11.98-3.85C301.82,1070.69,304.5,1068.79,305.65,1068.54z M302.58,1068.67c-1.24,1.48-3.27,4.28-4.94,2.95
		C299.84,1069.97,300.49,1068.67,302.58,1068.67z M293.59,1073.4c-1.09,0.01,1.72-1.64,2.32-2.26
		C297,1071.13,294.19,1072.77,293.59,1073.4z M284.64,1089.94c-0.3-5.26,1.12-10.57,8.19-14.59c13.54-7.68,29.31,6.72,27.33,21.45
		c-3.44,3.96-5.99,10.57-12.12,13.56c-2.01,0.98-4.61,0.14-6.54,1.48c-2.9-1.11-5.93-2.57-8.51-5.2
		C288.1,1101.68,286.9,1094.18,284.64,1089.94z"/>
	<path class="st1" d="M299.76,116.78c4.63-1.12,11.94-6.78,15.55-10.3c2.77-2.7,3.7-6.19,4.43-8.91c2.1-7.87,1.25-16.48-5.96-23.58
		c-3.29-3.24-6.21-4.99-9.45-5.82c-7.47-1.92-19.61-0.06-27.15,7.53c-3.88,3.9-7.43,11.7-6.01,17.43c0.26,1.03,1.08,2.39,1.57,3.78
		c0.48,1.36,0.76,2.79,1.28,4.01C278.53,111.43,290.47,119.03,299.76,116.78z M317.56,96.51c0.44,0.4,0.12,0.7,0.38,1.08
		c-1.81,2.59-5.41,2.83-7.92,4.37C310.62,99.68,315.98,99.67,317.56,96.51z M318.54,94.84c-2.54,1.33-5.2,3.63-7.71,4.65
		c-1.05-1.34-0.29-2.43-0.56-3.66c2.62-0.64,5.52-3.49,8.21-4.58C318.98,92.51,318.96,93.7,318.54,94.84z M318.64,87.93
		c0.29,0.72,0.11,1.37,0.25,2.08c-2.84,0.35-6.15,4.5-8.86,3.72C311.93,91.72,315.78,90.92,318.64,87.93z M318.55,86.64
		c-2.87,2.64-5.58,3.86-8.27,5.08c-1.06-0.98-0.13-1.73-1.19-2.71c3.1-2.4,6.08-3.82,9.05-5.25
		C318.17,84.71,318.31,85.66,318.55,86.64z M316.4,81.49c0.57-0.53,0.91,0.91,1.38,1.2c-1.96,1.14-6.22,3.8-8.99,4.74
		C309.21,85.49,314.97,84.71,316.4,81.49z M311.2,74.16c-2.27,1.18-4.61,3.03-6.85,3.99c2.2,0.76,5.29-1.99,7.07-3.7
		c1.84,0.91,3.49,3.33,5.16,5.53c-1.98,2.65-6.03,5.07-8.61,5.81c-0.94-3.28,4.44-3.26,6.61-6.07c-2.35-0.19-5.06,2.42-7.58,3.64
		c-1.63-2.01-3.18-4.48-4.88-5.75c2.43-1.06,4.93-2.81,7.49-4.94C310.08,73.7,310.7,73.49,311.2,74.16z M304.07,70.17
		c-0.38,0.91-3.06,2.84-4.11,2.29C301.87,71.58,302.3,70.02,304.07,70.17z M294.15,70.18c0.19,0.88-1.69,1.5-2.33,2.27
		c0.92,1.53,3.73-1.43,4.1-2.29c1.94-0.61,3.75-0.11,5.64-0.29c-0.45,1.86-3.48,1.79-4.01,3.58c2.43,2.2,5.69-2.18,8.45-2.5
		c-0.95,2.1-3.9,2.81-5.64,4.4c2.02,0.83,4.56-2.6,6.87-3.99c0.54,0.38,1.06,1.07,1.66,0.99c-1.22,1.55-5.71,3.24-6.99,4.99
		c-3.82-2.68-7.82-3.95-11.98-3.85C290.33,72.32,293,70.42,294.15,70.18z M291.08,70.3c-1.24,1.48-3.27,4.28-4.94,2.95
		C288.34,71.6,289,70.3,291.08,70.3z M282.09,75.03c-1.09,0.01,1.72-1.64,2.32-2.26C285.51,72.76,282.69,74.41,282.09,75.03z
		 M273.15,91.57c-0.3-5.26,1.12-10.57,8.19-14.59c13.54-7.68,29.31,6.72,27.33,21.45c-3.44,3.96-5.99,10.57-12.12,13.56
		c-2.01,0.98-4.61,0.14-6.54,1.48c-2.9-1.11-5.93-2.57-8.51-5.2C276.61,103.32,275.41,95.81,273.15,91.57z"/>
	<path class="st1" d="M108.71,582.36c4.63-1.12,11.94-6.78,15.55-10.3c2.77-2.7,3.7-6.19,4.43-8.91c2.1-7.87,1.25-16.48-5.96-23.58
		c-3.29-3.24-6.21-4.99-9.45-5.82c-7.47-1.92-19.61-0.06-27.15,7.53c-3.88,3.9-7.43,11.7-6.01,17.43c0.26,1.03,1.08,2.39,1.57,3.78
		c0.48,1.36,0.76,2.79,1.28,4.01C87.48,577.01,99.41,584.61,108.71,582.36z M126.51,562.09c0.44,0.4,0.12,0.7,0.38,1.08
		c-1.81,2.59-5.41,2.83-7.92,4.37C119.57,565.25,124.93,565.25,126.51,562.09z M127.48,560.42c-2.54,1.33-5.2,3.63-7.71,4.65
		c-1.05-1.34-0.29-2.43-0.56-3.66c2.62-0.64,5.52-3.49,8.21-4.58C127.93,558.09,127.9,559.28,127.48,560.42z M127.58,553.52
		c0.29,0.72,0.11,1.37,0.25,2.08c-2.84,0.35-6.15,4.5-8.86,3.72C120.87,557.3,124.73,556.51,127.58,553.52z M127.49,552.23
		c-2.87,2.64-5.58,3.86-8.27,5.08c-1.06-0.98-0.13-1.73-1.19-2.71c3.1-2.4,6.08-3.82,9.05-5.25
		C127.12,550.29,127.26,551.25,127.49,552.23z M125.34,547.07c0.57-0.53,0.91,0.91,1.38,1.2c-1.96,1.14-6.22,3.8-8.99,4.74
		C118.16,551.07,123.92,550.29,125.34,547.07z M120.15,539.74c-2.27,1.18-4.61,3.03-6.85,3.99c2.2,0.76,5.29-1.99,7.07-3.7
		c1.84,0.91,3.49,3.33,5.16,5.53c-1.98,2.65-6.03,5.07-8.61,5.81c-0.94-3.28,4.44-3.26,6.61-6.07c-2.34-0.19-5.06,2.42-7.58,3.64
		c-1.63-2.01-3.18-4.48-4.88-5.75c2.43-1.06,4.93-2.81,7.49-4.94C119.02,539.28,119.65,539.07,120.15,539.74z M113.02,535.75
		c-0.38,0.91-3.06,2.84-4.11,2.29C110.81,537.16,111.25,535.6,113.02,535.75z M103.1,535.76c0.19,0.88-1.69,1.5-2.33,2.27
		c0.92,1.53,3.73-1.43,4.1-2.29c1.94-0.61,3.75-0.11,5.64-0.29c-0.45,1.86-3.48,1.79-4.01,3.58c2.43,2.2,5.69-2.18,8.45-2.5
		c-0.95,2.1-3.9,2.81-5.64,4.4c2.02,0.83,4.56-2.6,6.87-3.99c0.54,0.38,1.06,1.07,1.66,0.99c-1.22,1.55-5.71,3.24-6.99,4.99
		c-3.82-2.68-7.82-3.95-11.98-3.85C99.27,537.91,101.95,536,103.1,535.76z M100.02,535.88c-1.24,1.48-3.27,4.28-4.94,2.95
		C97.29,537.18,97.95,535.89,100.02,535.88z M91.04,540.61c-1.09,0.01,1.72-1.64,2.32-2.26C94.45,538.34,91.64,539.98,91.04,540.61z
		 M82.09,557.15c-0.3-5.26,1.12-10.57,8.19-14.59c13.54-7.68,29.31,6.72,27.33,21.45c-3.44,3.96-5.99,10.57-12.12,13.56
		c-2.01,0.98-4.61,0.14-6.54,1.48c-2.9-1.11-5.93-2.57-8.51-5.2C85.55,568.9,84.35,561.39,82.09,557.15z"/>
	<path class="st1" d="M699.77,709.19c4.63-1.12,11.94-6.78,15.55-10.3c2.77-2.7,3.7-6.19,4.43-8.91c2.1-7.87,1.25-16.48-5.96-23.58
		c-3.29-3.24-6.21-4.99-9.45-5.82c-7.47-1.92-19.61-0.06-27.15,7.53c-3.88,3.9-7.43,11.7-6.01,17.43c0.26,1.03,1.08,2.39,1.57,3.78
		c0.48,1.36,0.76,2.79,1.28,4.01C678.54,703.85,690.48,711.45,699.77,709.19z M717.57,688.92c0.44,0.4,0.12,0.7,0.38,1.08
		c-1.81,2.59-5.41,2.83-7.92,4.37C710.63,692.09,716,692.09,717.57,688.92z M718.55,687.25c-2.54,1.33-5.2,3.63-7.71,4.65
		c-1.05-1.34-0.29-2.43-0.56-3.66c2.62-0.64,5.52-3.49,8.21-4.58C718.99,684.92,718.97,686.11,718.55,687.25z M718.65,680.35
		c0.29,0.72,0.11,1.37,0.25,2.08c-2.84,0.35-6.15,4.5-8.86,3.72C711.94,684.13,715.79,683.34,718.65,680.35z M718.56,679.06
		c-2.87,2.64-5.58,3.86-8.27,5.08c-1.06-0.98-0.13-1.73-1.19-2.71c3.1-2.4,6.07-3.82,9.05-5.25
		C718.18,677.12,718.32,678.08,718.56,679.06z M716.4,673.9c0.57-0.53,0.91,0.91,1.38,1.2c-1.96,1.14-6.22,3.8-8.99,4.74
		C709.22,677.9,714.98,677.12,716.4,673.9z M711.21,666.58c-2.27,1.18-4.61,3.03-6.85,3.99c2.2,0.77,5.29-1.99,7.07-3.7
		c1.84,0.91,3.49,3.33,5.16,5.53c-1.98,2.65-6.03,5.07-8.61,5.81c-0.94-3.28,4.44-3.26,6.61-6.07c-2.35-0.19-5.06,2.42-7.58,3.64
		c-1.63-2.01-3.18-4.48-4.88-5.75c2.43-1.06,4.93-2.81,7.49-4.94C710.09,666.11,710.71,665.9,711.21,666.58z M704.09,662.59
		c-0.38,0.91-3.06,2.84-4.11,2.29C701.88,663.99,702.31,662.43,704.09,662.59z M694.16,662.59c0.19,0.88-1.69,1.5-2.33,2.27
		c0.92,1.53,3.73-1.43,4.1-2.29c1.94-0.61,3.75-0.11,5.64-0.29c-0.45,1.86-3.48,1.79-4.01,3.58c2.43,2.2,5.69-2.18,8.45-2.5
		c-0.95,2.1-3.9,2.81-5.64,4.4c2.02,0.83,4.56-2.6,6.87-3.99c0.54,0.38,1.06,1.07,1.66,0.99c-1.22,1.55-5.71,3.24-6.99,4.99
		c-3.82-2.68-7.82-3.95-11.98-3.85C690.34,664.74,693.01,662.83,694.16,662.59z M691.09,662.71c-1.24,1.48-3.26,4.28-4.94,2.95
		C688.36,664.01,689.01,662.72,691.09,662.71z M682.1,667.44c-1.09,0.01,1.72-1.64,2.32-2.26
		C685.51,665.17,682.71,666.82,682.1,667.44z M673.16,683.98c-0.3-5.26,1.12-10.57,8.19-14.59c13.54-7.68,29.31,6.72,27.33,21.45
		c-3.44,3.96-5.99,10.57-12.12,13.56c-2.01,0.98-4.61,0.14-6.54,1.47c-2.9-1.11-5.93-2.57-8.51-5.2
		C676.62,695.73,675.42,688.23,673.16,683.98z"/>
	<path class="st1" d="M54.39,304.78c4.17-1.08,10.73-6.66,13.96-10.15c2.48-2.67,3.29-6.15,3.92-8.86
		c1.82-7.85,0.98-16.45-5.6-23.61c-3.01-3.26-5.66-5.04-8.6-5.9c-6.77-1.99-17.73-0.24-24.48,7.27c-3.47,3.86-6.61,11.62-5.27,17.36
		c0.24,1.03,1,2.39,1.45,3.79c0.44,1.37,0.71,2.8,1.19,4.02C35.15,299.24,46.01,306.94,54.39,304.78z M70.3,284.69
		c0.4,0.4,0.11,0.7,0.36,1.08c-1.61,2.57-4.87,2.78-7.12,4.29C64.06,287.79,68.9,287.84,70.3,284.69z M71.17,283.04
		c-2.28,1.3-4.67,3.58-6.93,4.58c-0.96-1.35-0.29-2.43-0.54-3.66c2.36-0.61,4.96-3.44,7.38-4.5
		C71.55,280.7,71.54,281.9,71.17,283.04z M71.19,276.13c0.27,0.72,0.12,1.37,0.24,2.08c-2.57,0.32-5.52,4.44-7.97,3.63
		C65.16,279.85,68.64,279.1,71.19,276.13z M71.1,274.84c-2.57,2.61-5,3.81-7.43,5c-0.96-0.99-0.14-1.73-1.1-2.72
		c2.78-2.36,5.46-3.76,8.13-5.16C70.74,272.9,70.88,273.86,71.1,274.84z M69.11,269.67c0.51-0.53,0.83,0.91,1.26,1.21
		c-1.76,1.12-5.59,3.74-8.08,4.65C62.65,273.6,67.85,272.88,69.11,269.67z M64.35,262.31c-2.04,1.15-4.14,2.98-6.16,3.92
		c1.99,0.79,4.77-1.94,6.36-3.63c1.67,0.93,3.18,3.36,4.71,5.57c-1.77,2.62-5.41,5.01-7.73,5.73c-0.88-3.29,3.99-3.22,5.92-6
		c-2.12-0.22-4.55,2.37-6.81,3.56c-1.49-2.03-2.91-4.5-4.47-5.79c2.19-1.03,4.43-2.76,6.72-4.86
		C63.32,261.83,63.88,261.63,64.35,262.31z M57.86,258.25c-0.34,0.91-2.74,2.81-3.69,2.25C55.88,259.64,56.26,258.08,57.86,258.25z
		 M48.9,258.16c0.17,0.88-1.52,1.48-2.09,2.25c0.85,1.54,3.36-1.39,3.69-2.26c1.75-0.59,3.39-0.08,5.09-0.24
		c-0.39,1.86-3.13,1.76-3.59,3.54c2.22,2.23,5.13-2.12,7.62-2.42c-0.83,2.08-3.5,2.77-5.06,4.35c1.83,0.85,4.1-2.56,6.17-3.92
		c0.49,0.38,0.96,1.08,1.51,1c-1.09,1.54-5.13,3.18-6.28,4.92c-3.48-2.71-7.11-4.02-10.87-3.95
		C45.46,260.28,47.86,258.4,48.9,258.16z M46.12,258.26c-1.11,1.46-2.91,4.24-4.44,2.9C43.66,259.53,44.24,258.25,46.12,258.26z
		 M38.04,262.91c-0.99,0,1.53-1.62,2.08-2.24C41.1,260.67,38.58,262.29,38.04,262.91z M30.1,279.35c-0.32-5.26,0.91-10.55,7.27-14.5
		c12.17-7.55,26.56,6.98,24.91,21.68c-3.07,3.93-5.32,10.51-10.84,13.44c-1.81,0.96-4.17,0.09-5.9,1.41
		c-2.63-1.13-5.38-2.63-7.74-5.28C33.34,291.12,32.19,283.61,30.1,279.35z"/>
	<path class="st1" d="M481.58,1026.8c4.63-1.12,11.94-6.78,15.55-10.3c2.77-2.7,3.7-6.19,4.43-8.91c2.1-7.87,1.25-16.48-5.96-23.58
		c-3.29-3.24-6.21-4.99-9.45-5.82c-7.47-1.92-19.6-0.06-27.15,7.53c-3.88,3.9-7.43,11.7-6.01,17.43c0.26,1.03,1.08,2.39,1.57,3.78
		c0.48,1.36,0.76,2.79,1.28,4.01C460.35,1021.46,472.29,1029.05,481.58,1026.8z M499.38,1006.53c0.44,0.4,0.12,0.7,0.38,1.07
		c-1.81,2.59-5.41,2.83-7.92,4.37C492.44,1009.7,497.8,1009.69,499.38,1006.53z M500.36,1004.86c-2.54,1.33-5.2,3.63-7.71,4.65
		c-1.05-1.34-0.29-2.43-0.56-3.66c2.62-0.64,5.52-3.49,8.21-4.58C500.8,1002.53,500.78,1003.72,500.36,1004.86z M500.45,997.96
		c0.29,0.72,0.11,1.37,0.25,2.08c-2.84,0.35-6.15,4.5-8.86,3.72C493.74,1001.74,497.59,1000.95,500.45,997.96z M500.36,996.67
		c-2.87,2.64-5.58,3.86-8.27,5.08c-1.06-0.98-0.13-1.73-1.19-2.71c3.1-2.4,6.08-3.82,9.05-5.25
		C499.99,994.73,500.13,995.69,500.36,996.67z M498.21,991.51c0.57-0.53,0.91,0.91,1.38,1.2c-1.96,1.14-6.22,3.8-8.99,4.74
		C491.03,995.51,496.79,994.73,498.21,991.51z M493.02,984.19c-2.27,1.18-4.61,3.03-6.85,3.99c2.2,0.77,5.29-1.99,7.07-3.7
		c1.84,0.91,3.49,3.33,5.16,5.53c-1.98,2.65-6.03,5.07-8.61,5.81c-0.94-3.28,4.44-3.26,6.61-6.07c-2.34-0.19-5.06,2.42-7.58,3.64
		c-1.63-2.01-3.18-4.48-4.88-5.75c2.43-1.06,4.93-2.81,7.49-4.94C491.89,983.72,492.51,983.51,493.02,984.19z M485.89,980.19
		c-0.38,0.91-3.06,2.84-4.11,2.29C483.68,981.6,484.11,980.04,485.89,980.19z M475.97,980.2c0.19,0.88-1.69,1.5-2.33,2.27
		c0.92,1.53,3.73-1.43,4.1-2.29c1.94-0.61,3.75-0.11,5.64-0.29c-0.45,1.86-3.48,1.79-4.01,3.58c2.43,2.2,5.69-2.18,8.45-2.5
		c-0.95,2.1-3.9,2.81-5.64,4.4c2.02,0.83,4.56-2.6,6.87-3.99c0.54,0.38,1.06,1.07,1.66,0.99c-1.22,1.55-5.71,3.24-6.99,4.99
		c-3.82-2.68-7.82-3.95-11.98-3.85C472.15,982.35,474.82,980.44,475.97,980.2z M472.9,980.32c-1.24,1.48-3.27,4.28-4.94,2.95
		C470.16,981.62,470.81,980.33,472.9,980.32z M463.91,985.05c-1.09,0.01,1.72-1.64,2.32-2.26
		C467.32,982.78,464.51,984.43,463.91,985.05z M454.97,1001.59c-0.3-5.26,1.12-10.57,8.19-14.59c13.54-7.68,29.31,6.72,27.33,21.45
		c-3.44,3.96-5.99,10.57-12.12,13.56c-2.01,0.98-4.61,0.14-6.54,1.48c-2.9-1.11-5.93-2.57-8.51-5.2
		C458.42,1013.34,457.23,1005.83,454.97,1001.59z"/>
	<path class="st1" d="M188,733.61c-1.56-10.97-12.96-29.15-20.27-38.28c-5.6-7.01-13.41-9.94-19.5-12.22
		c-17.63-6.6-37.6-6.54-55.5,8.57c-8.16,6.91-12.83,13.28-15.46,20.59c-6.05,16.87-4.45,45.39,11.34,64.54
		c8.1,9.84,25.26,19.8,38.73,17.77c2.42-0.37,5.72-1.97,9.04-2.79c3.24-0.8,6.58-1.13,9.51-2.07
		C171.06,781.59,191.14,755.63,188,733.61z M145.32,687.91c1.01-0.92,1.64-0.12,2.56-0.64c5.56,4.77,5.31,13.16,8.3,19.31
		C151.08,704.68,152.26,692.26,145.32,687.91z M141.71,685.27c2.5,6.17,7.2,12.85,9,18.88c-3.3,2.13-5.64,0.14-8.53,0.49
		c-0.9-6.21-6.81-13.57-8.73-20.03C136.44,683.73,139.18,684.04,141.71,685.27z M125.86,683.52c1.72-0.51,3.18,0.04,4.84-0.12
		c0.17,6.66,8.98,15.25,6.6,21.34C133.08,699.89,132.11,690.8,125.86,683.52z M122.87,683.44c5.43,7.22,7.65,13.77,9.86,20.28
		c-2.5,2.23-4-0.08-6.48,2.15c-4.82-7.71-7.44-14.91-10.07-22.12C118.35,683.89,120.57,683.77,122.87,683.44z M110.56,687.28
		c-1.09-1.44,2.28-1.89,3.07-2.93c2.19,4.78,7.36,15.25,8.92,21.86C118.17,704.8,117.64,691.28,110.56,687.28z M92.58,697.69
		c2.2,5.51,5.93,11.34,7.65,16.75c2.25-4.92-3.41-12.69-6.95-17.2c2.5-4.06,8.41-7.34,13.84-10.72
		c5.64,5.17,10.33,15.09,11.46,21.22c-7.75,1.44-6.52-11.01-12.49-16.65c-0.96,5.39,4.45,12.24,6.7,18.35
		c-4.98,3.32-10.99,6.36-14.29,10.04c-1.89-5.86-5.37-12.04-9.7-18.43C91.27,700.19,90.92,698.7,92.58,697.69z M81.84,713.31
		c2.01,1.09,5.86,7.71,4.35,10.01C84.59,718.73,81.1,717.39,81.84,713.31z M79.67,736.28c2.07-0.23,3.07,4.25,4.7,5.9
		c3.73-1.8-2.46-8.96-4.37-10.01c-0.98-4.63,0.57-8.7,0.57-13.12c4.18,1.46,3.36,8.45,7.34,10.07c5.6-5.15-3.75-13.67-3.88-20.13
		c4.61,2.65,5.6,9.66,8.88,14.04c2.36-4.49-4.98-11.15-7.65-16.79c0.99-1.17,2.69-2.2,2.64-3.63c3.3,3.18,6.19,13.94,9.94,17.3
		c-6.99,8.26-10.8,17.24-11.48,26.9C83.77,745.62,79.98,738.99,79.67,736.28z M79.28,743.43c3.12,3.2,9.12,8.51,5.7,12.1
		C81.66,750.04,78.83,748.25,79.28,743.43z M88.19,765.29c-0.22,2.54-3.4-4.33-4.69-5.88C83.71,756.88,86.88,763.75,88.19,765.29z
		 M124.22,789.66c-12.16-0.47-24.05-4.92-31.72-22.2c-14.68-33.05,21.88-66.4,55.3-58.54c8.36,8.85,22.98,16.22,28.5,31.08
		c1.82,4.86-0.7,10.72,1.95,15.48c-3.18,6.46-7.22,13.16-13.82,18.54C151.98,784.25,134.47,785.36,124.22,789.66z"/>
	<path class="st1" d="M484.73,611.86c6.2-6.27,12.24-22.24,14.52-31.26c1.75-6.92-0.15-13.28-1.63-18.24
		c-4.3-14.35-13.94-26.98-32.13-31.06c-8.31-1.85-14.58-1.74-20.49,0.11c-13.6,4.28-30.91,19.01-35.45,38.23
		c-2.34,9.87-0.4,25.53,7.37,33.09c1.4,1.36,4,2.68,6.12,4.39c2.07,1.67,3.88,3.63,5.89,5.03
		C446.17,624.2,472.29,624.45,484.73,611.86z M493.17,562.83c1.07,0.2,0.86,0.98,1.64,1.31c-0.34,5.82-5.79,9.69-8.24,14.54
		C485.31,574.55,493.75,569.32,493.17,562.83z M493.11,559.28c-2.71,4.55-4.68,10.74-7.64,14.78c-2.94-1.07-2.8-3.51-4.41-5.17
		c3.5-3.55,5.32-10.84,8.5-15.16C491.55,555.19,492.67,557.08,493.11,559.28z M486.6,548.38c1.15,0.84,1.51,2.04,2.4,3.01
		c-4.14,3.31-5.35,13.02-10.35,14.45C479.69,560.84,484.99,555.85,486.6,548.38z M485.21,546.46c-1.97,6.91-5.04,11.47-8.11,16
		c-2.61-0.51-1.88-2.57-4.48-3.08c2.57-6.76,5.88-11.89,9.17-17.02C482.75,543.8,483.89,545.15,485.21,546.46z M476.85,540.5
		c0.39-1.39,2.3,0.53,3.33,0.53c-1.98,3.69-6.13,12-9.57,16.17C469.41,553.75,477.72,546.91,476.85,540.5z M461.61,534.1
		c-2.43,4.05-4.33,9.22-6.94,12.91c4.2-0.94,6.4-8.27,7.56-12.68c3.78-0.37,8.7,1.8,13.45,3.62c-0.57,6.06-4.6,13.8-7.94,17.47
		c-4.64-4.22,3.84-9.43,4.54-15.93c-3.87,1.98-5.62,8.71-8.41,13.07c-4.5-1.56-9.32-3.91-13.24-4.23c2.8-4.02,5.05-9.2,7.02-15.01
		C459.39,534.48,460.17,533.54,461.61,534.1z M446.54,534.81c0.27,1.8-2.07,7.42-4.25,7.57C444.43,539.16,443.6,536.3,446.54,534.81
		z M430.94,544.49c1.14,1.2-1.22,3.99-1.47,5.82c2.93,1.5,4.5-5.87,4.24-7.59c2.46-2.84,5.79-3.83,8.59-5.95
		c1.08,3.35-3.74,6.2-2.86,9.5c5.96,1.07,6.86-8.95,10.89-12.14c0.53,4.2-3.43,8.2-4.62,12.38c3.98-0.66,4.67-8.52,6.96-12.93
		c1.22,0.07,2.69,0.65,3.57-0.08c-0.43,3.62-5.86,10.63-6.19,14.62c-8.6-0.46-16.12,1.45-22.57,5.66
		C426.99,551.57,429.37,545.99,430.94,544.49z M426.22,547.68c-0.53,3.52-1.01,9.87-4.93,9.44
		C423.17,552.37,422.95,549.71,426.22,547.68z M416.64,563.84c-1.71,1.08,1.11-4.24,1.47-5.8
		C419.83,556.96,416.99,562.27,416.64,563.84z M418.53,598.4c-5.55-7.94-8.45-17.61-1.19-30.78c13.89-25.2,52.61-18.06,63.71,6.89
		c-1.59,9.55,0.77,22.37-5.99,33.01c-2.21,3.49-7.13,4.71-8.87,8.68c-5.63,1.09-11.81,1.75-18.4,0.16
		C435.31,613.39,426.19,602.83,418.53,598.4z"/>
	<path class="st1" d="M708.41,502.64c-1.56-10.97-12.96-29.15-20.27-38.28c-5.6-7.01-13.41-9.94-19.5-12.22
		c-17.63-6.6-37.6-6.54-55.5,8.57c-8.16,6.91-12.83,13.28-15.46,20.59c-6.05,16.87-4.45,45.39,11.34,64.54
		c8.1,9.84,25.26,19.8,38.73,17.77c2.42-0.37,5.72-1.97,9.04-2.79c3.24-0.8,6.58-1.13,9.51-2.07
		C691.46,550.63,711.55,524.66,708.41,502.64z M665.73,456.94c1.01-0.92,1.64-0.12,2.56-0.64c5.56,4.77,5.31,13.16,8.3,19.31
		C671.49,473.71,672.66,461.29,665.73,456.94z M662.12,454.3c2.5,6.17,7.2,12.85,9,18.88c-3.3,2.13-5.64,0.14-8.53,0.49
		c-0.9-6.21-6.81-13.57-8.73-20.03C656.85,452.76,659.58,453.08,662.12,454.3z M646.27,452.55c1.72-0.51,3.18,0.04,4.84-0.12
		c0.17,6.66,8.98,15.25,6.6,21.34C653.49,468.93,652.52,459.83,646.27,452.55z M643.28,452.47c5.43,7.22,7.65,13.77,9.86,20.28
		c-2.5,2.23-4-0.08-6.48,2.15c-4.82-7.71-7.44-14.91-10.07-22.12C638.75,452.92,640.98,452.8,643.28,452.47z M630.97,456.32
		c-1.09-1.44,2.28-1.89,3.07-2.93c2.19,4.78,7.36,15.25,8.92,21.86C638.58,473.83,638.05,460.32,630.97,456.32z M612.98,466.72
		c2.2,5.51,5.93,11.34,7.65,16.75c2.25-4.92-3.41-12.69-6.95-17.2c2.5-4.06,8.41-7.34,13.84-10.72
		c5.64,5.17,10.33,15.09,11.46,21.22c-7.75,1.44-6.52-11.01-12.49-16.65c-0.96,5.39,4.45,12.24,6.7,18.35
		c-4.98,3.32-10.99,6.36-14.29,10.04c-1.89-5.86-5.37-12.04-9.7-18.43C611.68,469.22,611.32,467.74,612.98,466.72z M602.24,482.34
		c2.01,1.09,5.86,7.71,4.35,10.01C605,487.77,601.5,486.42,602.24,482.34z M600.08,505.32c2.07-0.23,3.07,4.25,4.7,5.9
		c3.73-1.8-2.46-8.96-4.37-10.01c-0.98-4.63,0.57-8.7,0.57-13.12c4.18,1.46,3.36,8.45,7.34,10.07c5.6-5.15-3.75-13.67-3.88-20.13
		c4.61,2.65,5.6,9.66,8.88,14.04c2.36-4.49-4.98-11.15-7.65-16.79c0.99-1.17,2.69-2.2,2.64-3.63c3.3,3.18,6.19,13.94,9.94,17.3
		c-6.99,8.26-10.8,17.24-11.48,26.9C604.18,514.65,600.39,508.03,600.08,505.32z M599.69,512.46c3.12,3.2,9.12,8.51,5.7,12.1
		C602.07,519.08,599.24,517.29,599.69,512.46z M608.59,534.33c-0.22,2.54-3.4-4.33-4.69-5.88
		C604.12,525.91,607.28,532.79,608.59,534.33z M644.63,558.69c-12.16-0.47-24.05-4.92-31.72-22.2
		c-14.68-33.05,21.88-66.4,55.3-58.54c8.36,8.85,22.98,16.22,28.5,31.08c1.82,4.86-0.7,10.72,1.95,15.48
		c-3.18,6.46-7.22,13.16-13.82,18.54C672.39,553.28,654.88,554.4,644.63,558.69z"/>
	<path class="st1" d="M229.73,406.87c5.03-9.87,6.16-31.3,5.45-42.97c-0.55-8.96-5.25-15.84-8.92-21.22
		c-10.62-15.54-27-26.98-50.33-24.92c-10.65,0.96-18.13,3.48-24.5,7.95c-14.65,10.31-29.75,34.57-27.85,59.32
		c0.97,12.71,9.28,30.72,21.46,36.81c2.19,1.09,5.81,1.68,9,2.92c3.11,1.21,6.03,2.86,8.97,3.78
		C188.27,436.38,219.64,426.69,229.73,406.87z M221.12,344.94c1.36-0.17,1.41,0.85,2.46,0.94c1.81,7.1-3.23,13.82-4.32,20.57
		C216.18,361.97,224.28,352.49,221.12,344.94z M219.68,340.71c-1.51,6.48-1.5,14.65-3.5,20.62c-3.92-0.16-4.69-3.13-7.26-4.51
		c2.84-5.6,2.23-15.02,4.39-21.41C216.25,336.42,218.31,338.24,219.68,340.71z M207.72,330.15c1.7,0.57,2.58,1.86,4.03,2.69
		c-3.69,5.55-1.43,17.64-6.88,21.25C204.21,347.71,208.64,339.7,207.72,330.15z M205.32,328.37c0.29,9.03-1.66,15.66-3.61,22.26
		c-3.33,0.38-3.23-2.36-6.54-1.97c0.49-9.08,2.5-16.48,4.48-23.89C201.36,326.13,203.25,327.32,205.32,328.37z M193.03,324.43
		c-0.06-1.81,2.96-0.23,4.19-0.63c-0.96,5.17-2.75,16.71-5.28,23.02C189.19,343.13,196.53,331.78,193.03,324.43z M172.34,322.6
		c-1.36,5.77-1.67,12.69-3.38,18.1c4.67-2.73,4.51-12.34,4.21-18.07c4.38-1.89,11.11-1.16,17.49-0.81
		c1.64,7.48-0.23,18.29-2.83,23.95c-7.17-3.28,1-12.76-0.64-20.81c-3.88,3.86-3.4,12.57-5.08,18.86
		c-5.98-0.15-12.65-1.12-17.46-0.01c1.82-5.88,2.54-12.94,2.66-20.65C169.83,323.89,170.4,322.47,172.34,322.6z M154.58,329.19
		c1.02,2.05,0.36,9.68-2.2,10.7C153.7,335.22,151.62,332.11,154.58,329.19z M139.58,346.74c1.83,1,0.06,5.24,0.45,7.53
		c4.08,0.68,3.14-8.75,2.19-10.71c1.86-4.35,5.47-6.8,8.01-10.41c2.57,3.6-2.12,8.85,0.21,12.46c7.55-0.99,4.79-13.33,8.4-18.7
		c2.24,4.82-0.98,11.13-0.81,16.59c4.52-2.31,2.34-11.98,3.4-18.14c1.49-0.38,3.47-0.25,4.24-1.45c0.87,4.5-2.95,14.96-1.82,19.87
		c-10.47,2.73-18.75,7.89-24.87,15.4C137.57,356.73,138.28,349.15,139.58,346.74z M135.16,352.36c0.71,4.42,2.56,12.21-2.3,13.18
		C133.3,359.15,132.01,356.05,135.16,352.36z M129.86,375.37c-1.64,1.95-0.29-5.5-0.45-7.5
		C131.04,365.92,129.68,373.35,129.86,375.37z M145.32,416.03c-9.68-7.38-16.84-17.86-13.18-36.4c7.01-35.48,56.1-41.72,78.92-16.07
		c1.75,12.04,9.46,26.49,5.44,41.82c-1.31,5.02-6.74,8.36-7.31,13.78c-6.32,3.46-13.48,6.61-21.97,7.22
		C171.14,427.58,156.18,418.41,145.32,416.03z"/>
	<path class="st1" d="M684.08,1048.69c5.03-9.87,6.16-31.3,5.45-42.97c-0.55-8.96-5.25-15.84-8.92-21.22
		c-10.62-15.54-27-26.98-50.33-24.92c-10.65,0.96-18.13,3.48-24.5,7.95c-14.65,10.31-29.75,34.57-27.85,59.32
		c0.97,12.71,9.28,30.72,21.46,36.81c2.19,1.09,5.81,1.68,9,2.92c3.11,1.21,6.03,2.86,8.97,3.78
		C642.62,1078.19,673.98,1068.51,684.08,1048.69z M675.46,986.76c1.36-0.17,1.41,0.85,2.46,0.94c1.81,7.1-3.23,13.82-4.32,20.57
		C670.53,1003.79,678.63,994.31,675.46,986.76z M674.02,982.53c-1.51,6.48-1.5,14.65-3.5,20.62c-3.92-0.16-4.69-3.13-7.26-4.51
		c2.84-5.6,2.23-15.02,4.39-21.4C670.6,978.23,672.65,980.06,674.02,982.53z M662.07,971.97c1.7,0.57,2.58,1.86,4.03,2.69
		c-3.69,5.55-1.43,17.64-6.88,21.25C658.56,989.52,662.99,981.52,662.07,971.97z M659.67,970.19c0.29,9.03-1.66,15.66-3.61,22.26
		c-3.33,0.38-3.23-2.36-6.54-1.97c0.49-9.08,2.49-16.48,4.48-23.89C655.71,967.95,657.6,969.13,659.67,970.19z M647.38,966.25
		c-0.06-1.81,2.96-0.23,4.19-0.63c-0.96,5.17-2.75,16.71-5.28,23.02C643.53,984.95,650.87,973.6,647.38,966.25z M626.69,964.41
		c-1.36,5.77-1.67,12.69-3.38,18.1c4.67-2.73,4.51-12.34,4.21-18.07c4.38-1.89,11.11-1.16,17.49-0.81
		c1.64,7.48-0.23,18.29-2.83,23.95c-7.17-3.28,1-12.76-0.64-20.81c-3.88,3.86-3.4,12.57-5.08,18.86
		c-5.98-0.15-12.65-1.12-17.46-0.01c1.82-5.88,2.54-12.94,2.66-20.65C624.18,965.71,624.75,964.29,626.69,964.41z M608.92,971.01
		c1.02,2.05,0.36,9.68-2.2,10.7C608.05,977.03,605.97,973.92,608.92,971.01z M593.93,988.56c1.83,1,0.06,5.24,0.45,7.53
		c4.08,0.68,3.14-8.75,2.19-10.71c1.86-4.35,5.47-6.8,8.01-10.41c2.57,3.6-2.12,8.85,0.21,12.46c7.55-0.99,4.79-13.33,8.4-18.7
		c2.24,4.82-0.98,11.13-0.81,16.59c4.52-2.31,2.34-11.98,3.4-18.14c1.49-0.38,3.47-0.25,4.24-1.45c0.87,4.5-2.95,14.96-1.82,19.86
		c-10.47,2.73-18.75,7.89-24.87,15.4C591.92,998.55,592.63,990.96,593.93,988.56z M589.5,994.18c0.71,4.42,2.56,12.21-2.3,13.18
		C587.64,1000.96,586.36,997.87,589.5,994.18z M584.21,1017.19c-1.64,1.95-0.29-5.5-0.45-7.5
		C585.39,1007.73,584.02,1015.17,584.21,1017.19z M599.67,1057.85c-9.68-7.38-16.84-17.86-13.18-36.4
		c7.01-35.48,56.1-41.72,78.92-16.07c1.75,12.04,9.46,26.49,5.44,41.82c-1.31,5.02-6.74,8.36-7.31,13.78
		c-6.32,3.46-13.48,6.61-21.97,7.22C625.49,1069.39,610.52,1060.23,599.67,1057.85z"/>
	<path class="st1" d="M470.05,832.37c3.95-10.36,2.78-31.78,0.82-43.31c-1.51-8.85-6.92-15.19-11.14-20.14
		c-12.23-14.31-29.73-23.94-52.71-19.39c-10.49,2.09-17.65,5.4-23.51,10.52c-13.46,11.82-25.88,37.55-21.35,61.95
		c2.32,12.53,12.51,29.56,25.27,34.31c2.3,0.85,5.96,1.05,9.26,1.94c3.22,0.87,6.3,2.19,9.32,2.8
		C431.98,866.14,462.14,853.16,470.05,832.37z M454.86,771.72c1.33-0.31,1.49,0.69,2.55,0.68c2.56,6.86-1.73,14.08-2.1,20.91
		C451.78,789.17,458.82,778.88,454.86,771.72z M452.98,767.66c-0.8,6.61,0.08,14.73-1.27,20.88c-3.92,0.26-5-2.61-7.7-3.71
		c2.22-5.87,0.61-15.17,2.07-21.75C449.12,763.76,451.35,765.35,452.98,767.66z M439.96,758.44c1.75,0.39,2.77,1.58,4.29,2.24
		c-3.07,5.91,0.47,17.69-4.56,21.86C438.35,776.27,441.9,767.84,439.96,758.44z M437.39,756.92c1.25,8.95,0.03,15.75-1.2,22.52
		c-3.26,0.74-3.46-2.01-6.71-1.26c-0.48-9.08,0.72-16.65,1.9-24.23C433.21,755.12,435.21,756.1,437.39,756.92z M424.75,754.32
		c-0.26-1.79,2.92-0.55,4.1-1.08c-0.4,5.24-0.95,16.9-2.79,23.45C422.93,773.33,429.01,761.26,424.75,754.32z M403.98,754.72
		c-0.74,5.89-0.3,12.8-1.42,18.36c4.35-3.22,3.16-12.76,2.25-18.41c4.16-2.34,10.92-2.34,17.3-2.67c2.43,7.26,1.72,18.21-0.26,24.12
		c-7.48-2.49-0.37-12.79-2.86-20.62c-3.45,4.25-2.04,12.86-3.03,19.3c-5.96,0.49-12.7,0.24-17.36,1.85
		c1.18-6.04,1.14-13.14,0.44-20.82C401.63,756.27,402.03,754.8,403.98,754.72z M387.02,763.18c1.23,1.93,1.39,9.58-1.05,10.87
		C386.8,769.25,384.4,766.38,387.02,763.18z M373.99,782.23c1.92,0.8,0.62,5.21,1.26,7.44c4.13,0.23,2.19-9.03,1.03-10.88
		c1.39-4.52,4.71-7.34,6.85-11.2c2.95,3.31-1.16,9.02,1.54,12.37c7.4-1.8,3.34-13.77,6.35-19.49c2.74,4.55,0.22,11.17,0.97,16.58
		c4.24-2.79,1.05-12.16,1.44-18.39c1.44-0.54,3.42-0.62,4.07-1.9c1.35,4.38-1.34,15.19,0.31,19.95
		c-10.12,3.84-17.79,9.85-23.07,17.97C373.06,792.38,372.95,784.75,373.99,782.23z M370.19,788.29c1.18,4.31,3.85,11.86-0.88,13.35
		C369.07,795.23,367.46,792.29,370.19,788.29z M367.38,811.73c-1.42,2.12-0.87-5.44-1.25-7.41
		C367.55,802.2,366.99,809.74,367.38,811.73z M387.11,850.5c-10.41-6.3-18.66-15.96-17-34.79c3.17-36.02,51.31-47.48,76.75-24.42
		c3.03,11.79,12.24,25.33,9.88,41c-0.77,5.13-5.81,9.04-5.79,14.49c-5.91,4.11-12.7,8.01-21.08,9.53
		C414.01,859.22,398.15,851.71,387.11,850.5z"/>
	<path class="st1" d="M130.09,119.64c-6.67,8.88-15.64,17.71-18.88,28.29c-1.56,5.05-1.95,20.41,0.36,25.12
		c3.67,7.45,12.94,12.33,16.55,13.22c11.19,2.81,35.95-7.56,51.06-20.02c18.59-15.36,14.55-50.01-9.53-57.72
		C157.83,104.73,142.58,108.56,130.09,119.64z M131.88,125.04c4.04-5.76,7.42,7.62,7.23,10.13
		C137.03,135.68,134.61,127.97,131.88,125.04z M129.7,128.05c3.26-0.23,6.35,7.65,6.28,9.92
		C133.28,138.34,128.68,130.12,129.7,128.05z M126.73,132.38c2.37-0.15,6.77,8.41,5.1,10.67
		C129.09,141.25,126.65,135.22,126.73,132.38z M123.89,138.26c3.03-0.6,4.24,6.46,5.54,8.75C127.3,146,124.15,140.5,123.89,138.26z
		 M119.68,145.81c3.4-0.65,4.12,6.09,5.16,8.17C122.84,153.18,119.85,147.87,119.68,145.81z M117.45,151.31
		c2.91-0.47,6.96,7.44,3.03,8.69C118.53,156.91,117.15,153.93,117.45,151.31z M115.95,157.99c1.82,0.6,5.42,5.86,2.89,7.16
		C118.86,162.99,115.74,160.11,115.95,157.99z M117.18,170.28c-0.7-2.16-2.34-4.53-2.53-6.58
		C116.6,164.17,118.84,168.96,117.18,170.28z M174.6,148.67c2.29,5.9-1.04,8.33-2.11,16.06c-13.33,7.26-42,27.51-49.28,9.92
		c-2.55-6.12,11.42-33.93,23.95-39.65C157.52,130.27,170.47,138.11,174.6,148.67z M170.26,114.67c3.26-0.39,2.39,6.4,4.01,8.92
		C171.25,122.2,173.25,117.69,170.26,114.67z M152.11,128.6c1.22-4.53-3.42-11.45-5.59-15.28c1.38-0.88,2.35-0.07,3.86-1.62
		c1.41,4.99,2.53,9.92,4.63,15.05c3.59-4.21-2.95-10.67-2.5-15.57c6.69,0.36,3.2,13.14,8.8,16.49c1.4-4.68-2.79-10.64-3.46-15.8
		c2.5-0.71,4.63,0.18,6.88,0.55c2.14,7.49,4.68,15.07,5.02,22.15c-6.53-4.35-4.25-14.81-8.1-21.82c-2.26,5.49,1.58,12.37,2.81,18.64
		c-5.14-0.91-9.95-3.23-15.68-1.52c-1.36-4.82-4.09-9.94-5.2-14.69C149.56,116.34,147.4,126.08,152.11,128.6z M143.62,130.68
		c2.7-3.57-3.36-9.09-3.51-13.31c3.96,0.88,3.88,8.67,6.22,12.42c-1.56,0.99-3.12,1.97-4.68,2.95c-0.49-3.94-5.57-8.93-4.68-12.57
		C141.25,120.3,139.85,127.37,143.62,130.68z"/>
	<path class="st1" d="M254,570.43c-6.67,8.88-15.64,17.71-18.88,28.29c-1.56,5.05-1.95,20.41,0.36,25.12
		c3.67,7.45,12.94,12.33,16.55,13.22c11.19,2.81,35.95-7.56,51.06-20.02c18.59-15.36,14.55-50.01-9.53-57.72
		C281.73,555.53,266.49,559.36,254,570.43z M255.79,575.84c4.04-5.76,7.42,7.62,7.23,10.13
		C260.94,586.48,258.52,578.76,255.79,575.84z M253.61,578.85c3.26-0.23,6.35,7.65,6.28,9.92
		C257.18,589.14,252.59,580.92,253.61,578.85z M250.64,583.18c2.37-0.15,6.77,8.41,5.1,10.66
		C253,592.04,250.56,586.02,250.64,583.18z M247.8,589.06c3.03-0.6,4.24,6.46,5.54,8.75C251.21,596.8,248.06,591.3,247.8,589.06z
		 M243.59,596.61c3.4-0.65,4.12,6.09,5.16,8.17C246.74,603.98,243.76,598.67,243.59,596.61z M241.35,602.11
		c2.91-0.47,6.96,7.44,3.03,8.69C242.44,607.71,241.06,604.73,241.35,602.11z M239.86,608.78c1.82,0.6,5.42,5.86,2.89,7.16
		C242.77,613.79,239.65,610.91,239.86,608.78z M241.09,621.07c-0.7-2.16-2.34-4.53-2.53-6.58
		C240.51,614.97,242.75,619.76,241.09,621.07z M298.51,599.46c2.29,5.9-1.04,8.33-2.11,16.06c-13.33,7.26-42,27.51-49.28,9.92
		c-2.55-6.12,11.42-33.93,23.95-39.65C281.43,581.07,294.38,588.91,298.51,599.46z M294.17,565.47c3.26-0.39,2.39,6.4,4.01,8.92
		C295.16,573,297.16,568.49,294.17,565.47z M276.02,579.39c1.22-4.53-3.42-11.45-5.59-15.28c1.38-0.88,2.35-0.07,3.86-1.62
		c1.41,4.99,2.53,9.92,4.63,15.05c3.59-4.21-2.95-10.67-2.5-15.57c6.69,0.36,3.2,13.14,8.8,16.49c1.4-4.68-2.79-10.64-3.46-15.8
		c2.5-0.71,4.63,0.18,6.88,0.55c2.14,7.49,4.68,15.07,5.02,22.15c-6.53-4.35-4.25-14.81-8.1-21.82c-2.26,5.49,1.58,12.37,2.81,18.64
		c-5.14-0.91-9.95-3.23-15.68-1.52c-1.36-4.82-4.09-9.94-5.2-14.69C273.47,567.14,271.31,576.88,276.02,579.39z M267.53,581.47
		c2.7-3.57-3.36-9.09-3.51-13.31c3.96,0.88,3.88,8.67,6.22,12.42c-1.56,0.99-3.12,1.97-4.68,2.95c-0.49-3.94-5.57-8.93-4.68-12.57
		C265.16,571.1,263.76,578.16,267.53,581.47z"/>
	<path class="st1" d="M571.21,304.57c-1.5,11.01-5.02,23.09-2.71,33.9c1.1,5.17,8.24,18.77,12.55,21.76
		c6.83,4.72,17.31,4.46,20.89,3.48c11.14-3,27.71-24.12,34.84-42.36c8.75-22.47-11.66-50.76-36.44-45.76
		C588.16,278.05,576.72,288.82,571.21,304.57z M575.4,308.43c0.72-7,10.19,3.03,11.25,5.33C585.07,315.2,579.2,309.65,575.4,308.43z
		 M574.96,312.11c2.74-1.79,9.27,3.59,10.32,5.6C583.1,319.36,575.08,314.42,574.96,312.11z M574.48,317.34
		c2-1.28,10.01,4.05,9.65,6.83C580.85,323.94,575.79,319.86,574.48,317.34z M574.86,323.86c2.36-2,6.85,3.58,9.1,4.94
		C581.61,328.96,576.18,325.69,574.86,323.86z M574.86,332.5c2.65-2.22,6.57,3.31,8.49,4.61
		C581.21,337.4,576.01,334.22,574.86,332.5z M575.59,338.4c2.31-1.83,9.7,3.1,6.88,6.11C579.27,342.76,576.61,340.83,575.59,338.4z
		 M577.54,344.95c1.88-0.36,7.59,2.48,6.01,4.84C582.51,347.91,578.39,346.91,577.54,344.95z M584.6,355.09
		c-1.66-1.55-4.25-2.82-5.42-4.51C581.12,350.04,585.41,353.13,584.6,355.09z M624.21,308.24c4.87,4.03,3.15,7.78,5.98,15.05
		c-8.1,12.83-23.28,44.48-38.2,32.67c-5.21-4.1-6.56-35.19,1.6-46.29C600.34,300.5,615.47,301.04,624.21,308.24z M603.86,280.67
		c2.66-1.93,5.2,4.42,7.85,5.83C608.4,286.76,607.94,281.85,603.86,280.67z M594.8,301.67c-1.14-4.55-8.57-8.33-12.32-10.62
		c0.78-1.44,2.03-1.21,2.58-3.3c3.66,3.66,7.04,7.43,11.37,10.89c1.08-5.42-7.78-7.87-9.77-12.38c6.02-2.95,9.19,9.91,15.72,10.12
		c-1.06-4.76-7.62-7.93-10.72-12.11c1.83-1.84,4.13-2.1,6.28-2.87c5.52,5.49,11.42,10.88,15.17,16.9
		c-7.82-0.62-10.93-10.86-17.7-15.11c0.7,5.89,7.4,10.04,11.53,14.91c-4.94,1.71-10.27,2.03-14.44,6.31
		c-3.54-3.55-8.41-6.68-11.7-10.3C586.6,292.21,589.46,301.77,594.8,301.67z M588.39,307.62c0.61-4.43-7.36-6.3-9.55-9.92
		c3.89-1.16,7.61,5.68,11.48,7.82c-0.88,1.62-1.76,3.24-2.65,4.86c-2.35-3.21-9.22-5.08-10.21-8.7
		C581.27,299.72,583.49,306.57,588.39,307.62z"/>
	<path class="st1" d="M294.9,957.99c6.42,9.07,12.1,20.3,21.17,26.62c4.33,3.03,18.84,8.09,24.03,7.33
		c8.22-1.22,15.69-8.56,17.64-11.72c6.09-9.79,3.77-36.54-3.47-54.74c-8.95-22.39-43.18-29.12-57.87-8.55
		C289.17,927.04,288.17,942.72,294.9,957.99z M300.59,957.95c-4.25-5.61,9.52-4.74,11.86-3.78
		C312.29,956.29,304.21,956.24,300.59,957.95z M302.79,960.93c0.78-3.18,9.22-3.71,11.36-2.95
		C313.68,960.68,304.45,962.54,302.79,960.93z M306.01,965.09c0.59-2.3,10.07-3.88,11.72-1.6
		C315.17,965.55,308.69,966.03,306.01,965.09z M310.74,969.59c0.36-3.08,7.45-2.06,10.02-2.6
		C319.15,968.71,312.95,970.02,310.74,969.59z M316.64,975.9c0.42-3.43,7.06-2.07,9.35-2.42
		C324.63,975.15,318.66,976.37,316.64,975.9z M321.2,979.71c0.44-2.91,9.21-4.36,9.2-0.24C326.87,980.39,323.6,980.79,321.2,979.71z
		 M327.1,983.17c1.13-1.55,7.24-3.37,7.7-0.57C332.75,981.93,329.06,984.02,327.1,983.17z M339.18,985.75
		c-2.27,0-5.03,0.84-7.03,0.4C333.19,984.45,338.43,983.77,339.18,985.75z M336.13,924.48c6.31-0.38,7.61,3.53,14.65,6.91
		c2.84,14.91,13.37,48.4-5.6,49.95c-6.61,0.56-28.83-21.23-30.44-34.91C313.4,935.13,324.82,925.19,336.13,924.48z M302.43,918.23
		c0.62-3.23,6.82-0.32,9.71-1.1C309.91,919.58,306.22,916.31,302.43,918.23z M310.16,939.77c-3.94-2.54-11.95-0.23-16.26,0.65
		c-0.41-1.58,0.66-2.26-0.37-4.17c5.18,0.18,10.22,0.62,15.74,0.19c-2.91-4.7-11.06-0.45-15.59-2.37
		c2.38-6.26,13.48,0.97,18.39-3.34c-4.03-2.76-10.98-0.59-16.1-1.53c0.08-2.6,1.59-4.35,2.63-6.39c7.78,0.24,15.78,0.15,22.62,1.98
		c-6.13,4.89-15.4-0.47-23.25,1.05c4.54,3.83,12.26,2.28,18.61,3.02c-2.44,4.62-6.12,8.49-6.24,14.47
		c-5.01-0.17-10.71,0.86-15.58,0.46C297.71,938.45,306.32,943.48,310.16,939.77z M309.54,948.49c-2.58-3.66-9.68,0.42-13.75-0.73
		c2.04-3.5,9.44-1.05,13.73-2.13c0.47,1.79,0.92,3.57,1.39,5.36c-3.91-0.74-10.21,2.57-13.39,0.61
		C298.94,947.58,305.24,951.06,309.54,948.49z"/>
	<path class="st1" d="M95.66,1010.8c-6.67,8.88-15.64,17.71-18.88,28.29c-1.56,5.05-1.95,20.41,0.36,25.12
		c3.67,7.45,12.94,12.33,16.55,13.22c11.19,2.81,35.95-7.56,51.06-20.02c18.59-15.36,14.55-50.01-9.53-57.72
		C123.39,995.89,108.14,999.72,95.66,1010.8z M97.44,1016.21c4.04-5.76,7.42,7.62,7.23,10.13
		C102.59,1026.84,100.17,1019.13,97.44,1016.21z M95.27,1019.21c3.26-0.23,6.35,7.65,6.28,9.92
		C98.84,1029.5,94.25,1021.28,95.27,1019.21z M92.29,1023.54c2.37-0.15,6.77,8.41,5.1,10.67
		C94.65,1032.41,92.21,1026.38,92.29,1023.54z M89.45,1029.42c3.03-0.6,4.24,6.46,5.54,8.75
		C92.86,1037.16,89.71,1031.66,89.45,1029.42z M85.25,1036.97c3.4-0.65,4.12,6.09,5.16,8.17
		C88.4,1044.34,85.41,1039.03,85.25,1036.97z M83.01,1042.47c2.91-0.47,6.96,7.44,3.03,8.69
		C84.1,1048.07,82.72,1045.09,83.01,1042.47z M81.52,1049.15c1.82,0.6,5.42,5.86,2.89,7.16
		C84.42,1054.15,81.31,1051.28,81.52,1049.15z M82.75,1061.44c-0.7-2.16-2.34-4.53-2.53-6.58
		C82.16,1055.33,84.41,1060.12,82.75,1061.44z M140.16,1039.83c2.29,5.9-1.04,8.33-2.11,16.06c-13.33,7.26-42,27.51-49.28,9.92
		c-2.55-6.12,11.42-33.93,23.95-39.65C123.08,1021.43,136.04,1029.28,140.16,1039.83z M135.83,1005.83c3.26-0.39,2.39,6.4,4.01,8.92
		C136.82,1013.36,138.81,1008.85,135.83,1005.83z M117.67,1019.76c1.22-4.53-3.42-11.45-5.59-15.28c1.38-0.88,2.35-0.07,3.86-1.62
		c1.41,4.99,2.53,9.92,4.63,15.05c3.59-4.21-2.95-10.67-2.5-15.57c6.69,0.36,3.2,13.14,8.8,16.49c1.4-4.68-2.79-10.64-3.46-15.8
		c2.5-0.71,4.63,0.18,6.88,0.55c2.14,7.49,4.68,15.07,5.02,22.15c-6.53-4.35-4.25-14.81-8.1-21.82c-2.26,5.49,1.58,12.37,2.81,18.64
		c-5.14-0.91-9.95-3.23-15.68-1.52c-1.36-4.82-4.09-9.94-5.2-14.69C115.12,1007.5,112.96,1017.24,117.67,1019.76z M109.18,1021.84
		c2.7-3.57-3.36-9.09-3.51-13.31c3.96,0.88,3.88,8.67,6.22,12.42c-1.56,0.99-3.12,1.97-4.68,2.95c-0.49-3.94-5.57-8.93-4.68-12.57
		C106.81,1011.46,105.42,1018.53,109.18,1021.84z"/>
	<path class="st1" d="M638.47,772.32c-10.66-3.13-22.08-8.42-33.11-7.75c-5.28,0.31-19.79,5.34-23.39,9.15
		c-5.69,6.05-6.99,16.44-6.57,20.13c1.3,11.46,19.71,31,36.68,40.78c20.91,12.02,51.93-3.94,50.7-29.19
		C662.16,793.05,653.22,780.13,638.47,772.32z M634.03,775.89c6.81,1.76-4.53,9.62-6.95,10.32
		C625.88,784.45,632.25,779.47,634.03,775.89z M630.45,774.91c1.36,2.98-4.93,8.63-7.08,9.37
		C622.07,781.87,628.15,774.68,630.45,774.91z M625.35,773.65c0.97,2.17-5.5,9.29-8.2,8.52
		C617.88,778.97,622.66,774.57,625.35,773.65z M618.85,773.05c1.63,2.63-4.56,6.24-6.25,8.26
		C612.79,778.96,616.84,774.09,618.85,773.05z M610.3,771.77c1.8,2.95-4.25,6-5.83,7.7C604.5,777.3,608.43,772.64,610.3,771.77z
		 M604.36,771.6c1.46,2.56-4.52,9.13-7.07,5.9C599.5,774.59,601.81,772.25,604.36,771.6z M597.59,772.55
		c0.08,1.91-3.58,7.13-5.69,5.22C593.93,777.02,595.52,773.1,597.59,772.55z M586.51,778.02c1.78-1.41,3.42-3.78,5.27-4.68
		C592.02,775.33,588.33,779.1,586.51,778.02z M626.91,824.18c-4.71,4.21-8.17,1.95-15.78,3.66c-11.48-9.93-40.5-29.67-26.59-42.66
		c4.84-4.54,35.78-1.23,45.53,8.5C638.14,801.73,635.34,816.62,626.91,824.18z M657.22,808.19c1.51,2.92-5.15,4.48-6.94,6.88
		C650.51,811.76,655.44,812.05,657.22,808.19z M637.8,796.08c4.67-0.45,9.52-7.23,12.34-10.59c1.3,0.98,0.89,2.18,2.88,3.05
		c-4.17,3.07-8.4,5.85-12.47,9.62c5.2,1.89,8.95-6.51,13.7-7.81c2.02,6.39-11.18,7.61-12.36,14.03c4.87-0.33,8.98-6.35,13.58-8.78
		c1.55,2.09,1.46,4.39,1.9,6.64c-6.26,4.63-12.47,9.67-18.98,12.48c1.78-7.64,12.37-9.18,17.59-15.25
		c-5.93-0.19-11.03,5.82-16.47,9.17c-0.96-5.14-0.47-10.45-4.08-15.22c4.04-2.97,7.87-7.32,11.94-10.02
		C648.38,789.39,638.51,790.79,637.8,796.08z M632.87,788.86c4.29,1.27,7.34-6.34,11.23-7.96c0.57,4.02-6.75,6.68-9.45,10.18
		c-1.47-1.11-2.94-2.23-4.41-3.34c3.52-1.84,6.41-8.35,10.13-8.79C641.76,783,634.65,784.17,632.87,788.86z"/>
	<path class="st1" d="M682.94,98.74c-10.5-8.28-20.71-19.04-33.68-23.8c-6.2-2.28-25.49-4.51-31.65-2.57
		c-9.75,3.1-16.82,12.58-18.31,16.39c-4.67,11.8,5.88,39.87,20.02,57.73c17.45,21.97,61.46,21.66,73.6-3.55
		C698.89,130.57,695.61,113.59,682.94,98.74z M675.95,100.05c6.84,5.06-10.34,7.15-13.48,6.65
		C662.05,104.38,672,102.66,675.95,100.05z M672.39,97.33c-0.05,3.56-10.27,5.98-13.12,5.65C659.08,99.99,669.88,95.98,672.39,97.33
		z M667.24,93.6c-0.06,2.59-11.27,6.35-13.94,4.27C655.84,95.11,663.67,93.18,667.24,93.6z M660.13,89.83
		c0.45,3.36-8.56,3.84-11.57,4.98C650.04,92.61,657.28,89.85,660.13,89.83z M651.05,84.38c0.47,3.76-8.08,3.76-10.8,4.64
		C641.46,86.93,648.44,84.31,651.05,84.38z M644.36,81.3c0.3,3.21-10.06,6.68-11.24,2.27C637.19,81.83,641.09,80.68,644.36,81.3z
		 M636.11,78.9c-0.94,1.9-7.93,5.19-9.3,2.29C629.52,81.46,633.45,78.42,636.11,78.9z M620.52,78.79c2.79-0.5,5.94-2,8.53-1.97
		C628.25,78.88,622,80.74,620.52,78.79z M641.89,143.59c-7.65,1.79-10.38-2.11-19.99-4.18c-7.78-15.31-30.36-48.79-7.49-54.61
		c7.96-2.04,41.55,16.37,47.47,30.63C666.77,127.23,655.59,140.36,641.89,143.59z M685.12,142.89c0.16,3.58-8.29,1.83-11.62,3.3
		C675.54,143.08,681.02,145.77,685.12,142.89z M669.43,121.56c5.58,1.85,14.75-2.37,19.79-4.26c0.96,1.6-0.15,2.56,1.65,4.38
		c-6.42,0.95-12.74,1.58-19.41,3.25c4.93,4.39,13.72-1.95,19.85-0.88c-1.13,7.21-16.86,1.92-21.65,7.6
		c5.75,2.06,13.67-1.78,20.23-1.89c0.65,2.8-0.69,4.99-1.39,7.4c-9.64,1.44-19.44,3.3-28.38,2.84c6.14-6.57,19.06-2.87,28.28-6.22
		c-6.68-3.09-15.73,0.25-23.74,0.85c1.66-5.47,5.07-10.41,3.51-16.83c6.2-0.91,12.92-3.27,19.02-3.91
		C685.11,120.24,673.07,116.76,669.43,121.56z M667.67,112.11c4.22,3.34,11.78-2.57,17.11-2.24c-1.51,4.19-11.3,3.19-16.26,5.28
		c-1.09-1.81-2.16-3.61-3.25-5.42c5.01-0.07,11.8-4.99,16.29-3.59C680.97,110.76,672.22,108.42,667.67,112.11z"/>
</g>
</svg>
