<?xml version="1.0" encoding="utf-8"?>
<!-- Generator: Adobe Illustrator 24.0.2, SVG Export Plug-In . SVG Version: 6.00 Build 0)  -->
<svg version="1.1" id="Layer_1" xmlns="http://www.w3.org/2000/svg" xmlns:xlink="http://www.w3.org/1999/xlink" x="0px" y="0px"
	 viewBox="0 0 1920 427.91" style="enable-background:new 0 0 1920 427.91;" xml:space="preserve">
<style type="text/css">
	.st0{clip-path:url(#SVGID_2_);fill:#FDD99E;}
	.st1{opacity:0.29;clip-path:url(#SVGID_8_);fill:#5C1F00;enable-background:new    ;}
	.st2{opacity:0.29;clip-path:url(#SVGID_10_);fill:#5C1F00;enable-background:new    ;}
	.st3{opacity:0.29;clip-path:url(#SVGID_12_);fill:#5C1F00;enable-background:new    ;}
	.st4{opacity:0.29;clip-path:url(#SVGID_14_);fill:#5C1F00;enable-background:new    ;}
	.st5{opacity:0.29;clip-path:url(#SVGID_16_);fill:#5C1F00;enable-background:new    ;}
	.st6{opacity:0.29;clip-path:url(#SVGID_18_);fill:#5C1F00;enable-background:new    ;}
	.st7{opacity:0.29;clip-path:url(#SVGID_20_);fill:#5C1F00;enable-background:new    ;}
	.st8{opacity:0.29;clip-path:url(#SVGID_22_);fill:#5C1F00;enable-background:new    ;}
	.st9{opacity:0.29;clip-path:url(#SVGID_24_);fill:#5C1F00;enable-background:new    ;}
	.st10{opacity:0.29;clip-path:url(#SVGID_26_);fill:#5C1F00;enable-background:new    ;}
	.st11{opacity:0.29;clip-path:url(#SVGID_30_);fill:#5C1F00;enable-background:new    ;}
	.st12{opacity:0.29;clip-path:url(#SVGID_32_);fill:#5C1F00;enable-background:new    ;}
	.st13{opacity:0.29;clip-path:url(#SVGID_34_);fill:#5C1F00;enable-background:new    ;}
	.st14{opacity:0.29;clip-path:url(#SVGID_36_);fill:#5C1F00;enable-background:new    ;}
	.st15{opacity:0.29;clip-path:url(#SVGID_38_);fill:#5C1F00;enable-background:new    ;}
	.st16{opacity:0.29;clip-path:url(#SVGID_40_);fill:#5C1F00;enable-background:new    ;}
	.st17{opacity:0.29;clip-path:url(#SVGID_42_);fill:#5C1F00;enable-background:new    ;}
	.st18{opacity:0.29;clip-path:url(#SVGID_44_);fill:#5C1F00;enable-background:new    ;}
	.st19{opacity:0.29;clip-path:url(#SVGID_46_);fill:#5C1F00;enable-background:new    ;}
	.st20{opacity:0.29;clip-path:url(#SVGID_48_);fill:#5C1F00;enable-background:new    ;}
	.st21{opacity:0.29;clip-path:url(#SVGID_50_);fill:#5C1F00;enable-background:new    ;}
	.st22{opacity:0.29;clip-path:url(#SVGID_52_);fill:#5C1F00;enable-background:new    ;}
	.st23{opacity:0.29;clip-path:url(#SVGID_54_);fill:#5C1F00;enable-background:new    ;}
	.st24{opacity:0.29;clip-path:url(#SVGID_56_);fill:#5C1F00;enable-background:new    ;}
	.st25{opacity:0.29;clip-path:url(#SVGID_58_);fill:#5C1F00;enable-background:new    ;}
	.st26{opacity:0.29;clip-path:url(#SVGID_60_);fill:#5C1F00;enable-background:new    ;}
	.st27{opacity:0.29;clip-path:url(#SVGID_62_);fill:#5C1F00;enable-background:new    ;}
	.st28{opacity:0.29;clip-path:url(#SVGID_64_);fill:#5C1F00;enable-background:new    ;}
</style>
<g>
	<g>
		<defs>
			<rect id="SVGID_1_" x="-0.35" y="-0.28" width="1920.69" height="1500.71"/>
		</defs>
		<clipPath id="SVGID_2_">
			<use xlink:href="#SVGID_1_"  style="overflow:visible;"/>
		</clipPath>
		<rect x="-0.69" y="-0.56" class="st0" width="1920.69" height="428.47"/>
	</g>
	<g>
		<defs>
			<rect id="SVGID_3_" x="-0.35" y="-0.28" width="1920.69" height="1500.71"/>
		</defs>
		<clipPath id="SVGID_4_">
			<use xlink:href="#SVGID_3_"  style="overflow:visible;"/>
		</clipPath>
	</g>
	<g>
		<defs>
			<rect id="SVGID_5_" x="-0.35" y="-0.28" width="1920.69" height="1500.71"/>
		</defs>
		<clipPath id="SVGID_6_">
			<use xlink:href="#SVGID_5_"  style="overflow:visible;"/>
		</clipPath>
	</g>
	<g>
		<defs>
			<rect id="SVGID_7_" x="-330.36" y="-684.28" width="1920.69" height="1500.71"/>
		</defs>
		<clipPath id="SVGID_8_">
			<use xlink:href="#SVGID_7_"  style="overflow:visible;"/>
		</clipPath>
		<path class="st1" d="M289.38,240.92c3.21,4.68,12.57,10.43,18,12.97c4.16,1.94,8.41,1.52,11.73,1.18
			c9.59-0.97,18.75-5.53,23.54-16.53c2.18-5.03,2.88-9.01,2.42-12.97c-1.05-9.12-8.26-21.85-19.86-27.05
			c-5.96-2.67-16.1-3.36-21.82,0.64c-1.02,0.72-2.18,2.2-3.52,3.33c-1.3,1.1-2.76,2.02-3.9,3.11
			C286.26,215.05,282.94,231.53,289.38,240.92z M319.35,252.23c-0.25,0.65-0.72,0.42-1.02,0.87c-3.63-0.92-5.43-4.83-8.19-6.98
			C312.9,245.83,315.18,251.79,319.35,252.23z M321.61,252.61c-2.55-2.26-6.22-4.26-8.41-6.62c1.03-1.73,2.56-1.35,3.81-2.16
			c1.82,2.65,6.2,4.68,8.56,7.21C324.38,252.12,323.06,252.6,321.61,252.61z M329.29,249.83c-0.67,0.62-1.47,0.71-2.2,1.15
			c-1.59-3.02-7.59-4.96-7.88-8.3C322.25,243.94,324.76,247.9,329.29,249.83z M330.68,249.18c-4.13-2.09-6.64-4.58-9.14-7.07
			c0.64-1.58,1.85-0.87,2.49-2.46c3.96,2.44,6.8,5.16,9.64,7.87C332.65,247.95,331.66,248.5,330.68,249.18z M335.45,244.61
			c0.83,0.42-0.62,1.39-0.75,2.04c-2.09-1.7-6.84-5.33-9.06-8.02C327.99,238.3,331.3,244.39,335.45,244.61z M341.35,235.76
			c-2.26-2.03-5.3-3.87-7.32-5.95c0.08,2.77,4.45,5.05,7.1,6.32c-0.22,2.43-2.19,5.28-3.93,8.07c-3.77-1.09-8.17-4.58-10.08-7.14
			c3.23-2.43,5.49,3.58,9.52,4.81c-0.79-2.69-4.82-4.61-7.25-6.9c1.53-2.65,3.6-5.41,4.28-7.85c2.2,2.26,5.2,4.31,8.64,6.26
			C341.38,234.31,341.88,234.91,341.35,235.76z M342.74,226.14c-1.17-0.04-4.44-2.21-4.27-3.61
			C340.24,224.28,342.15,224.1,342.74,226.14z M338.52,215.1c-0.89,0.58-2.37-1.26-3.49-1.64c-1.31,1.67,3.16,3.56,4.28,3.61
			c1.5,1.9,1.72,4.12,2.72,6.15c-2.25,0.27-3.47-3.12-5.66-2.96c-1.4,3.64,4.83,5.43,6.36,8.36c-2.72-0.17-4.77-3.17-7.27-4.43
			c-0.06,2.6,4.82,3.99,7.33,5.97c-0.19,0.77-0.74,1.62-0.38,2.26c-2.24-0.71-6-4.99-8.49-5.68c1.34-5.38,1.05-10.36-0.84-14.95
			C334.51,211.75,337.76,213.93,338.52,215.1z M337.07,211.73c-2.16-0.76-6.12-1.84-5.37-4.27
			C334.47,209.24,336.18,209.42,337.07,211.73z M328.02,203.72c-0.48-1.22,2.54,1.22,3.49,1.63
			C331.98,206.56,328.97,204.13,328.02,203.72z M305.94,200.71c5.69-2.55,12.16-3.2,19.6,2.99c14.24,11.84,5.03,35.46-12.1,39.44
			c-5.85-2.16-14.23-2.23-20.14-7.8c-1.94-1.82-2.11-5.09-4.41-6.67c0-3.69,0.33-7.68,2.13-11.65
			C294.42,209.5,302.21,205.02,305.94,200.71z"/>
	</g>
	<g>
		<defs>
			<rect id="SVGID_9_" x="-0.35" y="-0.28" width="1920.69" height="1500.71"/>
		</defs>
		<clipPath id="SVGID_10_">
			<use xlink:href="#SVGID_9_"  style="overflow:visible;"/>
		</clipPath>
		<path class="st2" d="M509.41,146.2c3.21,4.68,12.57,10.43,18,12.97c4.16,1.94,8.41,1.52,11.73,1.18
			c9.59-0.97,18.75-5.53,23.54-16.53c2.18-5.03,2.88-9.01,2.42-12.97c-1.05-9.12-8.26-21.85-19.86-27.05
			c-5.96-2.67-16.1-3.36-21.82,0.64c-1.02,0.72-2.18,2.2-3.52,3.33c-1.3,1.1-2.76,2.02-3.9,3.11
			C506.29,120.32,502.96,136.8,509.41,146.2z M539.38,157.5c-0.25,0.65-0.72,0.42-1.02,0.87c-3.63-0.92-5.43-4.83-8.19-6.98
			C532.93,151.1,535.21,157.07,539.38,157.5z M541.64,157.88c-2.55-2.26-6.22-4.26-8.41-6.62c1.03-1.73,2.56-1.35,3.81-2.16
			c1.82,2.65,6.2,4.68,8.56,7.21C544.4,157.4,543.08,157.88,541.64,157.88z M549.32,155.1c-0.67,0.62-1.47,0.71-2.2,1.15
			c-1.59-3.02-7.59-4.96-7.88-8.3C542.28,149.21,544.79,153.17,549.32,155.1z M550.71,154.45c-4.13-2.09-6.64-4.58-9.14-7.07
			c0.64-1.58,1.85-0.87,2.49-2.46c3.96,2.44,6.8,5.16,9.64,7.87C552.68,153.22,551.68,153.77,550.71,154.45z M555.48,149.89
			c0.83,0.42-0.62,1.39-0.75,2.04c-2.09-1.7-6.84-5.33-9.06-8.02C548.01,143.58,551.32,149.67,555.48,149.89z M561.38,141.03
			c-2.26-2.03-5.3-3.87-7.32-5.95c0.08,2.77,4.45,5.05,7.1,6.32c-0.22,2.43-2.19,5.28-3.93,8.07c-3.77-1.09-8.17-4.58-10.08-7.14
			c3.23-2.43,5.49,3.58,9.52,4.81c-0.79-2.69-4.82-4.61-7.25-6.9c1.53-2.65,3.6-5.41,4.28-7.85c2.2,2.26,5.2,4.31,8.64,6.26
			C561.41,139.58,561.91,140.18,561.38,141.03z M562.76,131.42c-1.17-0.04-4.44-2.21-4.27-3.61
			C560.27,129.56,562.17,129.37,562.76,131.42z M558.54,120.38c-0.89,0.58-2.37-1.26-3.49-1.64c-1.31,1.67,3.16,3.56,4.28,3.61
			c1.5,1.9,1.72,4.12,2.72,6.15c-2.25,0.27-3.47-3.12-5.66-2.96c-1.4,3.64,4.83,5.43,6.36,8.36c-2.72-0.17-4.77-3.17-7.27-4.43
			c-0.06,2.6,4.82,3.99,7.33,5.97c-0.19,0.77-0.74,1.62-0.38,2.26c-2.24-0.71-6-4.99-8.49-5.68c1.34-5.38,1.05-10.36-0.84-14.95
			C554.54,117.02,557.78,119.2,558.54,120.38z M557.1,117c-2.16-0.76-6.12-1.84-5.37-4.27C554.5,114.51,556.21,114.7,557.1,117z
			 M548.05,108.99c-0.48-1.22,2.54,1.22,3.49,1.63C552.01,111.83,548.99,109.41,548.05,108.99z M525.96,105.99
			c5.69-2.55,12.16-3.2,19.6,2.99c14.24,11.84,5.03,35.46-12.1,39.44c-5.85-2.16-14.23-2.23-20.14-7.8
			c-1.94-1.82-2.11-5.09-4.41-6.67c0-3.69,0.33-7.68,2.13-11.65C514.44,114.77,522.23,110.29,525.96,105.99z"/>
	</g>
	<g>
		<defs>
			<rect id="SVGID_11_" x="498.52" y="-108.96" width="1920.69" height="1500.71"/>
		</defs>
		<clipPath id="SVGID_12_">
			<use xlink:href="#SVGID_11_"  style="overflow:visible;"/>
		</clipPath>
		<path class="st3" d="M575.57,372.69c3.21,4.68,12.57,10.43,18,12.97c4.16,1.94,8.41,1.52,11.73,1.18
			c9.59-0.97,18.75-5.53,23.54-16.53c2.18-5.03,2.88-9.01,2.42-12.97c-1.05-9.12-8.26-21.85-19.86-27.05
			c-5.96-2.67-16.1-3.36-21.82,0.64c-1.02,0.72-2.18,2.2-3.52,3.33c-1.3,1.1-2.76,2.02-3.9,3.11
			C572.45,346.81,569.12,363.29,575.57,372.69z M605.54,383.99c-0.25,0.65-0.72,0.42-1.02,0.87c-3.63-0.92-5.43-4.83-8.19-6.98
			C599.09,377.59,601.37,383.55,605.54,383.99z M607.8,384.37c-2.55-2.26-6.22-4.26-8.41-6.62c1.03-1.73,2.56-1.35,3.81-2.16
			c1.82,2.65,6.2,4.68,8.56,7.21C610.56,383.88,609.24,384.36,607.8,384.37z M615.48,381.59c-0.67,0.62-1.47,0.71-2.2,1.15
			c-1.59-3.02-7.59-4.96-7.88-8.3C608.44,375.7,610.95,379.66,615.48,381.59z M616.87,380.94c-4.13-2.09-6.64-4.58-9.14-7.07
			c0.64-1.58,1.85-0.87,2.49-2.46c3.96,2.44,6.8,5.16,9.64,7.87C618.84,379.71,617.84,380.26,616.87,380.94z M621.64,376.38
			c0.83,0.42-0.62,1.39-0.75,2.04c-2.09-1.7-6.84-5.33-9.06-8.02C614.18,370.06,617.48,376.15,621.64,376.38z M627.54,367.52
			c-2.26-2.03-5.3-3.87-7.32-5.95c0.08,2.77,4.45,5.05,7.1,6.32c-0.22,2.43-2.19,5.28-3.93,8.07c-3.77-1.09-8.17-4.58-10.08-7.14
			c3.23-2.43,5.49,3.58,9.52,4.81c-0.79-2.69-4.82-4.61-7.25-6.9c1.53-2.65,3.6-5.41,4.28-7.85c2.2,2.26,5.2,4.31,8.64,6.26
			C627.57,366.07,628.07,366.67,627.54,367.52z M628.92,357.9c-1.17-0.04-4.44-2.21-4.27-3.61
			C626.43,356.04,628.33,355.86,628.92,357.9z M624.7,346.86c-0.89,0.58-2.37-1.26-3.49-1.64c-1.31,1.67,3.16,3.56,4.28,3.61
			c1.5,1.9,1.72,4.12,2.72,6.15c-2.25,0.27-3.47-3.12-5.66-2.96c-1.4,3.64,4.83,5.43,6.36,8.36c-2.72-0.17-4.77-3.17-7.27-4.43
			c-0.06,2.6,4.82,3.99,7.33,5.97c-0.19,0.77-0.74,1.62-0.38,2.26c-2.24-0.71-6-4.99-8.49-5.68c1.34-5.38,1.05-10.36-0.84-14.95
			C620.7,343.51,623.95,345.69,624.7,346.86z M623.26,343.49c-2.16-0.76-6.12-1.84-5.37-4.27
			C620.66,341,622.37,341.18,623.26,343.49z M614.21,335.48c-0.48-1.22,2.54,1.22,3.49,1.63
			C618.17,338.32,615.15,335.89,614.21,335.48z M592.12,332.47c5.69-2.55,12.16-3.2,19.6,2.99c14.24,11.84,5.03,35.46-12.1,39.44
			c-5.85-2.16-14.23-2.23-20.14-7.8c-1.94-1.82-2.11-5.09-4.41-6.67c0-3.69,0.33-7.68,2.13-11.65
			C580.6,341.26,588.39,336.78,592.12,332.47z"/>
	</g>
	<g>
		<defs>
			<rect id="SVGID_13_" x="-31.04" y="121.18" width="1920.69" height="1500.71"/>
		</defs>
		<clipPath id="SVGID_14_">
			<use xlink:href="#SVGID_13_"  style="overflow:visible;"/>
		</clipPath>
		<path class="st4" d="M757.46,364.95c3.21,4.68,12.57,10.43,18,12.97c4.16,1.94,8.41,1.52,11.73,1.18
			c9.59-0.97,18.75-5.53,23.54-16.53c2.18-5.03,2.88-9.01,2.42-12.97c-1.05-9.12-8.26-21.85-19.86-27.05
			c-5.96-2.67-16.1-3.36-21.82,0.64c-1.02,0.72-2.18,2.2-3.52,3.33c-1.3,1.1-2.76,2.02-3.9,3.11
			C754.34,339.08,751.01,355.56,757.46,364.95z M787.43,376.25c-0.25,0.65-0.72,0.42-1.02,0.87c-3.63-0.92-5.43-4.83-8.19-6.98
			C780.97,369.86,783.26,375.82,787.43,376.25z M789.69,376.64c-2.55-2.26-6.22-4.26-8.41-6.62c1.03-1.73,2.56-1.35,3.81-2.16
			c1.82,2.65,6.2,4.68,8.56,7.21C792.45,376.15,791.13,376.63,789.69,376.64z M797.36,373.85c-0.67,0.62-1.47,0.71-2.2,1.15
			c-1.59-3.02-7.59-4.96-7.88-8.3C790.32,367.97,792.83,371.93,797.36,373.85z M798.75,373.2c-4.13-2.09-6.64-4.58-9.14-7.07
			c0.64-1.58,1.85-0.87,2.49-2.46c3.96,2.44,6.8,5.16,9.64,7.87C800.73,371.97,799.73,372.53,798.75,373.2z M803.53,368.64
			c0.83,0.42-0.62,1.39-0.75,2.04c-2.09-1.7-6.84-5.33-9.06-8.02C796.06,362.33,799.37,368.42,803.53,368.64z M809.43,359.78
			c-2.26-2.03-5.3-3.87-7.32-5.95c0.08,2.77,4.45,5.05,7.1,6.32c-0.22,2.43-2.19,5.28-3.93,8.07c-3.77-1.09-8.17-4.58-10.08-7.14
			c3.23-2.43,5.49,3.58,9.52,4.81c-0.79-2.69-4.82-4.61-7.25-6.9c1.53-2.65,3.6-5.41,4.28-7.85c2.2,2.26,5.2,4.31,8.64,6.26
			C809.45,358.34,809.96,358.94,809.43,359.78z M810.81,350.17c-1.17-0.04-4.44-2.21-4.27-3.61
			C808.31,348.31,810.22,348.13,810.81,350.17z M806.59,339.13c-0.89,0.58-2.37-1.26-3.49-1.64c-1.31,1.67,3.16,3.56,4.28,3.61
			c1.5,1.9,1.72,4.12,2.72,6.15c-2.25,0.27-3.47-3.12-5.66-2.96c-1.4,3.64,4.83,5.43,6.36,8.36c-2.72-0.17-4.77-3.17-7.27-4.43
			c-0.06,2.6,4.82,3.99,7.33,5.97c-0.19,0.77-0.74,1.62-0.38,2.26c-2.24-0.71-6-4.99-8.49-5.68c1.34-5.38,1.05-10.36-0.84-14.95
			C802.58,335.78,805.83,337.96,806.59,339.13z M805.15,335.76c-2.16-0.76-6.12-1.84-5.37-4.27
			C802.54,333.27,804.25,333.45,805.15,335.76z M796.1,327.75c-0.48-1.22,2.54,1.22,3.49,1.63
			C800.06,330.59,797.04,328.16,796.1,327.75z M774.01,324.74c5.69-2.55,12.16-3.2,19.6,2.99c14.24,11.84,5.03,35.46-12.1,39.44
			c-5.85-2.16-14.23-2.23-20.14-7.8c-1.94-1.82-2.11-5.09-4.41-6.67c0-3.69,0.33-7.68,2.13-11.65
			C762.49,333.53,770.28,329.05,774.01,324.74z"/>
	</g>
	<g>
		<defs>
			<rect id="SVGID_15_" x="-1422.17" y="-574.83" width="1920.69" height="1500.71"/>
		</defs>
		<clipPath id="SVGID_16_">
			<use xlink:href="#SVGID_15_"  style="overflow:visible;"/>
		</clipPath>
		<path class="st5" d="M152.51,360.55c3.21,4.68,12.57,10.43,18,12.97c4.16,1.94,8.41,1.52,11.73,1.18
			c9.59-0.97,18.75-5.53,23.54-16.53c2.18-5.03,2.88-9.01,2.42-12.97c-1.05-9.12-8.26-21.85-19.86-27.05
			c-5.96-2.67-16.1-3.36-21.82,0.64c-1.02,0.72-2.18,2.2-3.52,3.33c-1.3,1.1-2.76,2.02-3.9,3.11
			C149.39,334.68,146.06,351.16,152.51,360.55z M182.48,371.85c-0.25,0.65-0.72,0.42-1.02,0.87c-3.63-0.92-5.43-4.83-8.19-6.98
			C176.03,365.46,178.31,371.42,182.48,371.85z M184.74,372.24c-2.55-2.26-6.22-4.26-8.41-6.62c1.03-1.73,2.56-1.35,3.81-2.16
			c1.82,2.65,6.2,4.68,8.56,7.21C187.5,371.75,186.18,372.23,184.74,372.24z M192.42,369.45c-0.67,0.62-1.47,0.71-2.2,1.15
			c-1.59-3.02-7.59-4.96-7.88-8.3C185.38,363.56,187.89,367.52,192.42,369.45z M193.81,368.8c-4.13-2.09-6.64-4.58-9.14-7.07
			c0.64-1.58,1.85-0.87,2.49-2.46c3.96,2.44,6.8,5.16,9.64,7.87C195.78,367.57,194.78,368.13,193.81,368.8z M198.58,364.24
			c0.83,0.42-0.62,1.39-0.75,2.04c-2.09-1.7-6.84-5.33-9.06-8.02C191.11,357.93,194.42,364.02,198.58,364.24z M204.48,355.38
			c-2.26-2.03-5.3-3.87-7.32-5.95c0.08,2.77,4.45,5.05,7.1,6.32c-0.22,2.43-2.19,5.28-3.93,8.07c-3.77-1.09-8.17-4.58-10.08-7.14
			c3.23-2.43,5.49,3.58,9.52,4.81c-0.79-2.69-4.82-4.61-7.25-6.9c1.53-2.65,3.6-5.41,4.28-7.85c2.2,2.26,5.2,4.31,8.64,6.26
			C204.51,353.93,205.01,354.54,204.48,355.38z M205.86,345.77c-1.17-0.04-4.44-2.21-4.27-3.61
			C203.37,343.91,205.27,343.73,205.86,345.77z M201.64,334.73c-0.89,0.58-2.37-1.26-3.49-1.64c-1.31,1.67,3.16,3.56,4.28,3.61
			c1.5,1.9,1.72,4.12,2.72,6.15c-2.25,0.27-3.47-3.12-5.66-2.96c-1.4,3.64,4.83,5.43,6.36,8.36c-2.72-0.17-4.77-3.17-7.27-4.43
			c-0.06,2.6,4.82,3.99,7.33,5.97c-0.19,0.77-0.74,1.62-0.38,2.26c-2.24-0.71-6-4.99-8.49-5.68c1.34-5.38,1.05-10.36-0.84-14.95
			C197.64,331.37,200.88,333.55,201.64,334.73z M200.2,331.36c-2.16-0.76-6.12-1.84-5.37-4.27
			C197.6,328.86,199.31,329.05,200.2,331.36z M191.15,323.34c-0.48-1.22,2.54,1.22,3.49,1.63
			C195.11,326.18,192.09,323.76,191.15,323.34z M169.06,320.34c5.69-2.55,12.16-3.2,19.6,2.99c14.24,11.84,5.03,35.46-12.1,39.44
			c-5.85-2.16-14.23-2.23-20.14-7.8c-1.94-1.82-2.11-5.09-4.41-6.67c0-3.69,0.33-7.68,2.13-11.65
			C157.54,329.13,165.33,324.64,169.06,320.34z"/>
	</g>
	<g>
		<defs>
			<rect id="SVGID_17_" x="-330.36" y="-841.31" width="1920.69" height="1500.71"/>
		</defs>
		<clipPath id="SVGID_18_">
			<use xlink:href="#SVGID_17_"  style="overflow:visible;"/>
		</clipPath>
		<path class="st6" d="M1275.21,332.4c3.21,4.68,12.57,10.43,18,12.97c4.16,1.94,8.41,1.52,11.73,1.18
			c9.59-0.97,18.75-5.53,23.54-16.53c2.18-5.03,2.88-9.01,2.42-12.97c-1.05-9.12-8.26-21.85-19.86-27.05
			c-5.96-2.67-16.1-3.36-21.82,0.64c-1.02,0.72-2.18,2.2-3.52,3.33c-1.3,1.1-2.76,2.02-3.9,3.11
			C1272.09,306.53,1268.76,323.01,1275.21,332.4z M1305.18,343.7c-0.25,0.65-0.72,0.42-1.02,0.87c-3.63-0.92-5.43-4.83-8.19-6.98
			C1298.72,337.31,1301.01,343.27,1305.18,343.7z M1307.44,344.09c-2.55-2.26-6.22-4.26-8.41-6.62c1.03-1.73,2.56-1.35,3.81-2.16
			c1.82,2.65,6.2,4.68,8.56,7.21C1310.2,343.6,1308.88,344.08,1307.44,344.09z M1315.11,341.3c-0.67,0.62-1.47,0.71-2.2,1.15
			c-1.59-3.02-7.59-4.96-7.88-8.3C1308.07,335.42,1310.59,339.38,1315.11,341.3z M1316.5,340.65c-4.13-2.09-6.64-4.58-9.14-7.07
			c0.64-1.58,1.85-0.87,2.49-2.46c3.96,2.44,6.8,5.16,9.64,7.87C1318.48,339.42,1317.48,339.98,1316.5,340.65z M1321.28,336.09
			c0.83,0.42-0.62,1.39-0.75,2.04c-2.09-1.7-6.84-5.33-9.06-8.02C1313.81,329.78,1317.12,335.87,1321.28,336.09z M1327.18,327.23
			c-2.26-2.03-5.3-3.87-7.32-5.95c0.08,2.77,4.45,5.05,7.1,6.32c-0.22,2.43-2.19,5.28-3.93,8.07c-3.77-1.09-8.17-4.58-10.08-7.14
			c3.23-2.43,5.49,3.58,9.52,4.81c-0.79-2.69-4.82-4.61-7.25-6.9c1.53-2.65,3.6-5.41,4.28-7.85c2.2,2.26,5.2,4.31,8.64,6.26
			C1327.2,325.79,1327.71,326.39,1327.18,327.23z M1328.56,317.62c-1.17-0.04-4.44-2.21-4.27-3.61
			C1326.06,315.76,1327.97,315.58,1328.56,317.62z M1324.34,306.58c-0.89,0.58-2.37-1.26-3.49-1.64c-1.31,1.67,3.16,3.56,4.28,3.61
			c1.5,1.9,1.72,4.12,2.72,6.15c-2.25,0.27-3.47-3.12-5.66-2.96c-1.4,3.64,4.83,5.43,6.36,8.36c-2.72-0.17-4.77-3.17-7.27-4.43
			c-0.06,2.6,4.82,3.99,7.33,5.97c-0.19,0.77-0.74,1.62-0.38,2.26c-2.24-0.71-6-4.99-8.49-5.68c1.34-5.38,1.05-10.36-0.84-14.95
			C1320.33,303.23,1323.58,305.41,1324.34,306.58z M1322.9,303.21c-2.16-0.76-6.12-1.84-5.37-4.27
			C1320.29,300.72,1322,300.9,1322.9,303.21z M1313.85,295.2c-0.48-1.22,2.54,1.22,3.49,1.63
			C1317.81,298.04,1314.79,295.61,1313.85,295.2z M1291.76,292.19c5.69-2.55,12.16-3.2,19.6,2.99c14.24,11.84,5.03,35.46-12.1,39.44
			c-5.85-2.16-14.23-2.23-20.14-7.8c-1.94-1.82-2.11-5.09-4.41-6.67c0-3.69,0.33-7.68,2.13-11.65
			C1280.24,300.98,1288.03,296.5,1291.76,292.19z"/>
	</g>
	<g>
		<defs>
			<rect id="SVGID_19_" x="-103.47" y="53.88" width="1920.69" height="1500.71"/>
		</defs>
		<clipPath id="SVGID_20_">
			<use xlink:href="#SVGID_19_"  style="overflow:visible;"/>
		</clipPath>
		<path class="st7" d="M1425.69,382.3c3.21,4.68,12.57,10.43,18,12.97c4.16,1.94,8.41,1.52,11.73,1.18
			c9.59-0.97,18.75-5.53,23.54-16.53c2.18-5.03,2.88-9.01,2.42-12.97c-1.05-9.12-8.26-21.85-19.86-27.05
			c-5.96-2.67-16.1-3.36-21.82,0.64c-1.02,0.72-2.18,2.2-3.52,3.33c-1.3,1.1-2.76,2.02-3.9,3.11
			C1422.57,356.43,1419.25,372.91,1425.69,382.3z M1455.66,393.61c-0.25,0.65-0.72,0.42-1.02,0.87c-3.63-0.92-5.43-4.83-8.19-6.98
			C1449.21,387.21,1451.49,393.17,1455.66,393.61z M1457.92,393.99c-2.55-2.26-6.22-4.26-8.41-6.62c1.03-1.73,2.56-1.35,3.81-2.16
			c1.82,2.65,6.2,4.68,8.56,7.21C1460.69,393.5,1459.36,393.98,1457.92,393.99z M1465.6,391.21c-0.67,0.62-1.47,0.71-2.2,1.15
			c-1.59-3.02-7.59-4.96-7.88-8.3C1458.56,385.32,1461.07,389.28,1465.6,391.21z M1466.99,390.56c-4.13-2.09-6.64-4.58-9.14-7.07
			c0.64-1.58,1.85-0.87,2.49-2.46c3.96,2.44,6.8,5.16,9.64,7.87C1468.96,389.33,1467.97,389.88,1466.99,390.56z M1471.76,385.99
			c0.83,0.42-0.62,1.39-0.75,2.04c-2.09-1.7-6.84-5.33-9.06-8.02C1464.3,379.68,1467.61,385.77,1471.76,385.99z M1477.66,377.14
			c-2.26-2.03-5.3-3.87-7.32-5.95c0.08,2.77,4.45,5.05,7.1,6.32c-0.22,2.43-2.19,5.28-3.93,8.07c-3.77-1.09-8.17-4.58-10.08-7.14
			c3.23-2.43,5.49,3.58,9.52,4.81c-0.79-2.69-4.82-4.61-7.25-6.9c1.53-2.65,3.6-5.41,4.28-7.85c2.2,2.26,5.2,4.31,8.64,6.26
			C1477.69,375.69,1478.19,376.29,1477.66,377.14z M1479.05,367.52c-1.17-0.04-4.44-2.21-4.27-3.61
			C1476.55,365.66,1478.46,365.48,1479.05,367.52z M1474.83,356.48c-0.89,0.58-2.37-1.26-3.49-1.64c-1.31,1.67,3.16,3.56,4.28,3.61
			c1.5,1.9,1.72,4.12,2.72,6.15c-2.25,0.27-3.47-3.12-5.66-2.96c-1.4,3.64,4.83,5.43,6.36,8.36c-2.72-0.17-4.77-3.17-7.27-4.43
			c-0.06,2.6,4.82,3.99,7.33,5.97c-0.19,0.77-0.74,1.62-0.38,2.26c-2.24-0.71-6-4.99-8.49-5.68c1.34-5.38,1.05-10.36-0.84-14.95
			C1470.82,353.13,1474.07,355.31,1474.83,356.48z M1473.38,353.11c-2.16-0.76-6.12-1.84-5.37-4.27
			C1470.78,350.62,1472.49,350.8,1473.38,353.11z M1464.33,345.1c-0.48-1.22,2.54,1.22,3.49,1.63
			C1468.29,347.94,1465.28,345.51,1464.33,345.1z M1442.25,342.09c5.69-2.55,12.16-3.2,19.6,2.99c14.24,11.84,5.03,35.46-12.1,39.44
			c-5.85-2.16-14.23-2.23-20.14-7.8c-1.94-1.82-2.11-5.09-4.41-6.67c0-3.69,0.33-7.68,2.13-11.65
			C1430.73,350.88,1438.52,346.4,1442.25,342.09z"/>
	</g>
	<g>
		<defs>
			<rect id="SVGID_21_" x="-1234.41" y="-1184.32" width="1920.69" height="1500.71"/>
		</defs>
		<clipPath id="SVGID_22_">
			<use xlink:href="#SVGID_21_"  style="overflow:visible;"/>
		</clipPath>
		<path class="st8" d="M87.81,110.29c4.77-3.08,10.78-12.28,13.47-17.63c2.06-4.1,1.75-8.37,1.51-11.69
			c-0.7-9.61-5.01-18.9-15.87-23.99c-4.97-2.32-8.92-3.13-12.9-2.78c-9.15,0.8-22.07,7.65-27.6,19.1c-2.84,5.88-3.8,16,0.04,21.83
			c0.69,1.04,2.14,2.24,3.23,3.61c1.06,1.33,1.94,2.82,3,3.98C61.86,112.69,78.24,116.48,87.81,110.29z M99.95,80.65
			c0.65,0.27,0.4,0.74,0.84,1.05c-1.02,3.61-4.98,5.29-7.21,7.99C93.37,86.92,99.4,84.81,99.95,80.65z M100.39,78.4
			c-2.33,2.49-4.43,6.1-6.85,8.23c-1.7-1.08-1.27-2.59-2.05-3.87c2.7-1.75,4.85-6.07,7.45-8.35
			C99.98,75.62,100.43,76.96,100.39,78.4z M97.82,70.65c0.6,0.69,0.67,1.49,1.09,2.23c-3.06,1.5-5.17,7.45-8.52,7.65
			C91.74,77.52,95.77,75.12,97.82,70.65z M97.21,69.24c-2.2,4.07-4.76,6.51-7.32,8.93c-1.57-0.69-0.82-1.87-2.39-2.56
			c2.55-3.89,5.34-6.66,8.14-9.42C96.04,67.24,96.56,68.25,97.21,69.24z M92.79,64.34c0.44-0.82,1.37,0.66,2.02,0.8
			c-1.76,2.04-5.52,6.69-8.27,8.83C86.27,71.63,92.45,68.49,92.79,64.34z M84.09,58.2c-2.09,2.2-4.01,5.19-6.15,7.15
			c2.77-0.01,5.17-4.3,6.51-6.92c2.42,0.29,5.21,2.34,7.96,4.15c-1.2,3.73-4.81,8.04-7.42,9.88c-2.34-3.3,3.73-5.39,5.07-9.38
			c-2.71,0.71-4.74,4.69-7.1,7.05c-2.61-1.61-5.31-3.75-7.73-4.5c2.32-2.13,4.45-5.08,6.5-8.46C82.65,58.13,83.26,57.65,84.09,58.2z
			 M74.52,56.55c-0.08,1.17-2.33,4.38-3.72,4.17C72.6,58.99,72.47,57.08,74.52,56.55z M63.37,60.46c0.56,0.91-1.32,2.34-1.74,3.45
			c1.63,1.35,3.64-3.06,3.73-4.18c1.94-1.45,4.17-1.6,6.22-2.55c0.21,2.26-3.22,3.38-3.12,5.58c3.6,1.5,5.56-4.68,8.53-6.12
			c-0.25,2.72-3.3,4.68-4.63,7.14c2.6,0.13,4.12-4.7,6.17-7.16c0.76,0.21,1.6,0.78,2.25,0.45c-0.77,2.22-5.16,5.86-5.92,8.33
			c-5.34-1.49-10.33-1.33-14.97,0.42C59.91,64.37,62.17,61.18,63.37,60.46z M59.96,61.81c-0.82,2.14-2.01,6.06-4.42,5.25
			C57.4,64.34,57.63,62.64,59.96,61.81z M51.7,70.63c-1.23,0.45,1.29-2.51,1.73-3.44C54.65,66.75,52.14,69.7,51.7,70.63z
			 M48.08,92.63c-2.39-5.76-2.86-12.25,3.54-19.51c12.23-13.91,35.58-4.04,39.09,13.2c-2.32,5.78-2.63,14.16-8.36,19.92
			c-1.87,1.88-5.14,1.97-6.79,4.22c-3.69-0.1-7.67-0.55-11.59-2.46C56.54,104.39,52.28,96.47,48.08,92.63z"/>
	</g>
	<g>
		<defs>
			<rect id="SVGID_23_" x="-0.35" y="-0.28" width="1920.69" height="1500.71"/>
		</defs>
		<clipPath id="SVGID_24_">
			<use xlink:href="#SVGID_23_"  style="overflow:visible;"/>
		</clipPath>
		<path class="st9" d="M1670.62,118.4c4.77-3.08,10.78-12.28,13.47-17.63c2.06-4.1,1.75-8.37,1.51-11.69
			c-0.7-9.61-5.01-18.9-15.87-23.99c-4.97-2.32-8.92-3.13-12.9-2.78c-9.15,0.8-22.07,7.65-27.6,19.1c-2.84,5.88-3.8,16,0.04,21.83
			c0.69,1.04,2.14,2.24,3.23,3.61c1.06,1.33,1.94,2.82,3,3.98C1644.66,120.8,1661.05,124.59,1670.62,118.4z M1682.75,88.76
			c0.65,0.27,0.4,0.74,0.84,1.05c-1.02,3.61-4.98,5.29-7.21,7.99C1676.17,95.03,1682.2,92.92,1682.75,88.76z M1683.19,86.51
			c-2.33,2.49-4.43,6.1-6.85,8.23c-1.7-1.08-1.27-2.59-2.05-3.87c2.7-1.75,4.85-6.07,7.45-8.35
			C1682.78,83.73,1683.23,85.07,1683.19,86.51z M1680.62,78.76c0.6,0.69,0.67,1.49,1.09,2.23c-3.06,1.5-5.17,7.45-8.52,7.65
			C1674.54,85.63,1678.57,83.23,1680.62,78.76z M1680.01,77.35c-2.2,4.07-4.76,6.51-7.32,8.93c-1.57-0.69-0.82-1.87-2.39-2.56
			c2.55-3.89,5.34-6.66,8.14-9.42C1678.84,75.35,1679.37,76.36,1680.01,77.35z M1675.59,72.45c0.44-0.82,1.37,0.66,2.02,0.8
			c-1.76,2.04-5.52,6.69-8.27,8.83C1669.07,79.74,1675.25,76.6,1675.59,72.45z M1666.9,66.31c-2.09,2.2-4.01,5.19-6.15,7.15
			c2.77-0.01,5.17-4.3,6.51-6.92c2.42,0.29,5.21,2.34,7.96,4.15c-1.2,3.73-4.81,8.04-7.42,9.88c-2.34-3.3,3.73-5.39,5.07-9.38
			c-2.71,0.71-4.74,4.69-7.1,7.05c-2.61-1.61-5.31-3.75-7.73-4.5c2.32-2.13,4.45-5.08,6.5-8.46
			C1665.45,66.24,1666.06,65.76,1666.9,66.31z M1657.33,64.66c-0.08,1.17-2.33,4.38-3.72,4.17
			C1655.4,67.1,1655.27,65.19,1657.33,64.66z M1646.17,68.57c0.56,0.91-1.32,2.34-1.74,3.45c1.63,1.35,3.65-3.06,3.73-4.18
			c1.94-1.45,4.17-1.6,6.22-2.55c0.21,2.26-3.22,3.38-3.12,5.58c3.6,1.5,5.56-4.68,8.53-6.12c-0.25,2.72-3.3,4.68-4.63,7.14
			c2.6,0.13,4.12-4.7,6.17-7.16c0.76,0.21,1.6,0.78,2.25,0.45c-0.77,2.22-5.16,5.86-5.92,8.33c-5.34-1.49-10.33-1.33-14.97,0.42
			C1642.71,72.48,1644.98,69.3,1646.17,68.57z M1642.76,69.92c-0.82,2.14-2.01,6.06-4.42,5.25
			C1640.2,72.45,1640.43,70.75,1642.76,69.92z M1634.5,78.74c-1.23,0.45,1.29-2.51,1.73-3.44
			C1637.45,74.86,1634.94,77.81,1634.5,78.74z M1630.88,100.74c-2.39-5.76-2.86-12.25,3.54-19.51c12.23-13.91,35.58-4.04,39.09,13.2
			c-2.32,5.78-2.63,14.16-8.36,19.92c-1.87,1.88-5.14,1.97-6.79,4.22c-3.69-0.1-7.67-0.55-11.59-2.46
			C1639.34,112.5,1635.08,104.59,1630.88,100.74z"/>
	</g>
	<g>
		<defs>
			<rect id="SVGID_25_" x="491.64" y="-878.08" width="1920.69" height="1500.71"/>
		</defs>
		<clipPath id="SVGID_26_">
			<use xlink:href="#SVGID_25_"  style="overflow:visible;"/>
		</clipPath>
		<path class="st10" d="M1631.02,385.57c1.78-14.48-22.46-28.88-32.93-20.35c-8.84,7.2-6.32,21.51-2.02,26.57
			c7.2,8.46,19.66,9.45,27.46,7.68C1626.96,393.74,1630.45,390.22,1631.02,385.57z M1619.38,369.91c-1.23,1.42-2.64,2.05-3.85,3.59
			c-0.76-0.66-1.19-1.38-1.68-2.1C1615.34,369.81,1617.85,366.6,1619.38,369.91z M1615.69,367.01c0.08,1.4-2.17,4.18-3.62,3.23
			C1613.14,368.5,1614.28,367.12,1615.69,367.01z M1611.79,365.99c0.61,0.47,1.03,0.06,1.65,0.57c-1.08,1.16-2.1,2.62-3.38,2.87
			C1608.92,368.37,1611.27,367.79,1611.79,365.99z M1610.12,365.42c0.57,1.37-1.57,2.14-2.08,3.21
			C1607.58,367.77,1609.42,365.61,1610.12,365.42z M1607.29,365.11c1.51,0.64-0.95,2.93-1.49,3.08
			C1605.16,367.4,1606.95,366.1,1607.29,365.11z M1604.94,365.61c-0.9,2.03-2.11,2.62-3.39,2.87
			C1602,367.66,1602.83,364.25,1604.94,365.61z M1608.98,396.11c-3.59-2.19-7.97-3.1-10.58-6.35c-0.73-0.91-0.75-2.46-1.46-4
			c-1.47-3.11-4.29-8.78-1.45-12.6c4.24-5.73,16.4-2.1,20.24,5.53C1618.69,384.57,1616.89,391.59,1608.98,396.11z M1626.58,379.13
			c-1.1-0.32-1.36,0.74-2.08,2.21c-5.64,3.11-4.68-1.06,2.24-2.11c0.23-0.35,0.46-0.71,0.69-1.06c-4.91-2.06-4.62,1.97-6.58,3.33
			c-1.55-1.41-1.68-3.38-2.85-4.88c1.62-0.6,2.83-2.46,4.28-3.82c-0.94-1.48-3.55,1.88-4.99,2.85c-1.91-1.99,2.7-3.59,3.79-5.14
			c4.82,4.6,8.07,9.54,7.25,15.35C1626.94,383.79,1628.21,381.15,1626.58,379.13z M1619.37,397.28c1.04-0.4,2.06-0.92,3.05-1.57
			C1622.78,397.02,1620.48,398.06,1619.37,397.28z"/>
	</g>
	<g>
		<defs>
			<rect id="SVGID_27_" x="-0.35" y="-0.28" width="1920.69" height="1500.71"/>
		</defs>
		<clipPath id="SVGID_28_">
			<use xlink:href="#SVGID_27_"  style="overflow:visible;"/>
		</clipPath>
	</g>
	<g>
		<defs>
			<rect id="SVGID_29_" x="-0.35" y="-0.28" width="1920.69" height="1500.71"/>
		</defs>
		<clipPath id="SVGID_30_">
			<use xlink:href="#SVGID_29_"  style="overflow:visible;"/>
		</clipPath>
		<path class="st11" d="M1264.3,184.35c3.21,4.68,12.57,10.43,18,12.97c4.16,1.94,8.41,1.52,11.73,1.18
			c9.59-0.97,18.75-5.53,23.54-16.53c2.18-5.03,2.88-9.01,2.42-12.97c-1.05-9.12-8.26-21.85-19.86-27.05
			c-5.96-2.67-16.1-3.36-21.82,0.64c-1.02,0.72-2.18,2.2-3.52,3.33c-1.3,1.1-2.76,2.02-3.9,3.11
			C1261.18,158.47,1257.85,174.95,1264.3,184.35z M1294.27,195.65c-0.25,0.65-0.72,0.42-1.02,0.87c-3.63-0.92-5.43-4.83-8.19-6.98
			C1287.82,189.25,1290.1,195.22,1294.27,195.65z M1296.53,196.04c-2.55-2.26-6.22-4.26-8.41-6.62c1.03-1.73,2.56-1.35,3.81-2.16
			c1.82,2.65,6.2,4.68,8.56,7.21C1299.29,195.55,1297.97,196.03,1296.53,196.04z M1304.21,193.25c-0.67,0.62-1.47,0.71-2.2,1.15
			c-1.59-3.02-7.59-4.96-7.88-8.3C1297.17,187.36,1299.68,191.32,1304.21,193.25z M1305.6,192.6c-4.13-2.09-6.64-4.58-9.14-7.07
			c0.64-1.58,1.85-0.87,2.49-2.46c3.96,2.44,6.8,5.16,9.64,7.87C1307.57,191.37,1306.57,191.93,1305.6,192.6z M1310.37,188.04
			c0.83,0.42-0.62,1.39-0.75,2.04c-2.09-1.7-6.84-5.33-9.06-8.02C1302.9,181.73,1306.21,187.82,1310.37,188.04z M1316.27,179.18
			c-2.26-2.03-5.3-3.87-7.32-5.95c0.08,2.77,4.45,5.05,7.1,6.32c-0.22,2.43-2.19,5.28-3.93,8.07c-3.77-1.09-8.17-4.58-10.08-7.14
			c3.23-2.43,5.49,3.58,9.52,4.81c-0.79-2.69-4.82-4.61-7.25-6.9c1.53-2.65,3.6-5.41,4.28-7.85c2.2,2.26,5.2,4.31,8.64,6.26
			C1316.3,177.73,1316.8,178.33,1316.27,179.18z M1317.65,169.57c-1.17-0.04-4.44-2.21-4.27-3.61
			C1315.16,167.71,1317.06,167.53,1317.65,169.57z M1313.43,158.53c-0.89,0.58-2.37-1.26-3.49-1.64c-1.31,1.67,3.16,3.56,4.28,3.61
			c1.5,1.9,1.72,4.12,2.72,6.15c-2.25,0.27-3.47-3.12-5.66-2.96c-1.4,3.64,4.83,5.43,6.36,8.36c-2.72-0.17-4.77-3.17-7.27-4.43
			c-0.06,2.6,4.82,3.99,7.33,5.97c-0.19,0.77-0.74,1.62-0.38,2.26c-2.24-0.71-6-4.99-8.49-5.68c1.34-5.38,1.05-10.36-0.84-14.95
			C1309.43,155.17,1312.67,157.35,1313.43,158.53z M1311.99,155.16c-2.16-0.76-6.12-1.84-5.37-4.27
			C1309.39,152.66,1311.1,152.85,1311.99,155.16z M1302.94,147.14c-0.48-1.22,2.54,1.22,3.49,1.63
			C1306.9,149.98,1303.88,147.56,1302.94,147.14z M1280.85,144.14c5.69-2.55,12.16-3.2,19.6,2.99c14.24,11.84,5.03,35.46-12.1,39.44
			c-5.85-2.16-14.23-2.23-20.14-7.8c-1.94-1.82-2.11-5.09-4.41-6.67c0-3.69,0.33-7.68,2.13-11.65
			C1269.33,152.93,1277.12,148.44,1280.85,144.14z"/>
	</g>
	<g>
		<defs>
			<rect id="SVGID_31_" x="-480.81" y="-400.69" width="1920.69" height="1500.71"/>
		</defs>
		<clipPath id="SVGID_32_">
			<use xlink:href="#SVGID_31_"  style="overflow:visible;"/>
		</clipPath>
		<path class="st12" d="M940.38,142.11c4.77-3.08,10.78-12.28,13.47-17.63c2.06-4.1,1.75-8.37,1.51-11.69
			c-0.7-9.61-5.01-18.9-15.87-23.99c-4.97-2.32-8.92-3.13-12.9-2.78c-9.15,0.8-22.07,7.65-27.6,19.1c-2.84,5.88-3.8,16,0.04,21.83
			c0.69,1.04,2.14,2.24,3.23,3.61c1.06,1.33,1.94,2.82,3,3.98C914.43,144.51,930.81,148.29,940.38,142.11z M952.51,112.47
			c0.65,0.27,0.4,0.74,0.84,1.05c-1.02,3.61-4.98,5.29-7.21,7.99C945.94,118.74,951.96,116.62,952.51,112.47z M952.96,110.22
			c-2.33,2.49-4.43,6.1-6.85,8.23c-1.7-1.08-1.27-2.59-2.05-3.87c2.7-1.75,4.85-6.07,7.45-8.35
			C952.55,107.44,952.99,108.78,952.96,110.22z M950.39,102.47c0.6,0.69,0.67,1.49,1.09,2.23c-3.06,1.5-5.17,7.45-8.52,7.65
			C944.31,109.34,948.33,106.94,950.39,102.47z M949.78,101.06c-2.2,4.07-4.76,6.51-7.32,8.93c-1.57-0.69-0.82-1.87-2.39-2.56
			c2.55-3.89,5.34-6.66,8.14-9.42C948.6,99.05,949.13,100.06,949.78,101.06z M945.35,96.16c0.44-0.82,1.37,0.66,2.02,0.8
			c-1.76,2.04-5.52,6.69-8.27,8.83C938.83,103.45,945.01,100.31,945.35,96.16z M936.66,90.02c-2.09,2.2-4.01,5.19-6.15,7.15
			c2.77-0.01,5.17-4.3,6.51-6.92c2.42,0.29,5.21,2.34,7.96,4.15c-1.2,3.73-4.81,8.04-7.42,9.88c-2.34-3.3,3.73-5.39,5.07-9.38
			c-2.71,0.71-4.74,4.69-7.1,7.05c-2.61-1.61-5.31-3.75-7.73-4.5c2.32-2.13,4.45-5.08,6.5-8.46
			C935.21,89.95,935.83,89.46,936.66,90.02z M927.09,88.37c-0.08,1.17-2.33,4.38-3.72,4.17C925.16,90.81,925.03,88.9,927.09,88.37z
			 M915.93,92.28c0.56,0.91-1.32,2.34-1.74,3.45c1.63,1.35,3.64-3.06,3.73-4.18c1.94-1.45,4.17-1.6,6.22-2.55
			c0.21,2.26-3.22,3.38-3.12,5.58c3.6,1.5,5.56-4.68,8.53-6.12c-0.25,2.72-3.3,4.68-4.63,7.14c2.6,0.13,4.12-4.7,6.17-7.16
			c0.76,0.21,1.6,0.78,2.25,0.45c-0.77,2.22-5.16,5.86-5.92,8.33c-5.34-1.49-10.33-1.33-14.97,0.42
			C912.47,96.19,914.74,93,915.93,92.28z M912.52,93.63c-0.82,2.14-2.01,6.06-4.42,5.25C909.96,96.16,910.19,94.46,912.52,93.63z
			 M904.26,102.45c-1.23,0.45,1.29-2.51,1.73-3.44C907.21,98.57,904.7,101.52,904.26,102.45z M900.64,124.44
			c-2.39-5.76-2.86-12.25,3.54-19.51c12.23-13.91,35.58-4.04,39.09,13.2c-2.32,5.78-2.63,14.16-8.36,19.92
			c-1.87,1.88-5.14,1.97-6.79,4.22c-3.69-0.1-7.67-0.55-11.59-2.46C909.11,136.2,904.84,128.29,900.64,124.44z"/>
	</g>
	<g>
		<defs>
			<rect id="SVGID_33_" x="-0.34" y="-1031.5" width="1920.69" height="1500.71"/>
		</defs>
		<clipPath id="SVGID_34_">
			<use xlink:href="#SVGID_33_"  style="overflow:visible;"/>
		</clipPath>
		<path class="st13" d="M1823.39,369.42c4.77-3.08,10.78-12.28,13.47-17.63c2.06-4.1,1.75-8.37,1.51-11.69
			c-0.7-9.61-5.01-18.9-15.87-23.99c-4.97-2.32-8.92-3.13-12.9-2.78c-9.15,0.8-22.07,7.65-27.6,19.1c-2.84,5.88-3.8,16,0.04,21.83
			c0.69,1.04,2.14,2.24,3.23,3.61c1.06,1.33,1.94,2.82,3,3.98C1797.44,371.82,1813.82,375.6,1823.39,369.42z M1835.53,339.78
			c0.65,0.27,0.4,0.74,0.84,1.05c-1.02,3.61-4.98,5.29-7.21,7.99C1828.94,346.05,1834.97,343.93,1835.53,339.78z M1835.96,337.53
			c-2.33,2.49-4.43,6.1-6.85,8.23c-1.7-1.08-1.27-2.59-2.05-3.87c2.7-1.75,4.85-6.07,7.45-8.35
			C1835.56,334.75,1835.99,336.09,1835.96,337.53z M1833.4,329.78c0.6,0.69,0.67,1.49,1.09,2.23c-3.06,1.5-5.17,7.45-8.52,7.65
			C1827.32,336.65,1831.34,334.25,1833.4,329.78z M1832.79,328.37c-2.2,4.07-4.76,6.51-7.32,8.93c-1.57-0.69-0.82-1.87-2.39-2.56
			c2.55-3.89,5.34-6.66,8.14-9.42C1831.61,326.36,1832.14,327.37,1832.79,328.37z M1828.35,323.47c0.44-0.82,1.37,0.66,2.02,0.8
			c-1.76,2.04-5.52,6.69-8.27,8.83C1821.84,330.76,1828.03,327.62,1828.35,323.47z M1819.67,317.33c-2.09,2.2-4.01,5.19-6.15,7.15
			c2.77-0.01,5.17-4.3,6.51-6.92c2.42,0.29,5.21,2.34,7.96,4.15c-1.2,3.73-4.81,8.04-7.42,9.88c-2.34-3.3,3.73-5.39,5.07-9.38
			c-2.71,0.71-4.74,4.69-7.1,7.05c-2.61-1.61-5.31-3.75-7.73-4.5c2.32-2.13,4.45-5.08,6.5-8.46
			C1818.22,317.26,1818.83,316.77,1819.67,317.33z M1810.09,315.68c-0.08,1.17-2.33,4.38-3.72,4.17
			C1808.18,318.12,1808.04,316.21,1810.09,315.68z M1798.94,319.59c0.56,0.91-1.32,2.34-1.74,3.45c1.63,1.35,3.64-3.06,3.73-4.18
			c1.94-1.45,4.17-1.6,6.22-2.55c0.21,2.26-3.22,3.38-3.12,5.58c3.6,1.5,5.56-4.68,8.53-6.12c-0.25,2.72-3.3,4.68-4.63,7.14
			c2.6,0.13,4.12-4.7,6.17-7.16c0.76,0.21,1.6,0.78,2.25,0.45c-0.77,2.22-5.16,5.86-5.92,8.33c-5.34-1.49-10.33-1.33-14.97,0.42
			C1795.47,323.5,1797.74,320.31,1798.94,319.59z M1795.54,320.94c-0.82,2.14-2.01,6.06-4.42,5.25
			C1792.96,323.47,1793.2,321.77,1795.54,320.94z M1787.28,329.76c-1.23,0.45,1.29-2.51,1.73-3.44
			C1790.22,325.88,1787.71,328.83,1787.28,329.76z M1783.66,351.75c-2.39-5.76-2.86-12.25,3.54-19.51
			c12.23-13.91,35.58-4.04,39.09,13.2c-2.32,5.78-2.63,14.16-8.36,19.92c-1.87,1.88-5.14,1.97-6.79,4.22
			c-3.69-0.1-7.67-0.55-11.59-2.46C1792.11,363.51,1787.85,355.6,1783.66,351.75z"/>
	</g>
	<g>
		<defs>
			<rect id="SVGID_35_" x="-0.35" y="-0.28" width="1920.69" height="1500.71"/>
		</defs>
		<clipPath id="SVGID_36_">
			<use xlink:href="#SVGID_35_"  style="overflow:visible;"/>
		</clipPath>
		<path class="st14" d="M1837.55,211.66c1.78-14.48-22.46-28.88-32.93-20.35c-8.84,7.2-6.32,21.51-2.02,26.57
			c7.2,8.46,19.66,9.45,27.46,7.68C1833.5,219.82,1836.99,216.3,1837.55,211.66z M1825.92,195.99c-1.23,1.42-2.64,2.05-3.85,3.59
			c-0.76-0.66-1.19-1.38-1.68-2.1C1821.87,195.89,1824.39,192.68,1825.92,195.99z M1822.22,193.09c0.08,1.4-2.17,4.18-3.62,3.23
			C1819.67,194.58,1820.81,193.2,1822.22,193.09z M1818.32,192.07c0.61,0.47,1.03,0.06,1.65,0.57c-1.08,1.16-2.1,2.62-3.38,2.87
			C1815.45,194.46,1817.8,193.87,1818.32,192.07z M1816.66,191.51c0.57,1.37-1.57,2.14-2.08,3.21
			C1814.12,193.86,1815.96,191.7,1816.66,191.51z M1813.82,191.19c1.51,0.64-0.95,2.93-1.49,3.08
			C1811.7,193.48,1813.49,192.18,1813.82,191.19z M1811.47,191.69c-0.9,2.03-2.11,2.62-3.39,2.87
			C1808.53,193.74,1809.36,190.33,1811.47,191.69z M1815.51,222.19c-3.59-2.19-7.97-3.1-10.58-6.35c-0.73-0.91-0.75-2.46-1.46-4
			c-1.47-3.11-4.29-8.78-1.45-12.6c4.24-5.73,16.4-2.1,20.24,5.53C1825.22,210.66,1823.42,217.67,1815.51,222.19z M1833.11,205.22
			c-1.1-0.32-1.36,0.74-2.08,2.21c-5.64,3.11-4.68-1.06,2.24-2.11c0.23-0.35,0.46-0.71,0.69-1.06c-4.91-2.06-4.62,1.97-6.58,3.33
			c-1.55-1.41-1.68-3.38-2.85-4.88c1.62-0.6,2.83-2.46,4.28-3.82c-0.94-1.48-3.55,1.88-4.99,2.85c-1.91-1.99,2.7-3.59,3.79-5.14
			c4.82,4.6,8.07,9.54,7.25,15.35C1833.47,209.87,1834.75,207.23,1833.11,205.22z M1825.91,223.36c1.04-0.4,2.06-0.92,3.05-1.57
			C1829.31,223.11,1827.01,224.14,1825.91,223.36z"/>
	</g>
	<g>
		<defs>
			<rect id="SVGID_37_" x="608.64" y="-736.15" width="1920.69" height="1500.71"/>
		</defs>
		<clipPath id="SVGID_38_">
			<use xlink:href="#SVGID_37_"  style="overflow:visible;"/>
		</clipPath>
		<path class="st15" d="M753.91,235.93c4.08,3.94,14.4,7.71,20.23,9.11c4.46,1.07,8.54-0.2,11.73-1.19
			c9.2-2.87,17.27-9.17,19.76-20.91c1.13-5.36,1.02-9.4-0.22-13.19c-2.86-8.73-12.46-19.76-24.87-22.54
			c-6.37-1.43-16.44-0.07-21.25,4.99c-0.86,0.91-1.7,2.59-2.78,3.97c-1.06,1.34-2.31,2.53-3.2,3.82
			C745.68,211.2,745.71,228.01,753.91,235.93z M785.53,241.01c-0.12,0.69-0.62,0.56-0.83,1.06c-3.74-0.18-6.29-3.65-9.42-5.21
			C777.93,236.03,781.36,241.42,785.53,241.01z M787.82,240.94c-2.95-1.71-6.95-2.93-9.57-4.81c0.66-1.9,2.24-1.83,3.3-2.88
			c2.32,2.23,7.02,3.35,9.83,5.36C790.43,239.9,789.23,240.64,787.82,240.94z M794.79,236.67c-0.53,0.74-1.3,0.99-1.93,1.57
			c-2.16-2.64-8.43-3.35-9.38-6.56C786.71,232.31,789.96,235.69,794.79,236.67z M796.02,235.76c-4.47-1.22-7.42-3.16-10.36-5.1
			c0.31-1.68,1.64-1.22,1.95-2.91c4.37,1.6,7.7,3.69,11.02,5.78C797.71,234.16,796.84,234.9,796.02,235.76z M799.78,230.33
			c0.9,0.25-0.33,1.49-0.32,2.15c-2.39-1.25-7.77-3.85-10.48-6.04C791.21,225.64,795.67,230.95,799.78,230.33z M803.79,220.47
			c-2.62-1.53-5.96-2.73-8.36-4.37c0.64,2.7,5.37,4.06,8.22,4.77c0.27,2.42-1.09,5.61-2.23,8.69c-3.91-0.32-8.92-2.86-11.31-4.98
			c2.68-3.02,6.09,2.41,10.29,2.8c-1.31-2.48-5.65-3.55-8.48-5.32c0.97-2.9,2.45-6.02,2.63-8.55c2.6,1.77,5.95,3.18,9.71,4.41
			C803.53,219.05,804.14,219.54,803.79,220.47z M803.23,210.78c-1.16,0.19-4.79-1.28-4.91-2.68
			C800.41,209.46,802.24,208.9,803.23,210.78z M796.88,200.81c-0.76,0.75-2.58-0.76-3.75-0.91c-0.95,1.9,3.81,2.85,4.92,2.68
			c1.85,1.56,2.51,3.69,3.9,5.48c-2.15,0.72-4.02-2.36-6.14-1.77c-0.65,3.85,5.82,4.35,7.9,6.92c-2.7,0.37-5.3-2.15-8.01-2.89
			c0.46,2.56,5.52,2.95,8.37,4.38c-0.04,0.79-0.4,1.73,0.08,2.29c-2.34-0.25-6.88-3.69-9.46-3.87c0.24-5.54-1.05-10.36-3.81-14.48
			C792.29,198.32,795.91,199.81,796.88,200.81z M794.8,197.79c-2.27-0.32-6.36-0.58-6.11-3.11
			C791.75,195.87,793.46,195.71,794.8,197.79z M784.33,191.75c-0.71-1.09,2.73,0.68,3.74,0.9
			C788.78,193.74,785.34,191.97,784.33,191.75z M762.09,193.22c5.06-3.63,11.28-5.57,19.81-0.99c16.32,8.76,12.02,33.74-3.97,41.06
			c-6.16-0.95-14.39,0.66-21.3-3.62c-2.26-1.39-3.09-4.56-5.65-5.65c-0.74-3.61-1.21-7.59-0.24-11.85
			C752.56,204.13,759.29,198.18,762.09,193.22z"/>
	</g>
	<g>
		<defs>
			<rect id="SVGID_39_" x="259.9" y="-841.31" width="1920.69" height="1500.71"/>
		</defs>
		<clipPath id="SVGID_40_">
			<use xlink:href="#SVGID_39_"  style="overflow:visible;"/>
		</clipPath>
		<path class="st16" d="M723.51,87.38c1.78-14.48-22.46-28.88-32.93-20.35c-8.84,7.2-6.32,21.51-2.02,26.57
			c7.2,8.46,19.66,9.45,27.46,7.68C719.45,95.54,722.95,92.03,723.51,87.38z M711.88,71.71c-1.23,1.42-2.64,2.05-3.85,3.59
			c-0.76-0.66-1.19-1.38-1.68-2.1C707.83,71.61,710.35,68.4,711.88,71.71z M708.18,68.81c0.08,1.4-2.17,4.18-3.62,3.23
			C705.63,70.3,706.77,68.92,708.18,68.81z M704.28,67.8c0.61,0.47,1.03,0.06,1.65,0.57c-1.08,1.16-2.1,2.62-3.38,2.87
			C701.41,70.18,703.76,69.59,704.28,67.8z M702.62,67.23c0.57,1.37-1.57,2.14-2.08,3.21C700.07,69.58,701.91,67.42,702.62,67.23z
			 M699.78,66.91c1.51,0.64-0.95,2.93-1.49,3.08C697.66,69.21,699.45,67.9,699.78,66.91z M697.43,67.41
			c-0.9,2.03-2.11,2.62-3.39,2.87C694.49,69.47,695.32,66.06,697.43,67.41z M701.47,97.91c-3.59-2.19-7.97-3.1-10.58-6.35
			c-0.73-0.91-0.75-2.46-1.46-4c-1.47-3.11-4.29-8.78-1.45-12.6c4.24-5.73,16.4-2.1,20.24,5.53
			C711.18,86.38,709.38,93.4,701.47,97.91z M719.07,80.94c-1.1-0.32-1.36,0.74-2.08,2.21c-5.64,3.11-4.68-1.06,2.24-2.11
			c0.23-0.35,0.46-0.71,0.69-1.06c-4.91-2.06-4.62,1.97-6.58,3.33c-1.55-1.41-1.68-3.38-2.85-4.88c1.62-0.6,2.83-2.46,4.28-3.82
			c-0.94-1.48-3.55,1.88-4.99,2.85c-1.91-1.99,2.7-3.59,3.79-5.14c4.82,4.6,8.07,9.54,7.25,15.35
			C719.43,85.6,720.71,82.95,719.07,80.94z M711.86,99.08c1.04-0.4,2.06-0.92,3.05-1.57C715.27,98.83,712.97,99.86,711.86,99.08z"/>
	</g>
	<g>
		<defs>
			<rect id="SVGID_41_" x="-133.36" y="-750.35" width="1920.69" height="1500.71"/>
		</defs>
		<clipPath id="SVGID_42_">
			<use xlink:href="#SVGID_41_"  style="overflow:visible;"/>
		</clipPath>
		<path class="st17" d="M1708.46,269.19c1.78-14.48-22.46-28.88-32.93-20.35c-8.84,7.2-6.32,21.51-2.02,26.57
			c7.2,8.46,19.66,9.45,27.46,7.68C1704.41,277.35,1707.9,273.84,1708.46,269.19z M1696.83,253.52c-1.23,1.42-2.64,2.05-3.85,3.59
			c-0.76-0.66-1.19-1.38-1.68-2.1C1692.78,253.42,1695.3,250.21,1696.83,253.52z M1693.13,250.62c0.08,1.4-2.17,4.18-3.62,3.23
			C1690.58,252.12,1691.72,250.73,1693.13,250.62z M1689.23,249.61c0.61,0.47,1.03,0.06,1.65,0.57c-1.08,1.16-2.1,2.62-3.38,2.87
			C1686.36,251.99,1688.71,251.4,1689.23,249.61z M1687.57,249.04c0.57,1.37-1.57,2.14-2.08,3.21
			C1685.03,251.39,1686.87,249.23,1687.57,249.04z M1684.73,248.72c1.51,0.64-0.95,2.93-1.49,3.08
			C1682.61,251.02,1684.4,249.72,1684.73,248.72z M1682.38,249.22c-0.9,2.03-2.11,2.62-3.39,2.87
			C1679.44,251.28,1680.27,247.87,1682.38,249.22z M1686.42,279.72c-3.59-2.19-7.97-3.1-10.58-6.35c-0.73-0.91-0.75-2.46-1.46-4
			c-1.47-3.11-4.29-8.78-1.45-12.6c4.24-5.73,16.4-2.1,20.24,5.53C1696.13,268.19,1694.33,275.21,1686.42,279.72z M1704.02,262.75
			c-1.1-0.32-1.36,0.74-2.08,2.21c-5.64,3.11-4.68-1.06,2.24-2.11c0.23-0.35,0.46-0.71,0.69-1.06c-4.91-2.06-4.62,1.97-6.58,3.33
			c-1.55-1.41-1.68-3.38-2.85-4.88c1.62-0.6,2.83-2.46,4.28-3.82c-0.94-1.48-3.55,1.88-4.99,2.85c-1.91-1.99,2.7-3.59,3.79-5.14
			c4.82,4.6,8.07,9.54,7.25,15.35C1704.38,267.41,1705.66,264.76,1704.02,262.75z M1696.82,280.89c1.04-0.4,2.06-0.92,3.05-1.57
			C1700.23,280.64,1697.92,281.67,1696.82,280.89z"/>
	</g>
	<g>
		<defs>
			<rect id="SVGID_43_" x="-31.04" y="-39.74" width="1920.69" height="1500.71"/>
		</defs>
		<clipPath id="SVGID_44_">
			<use xlink:href="#SVGID_43_"  style="overflow:visible;"/>
		</clipPath>
		<path class="st18" d="M1133.72,378.31c1.78-14.48-22.46-28.88-32.93-20.35c-8.84,7.2-6.32,21.51-2.02,26.57
			c7.2,8.46,19.66,9.45,27.46,7.68C1129.66,386.48,1133.16,382.96,1133.72,378.31z M1122.08,362.64c-1.23,1.42-2.64,2.05-3.85,3.59
			c-0.76-0.66-1.19-1.38-1.68-2.1C1118.04,362.54,1120.55,359.33,1122.08,362.64z M1118.39,359.75c0.08,1.4-2.17,4.18-3.62,3.23
			C1115.84,361.24,1116.98,359.86,1118.39,359.75z M1114.49,358.73c0.61,0.47,1.03,0.06,1.65,0.57c-1.08,1.16-2.1,2.62-3.38,2.87
			C1111.62,361.11,1113.97,360.53,1114.49,358.73z M1112.83,358.16c0.57,1.37-1.57,2.14-2.08,3.21
			C1110.28,360.51,1112.12,358.35,1112.83,358.16z M1109.99,357.85c1.51,0.64-0.95,2.93-1.49,3.08
			C1107.87,360.14,1109.66,358.84,1109.99,357.85z M1107.64,358.35c-0.9,2.03-2.11,2.62-3.39,2.87
			C1104.7,360.4,1105.53,356.99,1107.64,358.35z M1111.68,388.85c-3.59-2.19-7.97-3.1-10.58-6.35c-0.73-0.91-0.75-2.46-1.46-4
			c-1.47-3.11-4.29-8.78-1.45-12.6c4.24-5.73,16.4-2.1,20.24,5.53C1121.39,377.31,1119.59,384.33,1111.68,388.85z M1129.28,371.87
			c-1.1-0.32-1.36,0.74-2.08,2.21c-5.64,3.11-4.68-1.06,2.24-2.11c0.23-0.35,0.46-0.71,0.69-1.06c-4.91-2.06-4.62,1.97-6.58,3.33
			c-1.55-1.41-1.68-3.38-2.85-4.88c1.62-0.6,2.83-2.46,4.28-3.82c-0.94-1.48-3.55,1.88-4.99,2.85c-1.91-1.99,2.7-3.59,3.79-5.14
			c4.82,4.6,8.07,9.54,7.25,15.35C1129.64,376.53,1130.91,373.88,1129.28,371.87z M1122.07,390.02c1.04-0.4,2.06-0.92,3.05-1.57
			C1125.48,389.76,1123.18,390.79,1122.07,390.02z"/>
	</g>
	<g>
		<defs>
			<rect id="SVGID_45_" x="943.84" y="-718.22" width="1920.69" height="1500.71"/>
		</defs>
		<clipPath id="SVGID_46_">
			<use xlink:href="#SVGID_45_"  style="overflow:visible;"/>
		</clipPath>
		<path class="st19" d="M1853.3,55.18c1.78-14.48-22.46-28.88-32.93-20.35c-8.84,7.2-6.32,21.51-2.02,26.57
			c7.2,8.46,19.66,9.45,27.46,7.68C1849.24,63.34,1852.73,59.82,1853.3,55.18z M1841.66,39.51c-1.23,1.42-2.64,2.05-3.85,3.59
			c-0.76-0.66-1.19-1.38-1.68-2.1C1837.62,39.41,1840.13,36.2,1841.66,39.51z M1837.97,36.61c0.08,1.4-2.17,4.18-3.62,3.23
			C1835.41,38.1,1836.55,36.72,1837.97,36.61z M1834.07,35.59c0.61,0.47,1.03,0.06,1.65,0.57c-1.08,1.16-2.1,2.62-3.38,2.87
			C1831.2,37.97,1833.55,37.39,1834.07,35.59z M1832.4,35.02c0.57,1.37-1.57,2.14-2.08,3.21
			C1829.86,37.37,1831.7,35.21,1832.4,35.02z M1829.57,34.71c1.51,0.64-0.95,2.93-1.49,3.08C1827.44,37,1829.23,35.7,1829.57,34.71z
			 M1827.22,35.21c-0.9,2.03-2.11,2.62-3.39,2.87C1824.27,37.26,1825.11,33.85,1827.22,35.21z M1831.26,65.71
			c-3.59-2.19-7.97-3.1-10.58-6.35c-0.73-0.91-0.75-2.46-1.46-4c-1.47-3.11-4.29-8.78-1.45-12.6c4.24-5.73,16.4-2.1,20.24,5.53
			C1840.96,54.18,1839.17,61.19,1831.26,65.71z M1848.86,48.73c-1.1-0.32-1.36,0.74-2.08,2.21c-5.64,3.11-4.68-1.06,2.24-2.11
			c0.23-0.35,0.46-0.71,0.69-1.06c-4.91-2.06-4.62,1.97-6.58,3.33c-1.55-1.41-1.68-3.38-2.85-4.88c1.62-0.6,2.83-2.46,4.28-3.82
			c-0.94-1.48-3.55,1.88-4.99,2.85c-1.91-1.99,2.7-3.59,3.79-5.14c4.82,4.6,8.07,9.54,7.25,15.35
			C1849.21,53.39,1850.49,50.75,1848.86,48.73z M1841.65,66.88c1.04-0.4,2.06-0.92,3.05-1.57
			C1845.06,66.62,1842.76,67.66,1841.65,66.88z"/>
	</g>
	<g>
		<defs>
			<rect id="SVGID_47_" x="479.53" y="-1220.02" width="1920.69" height="1500.71"/>
		</defs>
		<clipPath id="SVGID_48_">
			<use xlink:href="#SVGID_47_"  style="overflow:visible;"/>
		</clipPath>
		<path class="st20" d="M1219.87,73.95c1.78-14.48-22.46-28.88-32.93-20.35c-8.84,7.2-6.32,21.51-2.02,26.57
			c7.2,8.46,19.66,9.45,27.46,7.68C1215.82,82.12,1219.31,78.6,1219.87,73.95z M1208.24,58.29c-1.23,1.42-2.64,2.05-3.85,3.59
			c-0.76-0.66-1.19-1.38-1.68-2.1C1204.19,58.19,1206.71,54.98,1208.24,58.29z M1204.54,55.39c0.08,1.4-2.17,4.18-3.62,3.23
			C1201.99,56.88,1203.13,55.5,1204.54,55.39z M1200.64,54.37c0.61,0.47,1.03,0.06,1.65,0.57c-1.08,1.16-2.1,2.62-3.38,2.87
			C1197.77,56.75,1200.12,56.17,1200.64,54.37z M1198.98,53.8c0.57,1.37-1.57,2.14-2.08,3.21
			C1196.44,56.15,1198.28,53.99,1198.98,53.8z M1196.14,53.49c1.51,0.64-0.95,2.93-1.49,3.08
			C1194.02,55.78,1195.81,54.48,1196.14,53.49z M1193.79,53.99c-0.9,2.03-2.11,2.62-3.39,2.87
			C1190.85,56.04,1191.68,52.63,1193.79,53.99z M1197.83,84.49c-3.59-2.19-7.97-3.1-10.58-6.35c-0.73-0.91-0.75-2.46-1.46-4
			c-1.47-3.11-4.29-8.78-1.45-12.6c4.24-5.73,16.4-2.1,20.24,5.53C1207.54,72.95,1205.74,79.97,1197.83,84.49z M1215.43,67.51
			c-1.1-0.32-1.36,0.74-2.08,2.21c-5.64,3.11-4.68-1.06,2.24-2.11c0.23-0.35,0.46-0.71,0.69-1.06c-4.91-2.06-4.62,1.97-6.58,3.33
			c-1.55-1.41-1.68-3.38-2.85-4.88c1.62-0.6,2.83-2.46,4.28-3.82c-0.94-1.48-3.55,1.88-4.99,2.85c-1.91-1.99,2.7-3.59,3.79-5.14
			c4.82,4.6,8.07,9.54,7.25,15.35C1215.79,72.17,1217.07,69.53,1215.43,67.51z M1208.23,85.66c1.04-0.4,2.06-0.92,3.05-1.57
			C1211.63,85.4,1209.33,86.44,1208.23,85.66z"/>
	</g>
	<g>
		<defs>
			<rect id="SVGID_49_" x="62.46" y="32.13" width="1920.69" height="1500.71"/>
		</defs>
		<clipPath id="SVGID_50_">
			<use xlink:href="#SVGID_49_"  style="overflow:visible;"/>
		</clipPath>
		<path class="st21" d="M382.28,387.96c3.21,4.68,12.57,10.43,18,12.97c4.16,1.94,8.41,1.52,11.73,1.18
			c9.59-0.97,18.75-5.53,23.54-16.53c2.18-5.03,2.88-9.01,2.42-12.97c-1.05-9.12-8.26-21.85-19.86-27.05
			c-5.96-2.67-16.1-3.36-21.82,0.64c-1.02,0.72-2.18,2.2-3.52,3.33c-1.3,1.1-2.76,2.02-3.9,3.11
			C379.16,362.09,375.83,378.57,382.28,387.96z M412.25,399.26c-0.25,0.65-0.72,0.42-1.02,0.87c-3.63-0.92-5.43-4.83-8.19-6.98
			C405.8,392.87,408.08,398.83,412.25,399.26z M414.51,399.65c-2.55-2.26-6.22-4.26-8.41-6.62c1.03-1.73,2.56-1.35,3.81-2.16
			c1.82,2.65,6.2,4.68,8.56,7.21C417.27,399.16,415.95,399.64,414.51,399.65z M422.18,396.86c-0.67,0.62-1.47,0.71-2.2,1.15
			c-1.59-3.02-7.59-4.96-7.88-8.3C415.15,390.98,417.66,394.93,422.18,396.86z M423.58,396.21c-4.13-2.09-6.64-4.58-9.14-7.07
			c0.64-1.58,1.85-0.87,2.49-2.46c3.96,2.44,6.8,5.16,9.64,7.87C425.55,394.98,424.55,395.54,423.58,396.21z M428.35,391.65
			c0.83,0.42-0.62,1.39-0.75,2.04c-2.09-1.7-6.84-5.33-9.06-8.02C420.88,385.34,424.19,391.43,428.35,391.65z M434.25,382.79
			c-2.26-2.03-5.3-3.87-7.32-5.95c0.08,2.77,4.45,5.05,7.1,6.32c-0.22,2.43-2.19,5.28-3.93,8.07c-3.77-1.09-8.17-4.58-10.08-7.14
			c3.23-2.43,5.49,3.58,9.52,4.81c-0.79-2.69-4.82-4.61-7.25-6.9c1.53-2.65,3.6-5.41,4.28-7.85c2.2,2.26,5.2,4.31,8.64,6.26
			C434.27,381.35,434.78,381.95,434.25,382.79z M435.63,373.18c-1.17-0.04-4.44-2.21-4.27-3.61
			C433.13,371.32,435.04,371.14,435.63,373.18z M431.41,362.14c-0.89,0.58-2.37-1.26-3.49-1.64c-1.31,1.67,3.16,3.56,4.28,3.61
			c1.5,1.9,1.72,4.12,2.72,6.15c-2.25,0.27-3.47-3.12-5.66-2.96c-1.4,3.64,4.83,5.43,6.36,8.36c-2.72-0.17-4.77-3.17-7.27-4.43
			c-0.06,2.6,4.82,3.99,7.33,5.97c-0.19,0.77-0.74,1.62-0.38,2.26c-2.24-0.71-6-4.99-8.49-5.68c1.34-5.38,1.05-10.36-0.84-14.95
			C427.4,358.79,430.65,360.96,431.41,362.14z M429.97,358.77c-2.16-0.76-6.12-1.84-5.37-4.27
			C427.37,356.27,429.07,356.46,429.97,358.77z M420.92,350.75c-0.48-1.22,2.54,1.22,3.49,1.63
			C424.88,353.6,421.86,351.17,420.92,350.75z M398.83,347.75c5.69-2.55,12.16-3.2,19.6,2.99c14.24,11.84,5.03,35.46-12.1,39.44
			c-5.85-2.16-14.23-2.23-20.14-7.8c-1.94-1.82-2.11-5.09-4.41-6.67c0-3.69,0.33-7.68,2.13-11.65
			C387.31,356.54,395.1,352.05,398.83,347.75z"/>
	</g>
	<g>
		<defs>
			<rect id="SVGID_51_" x="-0.35" y="-0.28" width="1920.69" height="1500.71"/>
		</defs>
		<clipPath id="SVGID_52_">
			<use xlink:href="#SVGID_51_"  style="overflow:visible;"/>
		</clipPath>
		<path class="st22" d="M317.61,92.37c4.77-3.08,10.78-12.28,13.47-17.63c2.06-4.1,1.75-8.37,1.51-11.69
			c-0.7-9.61-5.01-18.9-15.87-23.99c-4.97-2.32-8.92-3.13-12.9-2.78c-9.15,0.8-22.07,7.65-27.6,19.1c-2.84,5.88-3.8,16,0.04,21.83
			c0.69,1.04,2.14,2.24,3.23,3.61c1.06,1.33,1.94,2.82,3,3.98C291.65,94.77,308.03,98.55,317.61,92.37z M329.74,62.73
			c0.65,0.27,0.4,0.74,0.84,1.05c-1.02,3.61-4.98,5.29-7.21,7.99C323.16,69,329.19,66.88,329.74,62.73z M330.18,60.48
			c-2.33,2.49-4.43,6.1-6.85,8.23c-1.7-1.08-1.27-2.59-2.05-3.87c2.7-1.75,4.85-6.07,7.45-8.35
			C329.77,57.7,330.22,59.04,330.18,60.48z M327.61,52.73c0.6,0.69,0.67,1.49,1.09,2.23c-3.06,1.5-5.17,7.45-8.52,7.65
			C321.53,59.6,325.56,57.2,327.61,52.73z M327,51.32c-2.2,4.07-4.76,6.51-7.32,8.93c-1.57-0.69-0.82-1.87-2.39-2.56
			c2.55-3.89,5.34-6.66,8.14-9.42C325.83,49.31,326.35,50.33,327,51.32z M322.58,46.42c0.44-0.82,1.37,0.66,2.02,0.8
			c-1.76,2.04-5.51,6.69-8.27,8.83C316.06,53.71,322.24,50.57,322.58,46.42z M313.88,40.28c-2.09,2.2-4.01,5.19-6.15,7.15
			c2.77-0.01,5.17-4.3,6.51-6.92c2.42,0.29,5.21,2.34,7.96,4.15c-1.2,3.73-4.81,8.04-7.42,9.88c-2.34-3.3,3.73-5.39,5.07-9.38
			c-2.71,0.71-4.74,4.69-7.1,7.05c-2.61-1.61-5.31-3.75-7.73-4.5c2.32-2.13,4.45-5.08,6.5-8.46
			C312.44,40.21,313.05,39.73,313.88,40.28z M304.31,38.63c-0.08,1.17-2.33,4.38-3.72,4.17C302.39,41.07,302.26,39.16,304.31,38.63z
			 M293.16,42.54c0.56,0.91-1.32,2.34-1.74,3.45c1.63,1.35,3.64-3.06,3.73-4.18c1.94-1.45,4.17-1.6,6.22-2.55
			c0.21,2.26-3.22,3.38-3.12,5.58c3.6,1.5,5.56-4.68,8.53-6.12c-0.25,2.72-3.3,4.68-4.63,7.14c2.6,0.13,4.12-4.7,6.17-7.16
			c0.76,0.21,1.6,0.78,2.25,0.45c-0.77,2.22-5.16,5.86-5.92,8.33c-5.34-1.49-10.33-1.33-14.97,0.42
			C289.7,46.45,291.96,43.26,293.16,42.54z M289.75,43.89c-0.82,2.14-2.01,6.06-4.42,5.25C287.19,46.42,287.42,44.72,289.75,43.89z
			 M281.49,52.71c-1.23,0.45,1.29-2.51,1.73-3.44C284.44,48.83,281.93,51.78,281.49,52.71z M277.87,74.71
			c-2.39-5.76-2.86-12.25,3.54-19.51c12.23-13.91,35.58-4.04,39.09,13.2c-2.32,5.78-2.63,14.16-8.36,19.92
			c-1.87,1.88-5.14,1.97-6.79,4.22c-3.69-0.1-7.67-0.55-11.59-2.46C286.33,86.46,282.07,78.55,277.87,74.71z"/>
	</g>
	<g>
		<defs>
			<rect id="SVGID_53_" x="-0.35" y="-696.47" width="1920.69" height="1500.71"/>
		</defs>
		<clipPath id="SVGID_54_">
			<use xlink:href="#SVGID_53_"  style="overflow:visible;"/>
		</clipPath>
		<path class="st23" d="M1457.43,50.9c3.21,4.68,12.57,10.43,18,12.97c4.16,1.94,8.41,1.52,11.73,1.18
			c9.59-0.97,18.75-5.53,23.54-16.53c2.18-5.03,2.88-9.01,2.42-12.97c-1.05-9.12-8.26-21.85-19.86-27.05
			c-5.96-2.67-16.1-3.36-21.82,0.64c-1.02,0.72-2.18,2.2-3.52,3.33c-1.3,1.1-2.76,2.02-3.9,3.11
			C1454.31,25.02,1450.98,41.5,1457.43,50.9z M1487.4,62.2c-0.25,0.65-0.72,0.42-1.02,0.87c-3.63-0.92-5.43-4.83-8.19-6.98
			C1480.95,55.8,1483.23,61.77,1487.4,62.2z M1489.66,62.58c-2.55-2.26-6.22-4.26-8.41-6.62c1.03-1.73,2.56-1.35,3.81-2.16
			c1.82,2.65,6.2,4.68,8.56,7.21C1492.43,62.1,1491.1,62.58,1489.66,62.58z M1497.34,59.8c-0.67,0.62-1.47,0.71-2.2,1.15
			c-1.59-3.02-7.59-4.96-7.88-8.3C1490.3,53.91,1492.81,57.87,1497.34,59.8z M1498.73,59.15c-4.13-2.09-6.64-4.58-9.14-7.07
			c0.64-1.58,1.85-0.87,2.49-2.46c3.96,2.44,6.8,5.16,9.64,7.87C1500.7,57.92,1499.7,58.48,1498.73,59.15z M1503.5,54.59
			c0.83,0.42-0.62,1.39-0.75,2.04c-2.09-1.7-6.84-5.33-9.06-8.02C1496.04,48.28,1499.34,54.37,1503.5,54.59z M1509.4,45.73
			c-2.26-2.03-5.3-3.87-7.32-5.95c0.08,2.77,4.45,5.05,7.1,6.32c-0.22,2.43-2.19,5.28-3.93,8.07c-3.77-1.09-8.17-4.58-10.08-7.14
			c3.23-2.43,5.49,3.58,9.52,4.81c-0.79-2.69-4.82-4.61-7.25-6.9c1.53-2.65,3.6-5.41,4.28-7.85c2.2,2.26,5.2,4.31,8.64,6.26
			C1509.43,44.28,1509.93,44.88,1509.4,45.73z M1510.78,36.12c-1.17-0.04-4.44-2.21-4.27-3.61
			C1508.29,34.26,1510.2,34.08,1510.78,36.12z M1506.56,25.08c-0.89,0.58-2.37-1.26-3.49-1.64c-1.31,1.67,3.16,3.56,4.28,3.61
			c1.5,1.9,1.72,4.12,2.72,6.15c-2.25,0.27-3.47-3.12-5.66-2.96c-1.4,3.64,4.83,5.43,6.36,8.36c-2.72-0.17-4.77-3.17-7.27-4.43
			c-0.06,2.6,4.82,3.99,7.33,5.97c-0.19,0.77-0.74,1.62-0.38,2.26c-2.24-0.71-6-4.99-8.49-5.68c1.34-5.38,1.05-10.36-0.84-14.95
			C1502.56,21.72,1505.81,23.9,1506.56,25.08z M1505.12,21.71c-2.16-0.76-6.12-1.84-5.37-4.27
			C1502.52,19.21,1504.23,19.4,1505.12,21.71z M1496.07,13.69c-0.48-1.22,2.54,1.22,3.49,1.63
			C1500.03,16.53,1497.02,14.11,1496.07,13.69z M1473.98,10.69c5.69-2.55,12.16-3.2,19.6,2.99c14.24,11.84,5.03,35.46-12.1,39.44
			c-5.85-2.16-14.23-2.23-20.14-7.8c-1.94-1.82-2.11-5.09-4.41-6.67c0-3.69,0.33-7.68,2.13-11.65
			C1462.46,19.48,1470.26,14.99,1473.98,10.69z"/>
	</g>
	<g>
		<defs>
			<rect id="SVGID_55_" x="247.75" y="-736.15" width="1920.69" height="1500.71"/>
		</defs>
		<clipPath id="SVGID_56_">
			<use xlink:href="#SVGID_55_"  style="overflow:visible;"/>
		</clipPath>
		<path class="st24" d="M1535.39,210.13c1.78-14.48-22.46-28.88-32.93-20.35c-8.84,7.2-6.32,21.51-2.02,26.57
			c7.2,8.46,19.66,9.45,27.46,7.68C1531.33,218.29,1534.82,214.78,1535.39,210.13z M1523.75,194.46c-1.23,1.42-2.64,2.05-3.85,3.59
			c-0.76-0.66-1.19-1.38-1.68-2.1C1519.7,194.36,1522.22,191.15,1523.75,194.46z M1520.06,191.56c0.08,1.4-2.17,4.18-3.62,3.23
			C1517.5,193.05,1518.64,191.67,1520.06,191.56z M1516.15,190.54c0.61,0.47,1.03,0.06,1.65,0.57c-1.08,1.16-2.1,2.62-3.38,2.87
			C1513.29,192.93,1515.64,192.34,1516.15,190.54z M1514.49,189.98c0.57,1.37-1.57,2.14-2.08,3.21
			C1511.95,192.33,1513.79,190.17,1514.49,189.98z M1511.65,189.66c1.51,0.64-0.95,2.93-1.49,3.08
			C1509.53,191.96,1511.32,190.65,1511.65,189.66z M1509.3,190.16c-0.9,2.03-2.11,2.62-3.39,2.87
			C1506.36,192.22,1507.2,188.81,1509.3,190.16z M1513.34,220.66c-3.59-2.19-7.97-3.1-10.58-6.35c-0.73-0.91-0.75-2.46-1.46-4
			c-1.47-3.11-4.29-8.78-1.45-12.6c4.24-5.73,16.4-2.1,20.24,5.53C1523.05,209.13,1521.26,216.15,1513.34,220.66z M1530.95,203.69
			c-1.1-0.32-1.36,0.74-2.08,2.21c-5.64,3.11-4.68-1.06,2.24-2.11c0.23-0.35,0.46-0.71,0.69-1.06c-4.91-2.06-4.62,1.97-6.58,3.33
			c-1.55-1.41-1.68-3.38-2.85-4.88c1.62-0.6,2.83-2.46,4.28-3.82c-0.94-1.48-3.55,1.88-4.99,2.85c-1.91-1.99,2.7-3.59,3.79-5.14
			c4.82,4.6,8.07,9.54,7.25,15.35C1531.3,208.35,1532.58,205.7,1530.95,203.69z M1523.74,221.83c1.04-0.4,2.06-0.92,3.05-1.57
			C1527.15,221.58,1524.84,222.61,1523.74,221.83z"/>
	</g>
	<g>
		<defs>
			<rect id="SVGID_57_" x="94.95" y="-676.94" width="1920.69" height="1500.71"/>
		</defs>
		<clipPath id="SVGID_58_">
			<use xlink:href="#SVGID_57_"  style="overflow:visible;"/>
		</clipPath>
		<path class="st25" d="M1092.79,267.67c3.21,4.68,12.57,10.43,18,12.97c4.16,1.94,8.41,1.52,11.73,1.18
			c9.59-0.97,18.75-5.53,23.54-16.53c2.18-5.03,2.88-9.01,2.42-12.97c-1.05-9.12-8.26-21.85-19.86-27.05
			c-5.96-2.67-16.1-3.36-21.82,0.64c-1.02,0.72-2.18,2.2-3.52,3.33c-1.3,1.1-2.76,2.02-3.9,3.11
			C1089.67,241.8,1086.34,258.28,1092.79,267.67z M1122.76,278.97c-0.25,0.65-0.72,0.42-1.02,0.87c-3.63-0.92-5.43-4.83-8.19-6.98
			C1116.31,272.58,1118.59,278.54,1122.76,278.97z M1125.02,279.36c-2.55-2.26-6.22-4.26-8.41-6.62c1.03-1.73,2.56-1.35,3.81-2.16
			c1.82,2.65,6.2,4.68,8.56,7.21C1127.78,278.87,1126.46,279.35,1125.02,279.36z M1132.7,276.57c-0.67,0.62-1.47,0.71-2.2,1.15
			c-1.59-3.02-7.59-4.96-7.88-8.3C1125.66,270.69,1128.17,274.64,1132.7,276.57z M1134.09,275.92c-4.13-2.09-6.64-4.58-9.14-7.07
			c0.64-1.58,1.85-0.87,2.49-2.46c3.96,2.44,6.8,5.16,9.64,7.87C1136.06,274.69,1135.06,275.25,1134.09,275.92z M1138.86,271.36
			c0.83,0.42-0.62,1.39-0.75,2.04c-2.09-1.7-6.84-5.33-9.06-8.02C1131.4,265.05,1134.7,271.14,1138.86,271.36z M1144.76,262.5
			c-2.26-2.03-5.3-3.87-7.32-5.95c0.08,2.77,4.45,5.05,7.1,6.32c-0.22,2.43-2.19,5.28-3.93,8.07c-3.77-1.09-8.17-4.58-10.08-7.14
			c3.23-2.43,5.49,3.58,9.52,4.81c-0.79-2.69-4.82-4.61-7.25-6.9c1.53-2.65,3.6-5.41,4.28-7.85c2.2,2.26,5.2,4.31,8.64,6.26
			C1144.79,261.06,1145.29,261.66,1144.76,262.5z M1146.14,252.89c-1.17-0.04-4.44-2.21-4.27-3.61
			C1143.65,251.03,1145.55,250.85,1146.14,252.89z M1141.92,241.85c-0.89,0.58-2.37-1.26-3.49-1.64c-1.31,1.67,3.16,3.56,4.28,3.61
			c1.5,1.9,1.72,4.12,2.72,6.15c-2.25,0.27-3.47-3.12-5.66-2.96c-1.4,3.64,4.83,5.43,6.36,8.36c-2.72-0.17-4.77-3.17-7.27-4.43
			c-0.06,2.6,4.82,3.99,7.33,5.97c-0.19,0.77-0.74,1.62-0.38,2.26c-2.24-0.71-6-4.99-8.49-5.68c1.34-5.38,1.05-10.36-0.84-14.95
			C1137.92,238.5,1141.16,240.67,1141.92,241.85z M1140.48,238.48c-2.16-0.76-6.12-1.84-5.37-4.27
			C1137.88,235.98,1139.59,236.17,1140.48,238.48z M1131.43,230.46c-0.48-1.22,2.54,1.22,3.49,1.63
			C1135.39,233.31,1132.37,230.88,1131.43,230.46z M1109.34,227.46c5.69-2.55,12.16-3.2,19.6,2.99
			c14.24,11.84,5.03,35.46-12.1,39.44c-5.85-2.16-14.23-2.23-20.14-7.8c-1.94-1.82-2.11-5.09-4.41-6.67c0-3.69,0.33-7.68,2.13-11.65
			C1097.82,236.25,1105.61,231.76,1109.34,227.46z"/>
	</g>
	<g>
		<defs>
			<rect id="SVGID_59_" x="14.63" y="-137.98" width="1920.69" height="1500.71"/>
		</defs>
		<clipPath id="SVGID_60_">
			<use xlink:href="#SVGID_59_"  style="overflow:visible;"/>
		</clipPath>
		<path class="st26" d="M936.2,406.95c4.77-3.08,10.78-12.28,13.47-17.63c2.06-4.1,1.75-8.37,1.51-11.69
			c-0.7-9.61-5.01-18.9-15.87-23.99c-4.97-2.32-8.92-3.13-12.9-2.78c-9.15,0.8-22.07,7.65-27.6,19.1c-2.84,5.88-3.8,16,0.04,21.83
			c0.69,1.04,2.14,2.24,3.23,3.61c1.06,1.33,1.94,2.82,3,3.98C910.25,409.35,926.63,413.13,936.2,406.95z M948.34,377.3
			c0.65,0.27,0.4,0.74,0.84,1.05c-1.02,3.61-4.98,5.29-7.21,7.99C941.76,383.58,947.79,381.46,948.34,377.3z M948.78,375.06
			c-2.33,2.49-4.43,6.1-6.85,8.23c-1.7-1.08-1.27-2.59-2.05-3.87c2.7-1.75,4.85-6.07,7.45-8.35
			C948.37,372.28,948.81,373.61,948.78,375.06z M946.21,367.3c0.6,0.69,0.67,1.49,1.09,2.23c-3.06,1.5-5.17,7.45-8.52,7.65
			C940.13,374.18,944.16,371.78,946.21,367.3z M945.6,365.9c-2.2,4.07-4.76,6.51-7.32,8.93c-1.57-0.69-0.82-1.87-2.39-2.56
			c2.55-3.89,5.34-6.66,8.14-9.42C944.43,363.89,944.95,364.9,945.6,365.9z M941.17,361c0.44-0.82,1.37,0.66,2.02,0.8
			c-1.76,2.04-5.52,6.69-8.27,8.83C934.66,368.28,940.84,365.15,941.17,361z M932.48,354.85c-2.09,2.2-4.01,5.19-6.15,7.15
			c2.77-0.01,5.17-4.3,6.51-6.92c2.42,0.29,5.21,2.34,7.96,4.15c-1.2,3.73-4.81,8.04-7.42,9.88c-2.34-3.3,3.73-5.39,5.07-9.38
			c-2.71,0.71-4.74,4.69-7.1,7.05c-2.61-1.61-5.31-3.75-7.73-4.5c2.32-2.13,4.45-5.08,6.5-8.46
			C931.04,354.79,931.65,354.3,932.48,354.85z M922.91,353.2c-0.08,1.17-2.33,4.38-3.72,4.17
			C920.99,355.65,920.85,353.73,922.91,353.2z M911.76,357.11c0.56,0.91-1.32,2.34-1.74,3.45c1.63,1.35,3.64-3.06,3.73-4.18
			c1.94-1.45,4.17-1.6,6.22-2.55c0.21,2.26-3.22,3.38-3.12,5.58c3.6,1.5,5.56-4.68,8.53-6.12c-0.25,2.72-3.3,4.68-4.63,7.14
			c2.6,0.13,4.12-4.7,6.17-7.16c0.76,0.21,1.6,0.78,2.25,0.45c-0.77,2.22-5.16,5.86-5.92,8.33c-5.34-1.49-10.33-1.33-14.97,0.42
			C908.29,361.03,910.56,357.84,911.76,357.11z M908.35,358.46c-0.82,2.14-2.01,6.06-4.42,5.25
			C905.78,361,906.02,359.29,908.35,358.46z M900.09,367.29c-1.23,0.45,1.29-2.51,1.73-3.44
			C903.04,363.41,900.53,366.35,900.09,367.29z M896.47,389.28c-2.39-5.76-2.86-12.25,3.54-19.51c12.23-13.91,35.58-4.04,39.09,13.2
			c-2.32,5.78-2.63,14.16-8.36,19.92c-1.87,1.88-5.14,1.97-6.79,4.22c-3.69-0.1-7.67-0.55-11.59-2.46
			C904.93,401.04,900.67,393.13,896.47,389.28z"/>
	</g>
	<g>
		<defs>
			<rect id="SVGID_61_" x="43.57" y="-44.37" width="1920.69" height="1500.71"/>
		</defs>
		<clipPath id="SVGID_62_">
			<use xlink:href="#SVGID_61_"  style="overflow:visible;"/>
		</clipPath>
		<path class="st27" d="M193.55,190.65c1.78-14.48-22.46-28.88-32.93-20.35c-8.84,7.2-6.32,21.51-2.02,26.57
			c7.2,8.46,19.66,9.45,27.46,7.68C189.5,198.81,192.99,195.3,193.55,190.65z M181.92,174.98c-1.23,1.42-2.64,2.05-3.85,3.59
			c-0.76-0.66-1.19-1.38-1.68-2.1C177.87,174.88,180.39,171.67,181.92,174.98z M178.22,172.08c0.08,1.4-2.17,4.18-3.62,3.23
			C175.67,173.57,176.81,172.19,178.22,172.08z M174.32,171.06c0.61,0.47,1.03,0.06,1.65,0.57c-1.08,1.16-2.1,2.62-3.38,2.87
			C171.45,173.45,173.8,172.86,174.32,171.06z M172.66,170.5c0.57,1.37-1.57,2.14-2.08,3.21
			C170.12,172.85,171.96,170.69,172.66,170.5z M169.82,170.18c1.51,0.64-0.95,2.93-1.49,3.08
			C167.7,172.48,169.49,171.17,169.82,170.18z M167.47,170.68c-0.9,2.03-2.11,2.62-3.39,2.87
			C164.53,172.74,165.36,169.33,167.47,170.68z M171.51,201.18c-3.59-2.19-7.97-3.1-10.58-6.35c-0.73-0.91-0.75-2.46-1.46-4
			c-1.47-3.11-4.29-8.78-1.45-12.6c4.24-5.73,16.4-2.1,20.24,5.53C181.22,189.65,179.42,196.67,171.51,201.18z M189.11,184.21
			c-1.1-0.32-1.36,0.74-2.08,2.21c-5.64,3.11-4.68-1.06,2.24-2.11c0.23-0.35,0.46-0.71,0.69-1.06c-4.91-2.06-4.62,1.97-6.58,3.33
			c-1.55-1.41-1.68-3.38-2.85-4.88c1.62-0.6,2.83-2.46,4.28-3.82c-0.94-1.48-3.55,1.88-4.99,2.85c-1.91-1.99,2.7-3.59,3.79-5.14
			c4.82,4.6,8.07,9.54,7.25,15.35C189.47,188.87,190.75,186.22,189.11,184.21z M181.91,202.35c1.04-0.4,2.06-0.92,3.05-1.57
			C185.31,202.1,183.01,203.13,181.91,202.35z"/>
	</g>
	<g>
		<defs>
			<rect id="SVGID_63_" x="113.8" y="-281.15" width="1920.69" height="1500.71"/>
		</defs>
		<clipPath id="SVGID_64_">
			<use xlink:href="#SVGID_63_"  style="overflow:visible;"/>
		</clipPath>
		<path class="st28" d="M507.4,273.42c1.78-14.48-22.46-28.88-32.93-20.35c-8.84,7.2-6.32,21.51-2.02,26.57
			c7.2,8.46,19.66,9.45,27.46,7.68C503.35,281.59,506.84,278.07,507.4,273.42z M495.77,257.75c-1.23,1.42-2.64,2.05-3.85,3.59
			c-0.76-0.66-1.19-1.38-1.68-2.1C491.72,257.65,494.24,254.44,495.77,257.75z M492.07,254.86c0.08,1.4-2.17,4.18-3.62,3.23
			C489.52,256.35,490.66,254.97,492.07,254.86z M488.17,253.84c0.61,0.47,1.03,0.06,1.65,0.57c-1.08,1.16-2.1,2.62-3.38,2.87
			C485.3,256.22,487.65,255.64,488.17,253.84z M486.51,253.27c0.57,1.37-1.57,2.14-2.08,3.21
			C483.97,255.62,485.81,253.46,486.51,253.27z M483.67,252.96c1.51,0.64-0.95,2.93-1.49,3.08
			C481.55,255.25,483.34,253.95,483.67,252.96z M481.32,253.46c-0.9,2.03-2.11,2.62-3.39,2.87
			C478.38,255.51,479.21,252.1,481.32,253.46z M485.36,283.96c-3.59-2.19-7.97-3.1-10.58-6.35c-0.73-0.91-0.75-2.46-1.46-4
			c-1.47-3.11-4.29-8.78-1.45-12.6c4.24-5.73,16.4-2.1,20.24,5.53C495.07,272.42,493.27,279.44,485.36,283.96z M502.96,266.98
			c-1.1-0.32-1.36,0.74-2.08,2.21c-5.64,3.11-4.68-1.06,2.24-2.11c0.23-0.35,0.46-0.71,0.69-1.06c-4.91-2.06-4.62,1.97-6.58,3.33
			c-1.55-1.41-1.68-3.38-2.85-4.88c1.62-0.6,2.83-2.46,4.28-3.82c-0.94-1.48-3.55,1.88-4.99,2.85c-1.91-1.99,2.7-3.59,3.79-5.14
			c4.82,4.6,8.07,9.54,7.25,15.35C503.32,271.64,504.6,269,502.96,266.98z M495.76,285.13c1.04-0.4,2.06-0.92,3.05-1.57
			C499.16,284.87,496.86,285.9,495.76,285.13z"/>
	</g>
</g>
</svg>
