<?xml version="1.0" encoding="utf-8"?>
<!-- Generator: Adobe Illustrator 24.0.2, SVG Export Plug-In . SVG Version: 6.00 Build 0)  -->
<svg version="1.1" id="Layer_1" xmlns="http://www.w3.org/2000/svg" xmlns:xlink="http://www.w3.org/1999/xlink" x="0px" y="0px"
	 viewBox="0 0 150.4 150.35" style="enable-background:new 0 0 150.4 150.35;" xml:space="preserve">
<style type="text/css">
	.st0{fill:#593B21;}
	.st1{fill:#FDD99E;}
</style>
<g>
	<g>
		<path class="st0" d="M128.42,22.16C114.22,7.88,95.42,0.02,75.48,0h-0.04C33.9,0,0.06,33.69,0,75.11s33.49,75.17,74.8,75.24h0.14
			c20.11,0,39.02-7.78,53.27-21.92c14.28-14.17,22.16-33.03,22.19-53.1C150.42,55.32,142.62,36.44,128.42,22.16z M118.53,119.15
			c-11.72,11.48-27.26,17.78-43.78,17.78h-0.37c-33.78-0.19-61.13-28.07-60.96-62.14C13.5,58.37,20,42.94,31.73,31.32
			c11.66-11.55,27.03-17.9,43.32-17.9h0.31c16.57,0.09,32.1,6.6,43.73,18.34c11.62,11.75,17.98,27.34,17.89,43.9
			C136.9,92.14,130.34,107.59,118.53,119.15z"/>
		<path class="st1" d="M119.09,31.76c-11.63-11.74-27.16-18.25-43.73-18.34h-0.31c-16.29,0-31.66,6.35-43.32,17.9
			C20,42.94,13.5,58.37,13.42,74.79c-0.17,34.07,27.18,61.95,60.96,62.14h0.37c16.52,0,32.06-6.3,43.78-17.78
			c11.81-11.56,18.37-27.01,18.45-43.49C137.07,59.1,130.71,43.51,119.09,31.76z M108.43,75.35c-1.08,1.12-2.54,1.75-4.1,1.75
			c-1.58,0-3.04-0.63-4.13-1.77L81.05,56.27v53.81c0,3.28-2.57,5.85-5.85,5.85c-3.28,0-5.85-2.57-5.85-5.85V56.27L50.18,75.35
			c-1.07,1.12-2.53,1.75-4.11,1.75c-1.57,0-3.04-0.63-4.12-1.77c-1.1-1.05-1.73-2.51-1.73-4.09s0.63-3.04,1.77-4.12L71.1,38.01
			c1.06-1.12,2.52-1.75,4.1-1.75c1.58,0,3.04,0.63,4.12,1.77l29.11,29.11c1.12,1.06,1.75,2.52,1.75,4.1
			C110.18,72.81,109.56,74.26,108.43,75.35z"/>
	</g>
	<g>
		<path class="st0" d="M110.18,71.24c0,1.57-0.62,3.02-1.75,4.11c-1.08,1.12-2.54,1.75-4.1,1.75c-1.58,0-3.04-0.63-4.13-1.77
			L81.05,56.27v53.81c0,3.28-2.57,5.85-5.85,5.85c-3.28,0-5.85-2.57-5.85-5.85V56.27L50.18,75.35c-1.07,1.12-2.53,1.75-4.11,1.75
			c-1.57,0-3.04-0.63-4.12-1.77c-1.1-1.05-1.73-2.51-1.73-4.09s0.63-3.04,1.77-4.12L71.1,38.01c1.06-1.12,2.52-1.75,4.1-1.75
			c1.58,0,3.04,0.63,4.12,1.77l29.11,29.11C109.55,68.2,110.18,69.66,110.18,71.24z"/>
	</g>
</g>
</svg>
