<svg version="1.1" id="Layer_1" xmlns="http://www.w3.org/2000/svg" xmlns:xlink="http://www.w3.org/1999/xlink" 
	 viewBox="0 0 196.67 171.11" style="enable-background:new 0 0 196.67 171.11;" xml:space="preserve">
<g id="_x32_Jljck.tif">
	<g>
		<g>
			<path class="st0" d="M3.13,67.62c0.12-0.34,0.28-0.67,0.36-1.02c1.64-6.86,7.43-11.54,14.49-11.6
				c6.81-0.05,13.62-0.04,20.43,0.01c1.1,0.01,1.8-0.31,2.45-1.22C51.96,38.45,63.11,23.15,74.2,7.81
				c3.74-5.16,10.63-6.36,15.76-2.65c5.11,3.7,6.06,10.61,2.16,15.77c-7.99,10.56-15.99,21.12-23.98,31.67
				c-0.52,0.68-1.02,1.37-1.66,2.25c21.22,0,42.22,0,63.51,0c-0.43-0.6-0.78-1.12-1.16-1.62c-8.18-10.81-16.36-21.61-24.53-32.42
				c-3.82-5.05-2.84-11.96,2.19-15.63c5.11-3.73,12.05-2.56,15.77,2.58c11.1,15.34,22.25,30.64,33.34,45.99
				c0.71,0.98,1.46,1.27,2.62,1.26c6.56-0.05,13.13-0.03,19.69-0.02c7.6,0.02,13.68,4.74,15.11,11.74
				c1.49,7.26-2.05,13.84-9.16,16.92c-1.11,0.48-2.31,0.78-3.49,1.09c-1.84,0.48-2.78,1.64-3.11,3.49
				c-1.42,7.91-2.88,15.81-4.32,23.72c-2.74,15.08-5.44,30.18-8.24,45.25c-0.81,4.37-3.49,7.28-7.71,8.73
				c-0.39,0.14-0.77,0.32-1.15,0.49c-38.39,0-76.79,0-115.18,0c-0.38-0.16-0.76-0.35-1.15-0.48c-4.2-1.46-6.9-4.35-7.71-8.72
				c-2.91-15.73-5.74-31.47-8.6-47.2c-1.33-7.29-2.67-14.58-3.98-21.87c-0.35-1.94-1.43-3.01-3.36-3.44
				c-5.84-1.3-10.01-4.58-12.01-10.35c-0.26-0.75-0.48-1.52-0.72-2.28C3.13,70.59,3.13,69.11,3.13,67.62z M170.33,84.68
				c-0.94,0-1.67,0-2.41,0c-17.83,0-35.66,0-53.49-0.01c-0.74,0-1.5,0.01-2.21-0.16c-1.74-0.41-2.87-1.96-2.8-3.68
				c0.07-1.78,1.43-3.28,3.24-3.52c0.61-0.08,1.24-0.04,1.85-0.04c14.86,0,29.72,0,44.58,0c6.5,0,13,0.04,19.5-0.02
				c3.91-0.04,7.01-3.01,7.32-6.79c0.31-3.73-2.18-7.09-5.91-7.87c-0.9-0.19-1.84-0.17-2.77-0.17
				c-52.63-0.01-105.25-0.01-157.88-0.01c-0.5,0-0.99-0.01-1.49,0.01c-3.88,0.13-7,3.06-7.28,6.84c-0.28,3.8,2.33,7.2,6.13,7.88
				c0.84,0.15,1.73,0.12,2.59,0.12c20.87,0.01,41.73,0,62.6,0.01c0.62,0,1.24-0.04,1.86,0.03c1.9,0.22,3.3,1.78,3.33,3.63
				c0.02,1.84-1.35,3.45-3.24,3.71c-0.67,0.09-1.36,0.05-2.04,0.05c-17.83,0-35.66,0-53.49,0c-0.7,0-1.4,0-2.14,0
				c4.28,23.58,8.5,46.87,12.73,70.16c0.59,3.25,1.69,4.12,5.06,4.12c36.03,0,72.07,0,108.1,0c4.05,0,4.92-0.78,5.64-4.76
				c1.78-9.92,3.6-19.83,5.4-29.74C165.49,111.3,167.89,98.11,170.33,84.68z M49.16,54.99c2.47,0,4.51,0.09,6.54-0.05
				c0.73-0.05,1.66-0.5,2.1-1.07c9.45-12.38,18.84-24.8,28.23-37.23c1.56-2.07,1.35-4.19-0.5-5.51c-1.83-1.31-3.93-0.82-5.43,1.25
				c-6.93,9.55-13.87,19.1-20.81,28.65C56,45.58,52.7,50.12,49.16,54.99z M147.19,54.9c-0.47-0.7-0.79-1.2-1.15-1.69
				c-4.87-6.7-9.74-13.4-14.61-20.1c-5.05-6.95-10.1-13.9-15.13-20.87c-0.95-1.32-2.18-2.03-3.81-1.75
				c-1.53,0.26-2.81,1.21-2.89,2.72c-0.07,1.22,0.37,2.7,1.1,3.68c8.21,10.99,16.52,21.92,24.82,32.85
				c1.34,1.76,2.43,4.14,4.23,5.01c1.81,0.87,4.36,0.22,6.59,0.23C146.52,54.99,146.71,54.95,147.19,54.9z"/>
			<path class="st0" d="M156.03,167.38H40.46l-0.56-0.24c-0.23-0.11-0.47-0.21-0.71-0.29c-4.6-1.6-7.48-4.87-8.33-9.45
				c-2.05-11.05-4.08-22.3-6.05-33.18c-0.85-4.68-1.69-9.35-2.54-14.03l-1.49-8.13c-0.84-4.58-1.68-9.16-2.5-13.74
				c-0.28-1.55-1.04-2.32-2.63-2.67c-6.4-1.42-10.67-5.11-12.7-10.97c-0.18-0.53-0.35-1.06-0.51-1.59l-0.26-1v-4.62l0.06-0.16
				c0.04-0.12,0.09-0.23,0.13-0.35c0.07-0.19,0.15-0.37,0.2-0.57c1.75-7.32,7.94-12.27,15.41-12.33c6.18-0.05,12.87-0.04,20.45,0.01
				c0.86,0.01,1.21-0.19,1.67-0.83c5.82-8.06,11.66-16.1,17.5-24.15c5.28-7.28,10.56-14.56,15.84-21.84
				c1.96-2.71,4.79-4.49,7.97-5.04c3.2-0.54,6.44,0.23,9.12,2.17c2.64,1.92,4.36,4.7,4.83,7.85c0.48,3.24-0.39,6.53-2.47,9.27
				c-5.17,6.84-10.35,13.67-15.52,20.5L68.9,53.18c-0.18,0.24-0.36,0.47-0.54,0.72h59.77c-0.02-0.03-0.04-0.06-0.07-0.09
				l-9.21-12.17c-5.11-6.75-10.22-13.5-15.32-20.25c-2.02-2.67-2.87-5.91-2.4-9.12c0.46-3.15,2.16-5.95,4.78-7.86
				c2.65-1.94,5.86-2.72,9.04-2.22c3.23,0.51,6.09,2.29,8.06,5.01c4.7,6.49,9.41,12.98,14.12,19.47
				c6.41,8.84,12.83,17.68,19.22,26.53c0.49,0.67,0.94,0.88,1.84,0.87c6.43-0.05,12.96-0.03,19.28-0.02l0.42,0
				c8.07,0.02,14.51,5.04,16.04,12.5c1.58,7.69-2.24,14.75-9.71,17.99c-1.13,0.49-2.32,0.8-3.47,1.09l-0.16,0.04
				c-1.41,0.37-2.13,1.18-2.41,2.73c-0.9,5.03-1.82,10.06-2.74,15.09c-0.53,2.88-1.05,5.75-1.58,8.63
				c-0.83,4.55-1.65,9.1-2.47,13.65c-1.87,10.36-3.81,21.08-5.76,31.61c-0.85,4.6-3.74,7.87-8.33,9.46
				c-0.24,0.08-0.48,0.19-0.71,0.3L156.03,167.38z M40.86,165.47h114.78l0.17-0.07c0.29-0.13,0.57-0.26,0.87-0.36
				c3.97-1.37,6.35-4.06,7.08-8.01c1.95-10.53,3.89-21.24,5.76-31.6c0.82-4.55,1.65-9.1,2.47-13.65c0.52-2.88,1.05-5.75,1.58-8.63
				c0.92-5.03,1.84-10.05,2.74-15.08c0.41-2.27,1.69-3.69,3.81-4.24l0.16-0.04c1.08-0.28,2.2-0.57,3.19-1
				c6.71-2.91,10.01-8.98,8.6-15.86c-1.34-6.55-7.04-10.96-14.18-10.97l-0.42,0c-6.32-0.01-12.84-0.03-19.26,0.02
				c-1.5,0-2.55-0.48-3.4-1.66c-6.39-8.85-12.81-17.69-19.22-26.52c-4.71-6.49-9.42-12.97-14.12-19.47
				c-1.67-2.31-4.09-3.81-6.82-4.24c-2.67-0.42-5.38,0.24-7.62,1.88c-2.2,1.61-3.63,3.95-4.02,6.6c-0.4,2.7,0.32,5.43,2.03,7.69
				c5.1,6.75,10.21,13.5,15.32,20.25l9.21,12.17c0.26,0.35,0.52,0.71,0.79,1.1l1.46,2.05H64.58l1.72-2.34
				c0.38-0.52,0.72-0.98,1.07-1.44l8.46-11.17c5.18-6.83,10.35-13.67,15.52-20.5c1.76-2.33,2.51-5.11,2.1-7.84
				c-0.39-2.63-1.83-4.97-4.06-6.58c-2.26-1.64-4.99-2.29-7.68-1.84c-2.69,0.46-5.08,1.97-6.74,4.27
				c-5.27,7.29-10.56,14.57-15.84,21.85c-5.84,8.04-11.68,16.09-17.5,24.14c-0.83,1.14-1.75,1.62-3.24,1.62
				c-7.57-0.05-14.25-0.06-20.42-0.01c-6.57,0.05-12.02,4.41-13.56,10.86c-0.07,0.28-0.17,0.56-0.28,0.83
				c-0.02,0.05-0.04,0.1-0.06,0.14v4.14l0.18,0.58c0.16,0.51,0.32,1.03,0.49,1.53c1.82,5.26,5.52,8.44,11.31,9.73
				c2.34,0.52,3.68,1.89,4.09,4.2c0.82,4.58,1.66,9.16,2.5,13.73l1.49,8.14c0.85,4.68,1.7,9.35,2.54,14.03
				c1.97,10.87,4.01,22.12,6.05,33.17c0.73,3.92,3.11,6.61,7.08,7.99c0.29,0.1,0.58,0.23,0.86,0.35L40.86,165.47z M125.04,159.95
				l-81.08,0c-3.86,0-5.32-1.19-6-4.91c-3.16-17.39-6.32-34.79-9.49-52.3l-3.44-18.99l57.27,0c0.5,0.01,0.98,0.01,1.42-0.05
				c1.39-0.19,2.43-1.38,2.41-2.75c-0.02-1.37-1.08-2.53-2.48-2.69c-0.39-0.04-0.81-0.04-1.25-0.03l-0.49,0l-20.86,0
				c-13.91,0-27.82,0-41.73,0l-0.38,0c-0.78,0-1.58,0.01-2.38-0.14c-4.26-0.77-7.23-4.59-6.92-8.89c0.31-4.26,3.84-7.58,8.2-7.73
				c0.36-0.01,0.73-0.01,1.09-0.01l0.42,0c52.63,0,105.26,0,157.88,0.01l0.26,0c0.88,0,1.79,0,2.7,0.19
				c4.14,0.87,7.01,4.69,6.67,8.88c-0.36,4.32-3.91,7.62-8.27,7.67c-4.67,0.05-9.42,0.04-14.01,0.03c-1.83,0-3.67-0.01-5.5-0.01
				l-44.58,0l-0.46,0c-0.45-0.01-0.88-0.01-1.27,0.04c-1.34,0.18-2.36,1.27-2.41,2.61c-0.05,1.29,0.8,2.41,2.07,2.71
				c0.55,0.13,1.19,0.13,1.85,0.13h0.14c16.05,0.01,32.1,0.01,48.14,0.01h8.91l-9.06,49.87c-1.26,6.94-2.53,13.87-3.77,20.81
				c-0.8,4.46-2.09,5.55-6.58,5.55H125.04z M27.32,85.66l3.03,16.74c3.18,17.51,6.33,34.91,9.49,52.3c0.51,2.78,1.2,3.34,4.12,3.34
				l108.1,0c3.57,0,4.06-0.41,4.7-3.97c1.24-6.94,2.51-13.88,3.77-20.81l8.65-47.61h-6.62c-16.05,0-32.1,0-48.14-0.01h-0.14
				c-0.75,0-1.52,0-2.29-0.18c-2.17-0.51-3.62-2.42-3.54-4.64c0.09-2.26,1.8-4.13,4.07-4.43c0.53-0.07,1.05-0.06,1.55-0.06l0.43,0
				l44.58,0c1.84,0,3.67,0,5.51,0.01c4.59,0.01,9.33,0.02,13.98-0.03c3.37-0.04,6.11-2.58,6.38-5.91c0.27-3.29-1.9-6.18-5.15-6.86
				c-0.71-0.15-1.49-0.15-2.3-0.15l-0.27,0c-52.63-0.01-105.25-0.01-157.88-0.01l-0.44,0c-0.34,0-0.68,0-1.02,0.01
				c-3.38,0.11-6.11,2.67-6.36,5.96c-0.24,3.32,2.06,6.28,5.35,6.87c0.63,0.12,1.32,0.12,2.04,0.11l0.39,0c13.91,0,27.82,0,41.73,0
				l20.86,0l0.46,0c0.48-0.01,0.99-0.01,1.5,0.04c2.35,0.27,4.14,2.23,4.17,4.56c0.03,2.34-1.72,4.34-4.06,4.67
				c-0.59,0.08-1.16,0.08-1.71,0.07l-0.46,0L27.32,85.66z M142.22,56.17c-1.01,0-2-0.12-2.88-0.55c-1.54-0.74-2.56-2.29-3.54-3.79
				c-0.35-0.54-0.69-1.05-1.04-1.51l-2.38-3.14c-7.38-9.72-15.01-19.77-22.43-29.71c-0.86-1.15-1.37-2.85-1.29-4.31
				c0.1-1.83,1.55-3.24,3.68-3.61c1.3-0.23,3.18-0.04,4.74,2.13c5.03,6.96,10.08,13.91,15.13,20.86l14.61,20.1
				c0.24,0.33,0.47,0.67,0.74,1.07l1.31,1.95l-1.99,0.23c-0.24,0.03-0.39,0.04-0.54,0.05c-0.64-0.01-1.3,0.05-2,0.11
				C143.63,56.11,142.92,56.17,142.22,56.17z M113.17,11.39c-0.17,0-0.34,0.02-0.51,0.05c-0.98,0.17-2.04,0.74-2.1,1.84
				c-0.06,1.01,0.32,2.27,0.91,3.06c7.42,9.94,15.05,19.98,22.43,29.7l2.39,3.14c0.39,0.51,0.76,1.07,1.11,1.61
				c0.84,1.28,1.71,2.6,2.77,3.12c1.03,0.5,2.48,0.38,4.01,0.25c0.43-0.04,0.86-0.07,1.3-0.09c-0.07-0.1-0.14-0.19-0.21-0.29
				l-14.61-20.1c-5.05-6.95-10.1-13.9-15.13-20.87C114.84,11.85,114.08,11.39,113.17,11.39z M53.01,55.98
				c-0.58,0-1.18-0.01-1.78-0.01c-0.66-0.01-1.34-0.02-2.07-0.02h-1.87l32.04-44.12c1.8-2.48,4.51-3.06,6.76-1.46
				c1.07,0.76,1.72,1.77,1.9,2.92c0.2,1.29-0.21,2.65-1.19,3.94c-8.2,10.85-18.4,24.35-28.24,37.23c-0.58,0.76-1.75,1.37-2.79,1.44
				C54.86,55.96,53.95,55.98,53.01,55.98z M51.03,54.05c0.08,0,0.15,0,0.22,0c1.61,0.02,2.99,0.04,4.39-0.06
				c0.48-0.03,1.16-0.37,1.41-0.69c9.83-12.88,20.03-26.38,28.23-37.22c0.66-0.87,0.94-1.73,0.82-2.5c-0.1-0.64-0.47-1.2-1.12-1.66
				c-1.39-0.99-2.92-0.6-4.11,1.03L51.03,54.05z"/>
		</g>
		<g>
			<path class="st0" d="M49.95,121.66c0-4.77-0.02-9.53,0-14.3c0.03-6.53,4.83-11.49,11.09-11.51c6.29-0.02,11.16,4.9,11.19,11.4
				c0.04,9.72,0.04,19.44,0,29.16c-0.02,6.5-4.91,11.45-11.18,11.43c-6.25-0.02-11.07-4.99-11.1-11.5
				C49.93,131.45,49.95,126.56,49.95,121.66z M64.81,122.04c0-4.76,0.01-9.51,0-14.27c-0.01-2.8-1.49-4.53-3.8-4.48
				c-2.24,0.05-3.62,1.73-3.63,4.46c-0.01,9.39-0.01,18.78,0,28.17c0,2.79,1.5,4.54,3.8,4.48c2.23-0.05,3.62-1.75,3.63-4.47
				C64.82,131.3,64.81,126.67,64.81,122.04z"/>
			<path class="st0" d="M61.08,148.8c-0.01,0-0.02,0-0.04,0c-6.84-0.02-12.02-5.37-12.05-12.46c-0.02-3.39-0.01-6.78-0.01-10.17
				l0-4.5l0-4.42c0-3.3-0.01-6.59,0.01-9.89c0.04-7.08,5.21-12.44,12.04-12.46c0.01,0,0.03,0,0.04,0c6.76,0,12.08,5.42,12.1,12.35
				c0.04,9.55,0.04,19.36,0,29.16C73.16,143.36,67.85,148.8,61.08,148.8z M61.08,96.81c-0.01,0-0.03,0-0.04,0
				c-5.75,0.02-10.1,4.56-10.14,10.56c-0.02,3.29-0.01,6.58-0.01,9.88l0,4.42l0,4.51c0,3.39-0.01,6.77,0.01,10.16
				c0.03,6,4.39,10.54,10.15,10.55c0.01,0,0.02,0,0.03,0c5.79,0,10.16-4.5,10.19-10.48c0.04-9.8,0.04-19.6,0-29.15
				C71.25,101.29,66.87,96.81,61.08,96.81z M61.07,141.36c-1.22,0-2.29-0.42-3.1-1.21c-1.01-0.98-1.54-2.44-1.54-4.23
				c-0.01-9.39-0.01-18.78,0-28.17c0-3.23,1.79-5.35,4.56-5.42c1.29-0.03,2.39,0.39,3.24,1.21c1,0.98,1.54,2.44,1.54,4.22
				c0.01,3.35,0.01,6.69,0,10.04l0,4.24l0,4.09c0,3.27,0,6.54-0.01,9.81c-0.01,3.23-1.8,5.35-4.56,5.42
				C61.16,141.36,61.11,141.36,61.07,141.36z M61.11,104.24c-0.03,0-0.06,0-0.08,0c-2.43,0.06-2.69,2.47-2.69,3.51
				c-0.01,9.39-0.01,18.78,0,28.17c0,1.24,0.35,2.25,0.97,2.86c0.47,0.46,1.1,0.7,1.85,0.67c2.42-0.06,2.69-2.48,2.7-3.52
				c0.01-3.27,0.01-6.54,0.01-9.81l0-4.09l0-4.24c0-3.34,0-6.69,0-10.03c0-1.24-0.35-2.26-0.96-2.86
				C62.43,104.47,61.83,104.24,61.11,104.24z"/>
		</g>
		<g>
			<path class="st0" d="M109.39,121.85c0,4.83,0.02,9.66-0.01,14.49c-0.04,6.53-4.85,11.49-11.1,11.5
				c-6.27,0.02-11.15-4.94-11.17-11.43c-0.03-9.72-0.03-19.44,0-29.16c0.02-6.48,4.92-11.43,11.19-11.4
				c6.2,0.02,11.03,4.93,11.08,11.33C109.42,112.07,109.39,116.96,109.39,121.85z M101.96,122.02c0-4.76,0.01-9.51,0-14.27
				c-0.01-2.73-1.38-4.41-3.63-4.46c-2.31-0.06-3.8,1.68-3.8,4.47c-0.01,9.39-0.01,18.78,0,28.17c0,2.72,1.39,4.41,3.62,4.47
				c2.29,0.06,3.79-1.69,3.8-4.48C101.97,131.29,101.96,126.66,101.96,122.02z"/>
			<path class="st0" d="M98.25,148.8c-6.76,0-12.08-5.43-12.1-12.38c-0.03-9.91-0.03-19.72,0-29.16c0.01-3.38,1.26-6.51,3.53-8.81
				c2.26-2.3,5.35-3.6,8.63-3.55c6.69,0.03,11.97,5.42,12.03,12.27c0.03,3.39,0.02,6.78,0.01,10.18l-0.01,4.5l0,4.34
				c0.01,3.38,0.01,6.76-0.01,10.15c-0.04,7.08-5.23,12.44-12.06,12.45C98.27,148.8,98.26,148.8,98.25,148.8z M98.25,96.81
				c-2.76,0-5.32,1.06-7.21,2.98c-1.91,1.94-2.97,4.6-2.98,7.48c-0.03,9.44-0.03,19.24,0,29.15c0.02,5.88,4.49,10.48,10.19,10.48
				c0.01,0,0.02,0,0.03,0c5.75-0.02,10.11-4.55,10.15-10.56c0.02-3.38,0.01-6.76,0.01-10.13l0-4.35l0.01-4.51
				c0.01-3.39,0.01-6.77-0.01-10.16c-0.05-5.89-4.4-10.36-10.13-10.38C98.28,96.81,98.27,96.81,98.25,96.81z M98.27,141.36
				c-0.04,0-0.09,0-0.13,0c-2.76-0.07-4.55-2.2-4.55-5.42c-0.01-9.39-0.01-18.78,0-28.17c0-1.78,0.53-3.24,1.54-4.22
				c0.84-0.82,1.96-1.24,3.24-1.21c2.76,0.07,4.55,2.19,4.56,5.42c0.01,3.36,0.01,6.72,0.01,10.08l0,4.2l0,4.09
				c0,3.27,0,6.54-0.01,9.81c0,1.78-0.54,3.24-1.55,4.22C100.54,140.94,99.48,141.36,98.27,141.36z M98.22,104.24
				c-0.72,0-1.32,0.22-1.78,0.67c-0.62,0.6-0.96,1.62-0.96,2.85c-0.01,9.39-0.01,18.78,0,28.17c0,1.04,0.26,3.46,2.69,3.52
				c0.75,0.02,1.37-0.21,1.85-0.67c0.62-0.61,0.97-1.62,0.97-2.86c0.01-3.27,0.01-6.54,0.01-9.81l0-4.09l0-4.2
				c0-3.36,0-6.71-0.01-10.07c0-1.04-0.27-3.45-2.69-3.51C98.28,104.24,98.25,104.24,98.22,104.24z"/>
		</g>
		<g>
			<path class="st0" d="M146.55,121.85c0,4.83,0.02,9.66-0.01,14.49c-0.04,6.53-4.85,11.49-11.1,11.5
				c-6.27,0.02-11.15-4.94-11.17-11.43c-0.03-9.72-0.03-19.44,0-29.16c0.02-6.48,4.92-11.43,11.19-11.4
				c6.2,0.03,11,4.93,11.09,11.33c0,0.12,0,0.25,0,0.37C146.55,112.32,146.55,117.08,146.55,121.85z M139.12,121.95
				c0-4.76,0.01-9.51,0-14.27c-0.01-2.69-1.46-4.38-3.7-4.39c-2.25-0.01-3.72,1.69-3.72,4.37c-0.01,9.45-0.01,18.9,0,28.35
				c0,2.69,1.46,4.39,3.7,4.39c2.24,0.01,3.71-1.7,3.72-4.37C139.13,131.34,139.12,126.64,139.12,121.95z"/>
			<path class="st0" d="M135.4,148.8c-6.76,0-12.07-5.43-12.1-12.38c-0.03-10-0.03-19.81,0-29.16c0.01-3.38,1.26-6.51,3.53-8.81
				c2.25-2.29,5.3-3.55,8.58-3.55c0.02,0,0.03,0,0.05,0c6.77,0.03,11.95,5.3,12.04,12.27l0.01,19.15c0,3.34,0.01,6.68-0.01,10.02
				c-0.04,7.08-5.23,12.44-12.06,12.45C135.43,148.8,135.42,148.8,135.4,148.8z M135.41,96.81c-2.76,0-5.32,1.06-7.21,2.98
				c-1.91,1.94-2.97,4.59-2.98,7.47c-0.03,9.34-0.03,19.15,0,29.15c0.02,5.98,4.4,10.48,10.19,10.48c0.01,0,0.02,0,0.03,0
				c5.75-0.02,10.12-4.55,10.15-10.56c0.02-3.34,0.01-6.67,0.01-10.01l-0.01-19.13c-0.08-5.9-4.44-10.36-10.14-10.39
				C135.44,96.81,135.42,96.81,135.41,96.81z M135.4,141.36c-0.01,0-0.01,0-0.02,0c-2.78-0.01-4.65-2.16-4.65-5.35
				c-0.01-9.45-0.01-18.9,0-28.36c0-1.69,0.51-3.1,1.48-4.06c0.83-0.82,1.93-1.26,3.18-1.26c0,0,0.01,0,0.01,0
				c2.77,0.01,4.64,2.15,4.65,5.34c0.01,3.33,0.01,6.66,0.01,9.99l0,4.28l0,4.16c0,3.31,0.01,6.62-0.01,9.93
				C140.05,139.22,138.18,141.36,135.4,141.36z M135.4,104.25c-0.75,0-1.37,0.24-1.83,0.7c-0.6,0.6-0.92,1.54-0.92,2.71
				c-0.01,9.45-0.01,18.9,0,28.35c0,2.15,1.03,3.43,2.75,3.44c0,0,0.01,0,0.01,0c1.72,0,2.75-1.28,2.75-3.42
				c0.01-3.31,0.01-6.61,0.01-9.92l0-4.16l0-4.28c0-3.33,0-6.66-0.01-9.99C138.15,105.53,137.12,104.25,135.4,104.25
				C135.4,104.25,135.4,104.25,135.4,104.25z"/>
		</g>
		<g>
			<path class="st0" d="M101.95,80.98c0,2.05-1.74,3.76-3.78,3.71c-1.98-0.05-3.61-1.71-3.62-3.69c-0.01-2.05,1.73-3.75,3.78-3.71
				C100.31,77.34,101.94,79,101.95,80.98z"/>
			<path class="st0" d="M98.24,85.65c-0.03,0-0.07,0-0.1,0c-2.5-0.06-4.54-2.14-4.55-4.65c0-1.25,0.49-2.43,1.4-3.32
				c0.91-0.89,2.09-1.39,3.36-1.34c2.51,0.06,4.55,2.14,4.55,4.64l0,0c0,1.23-0.51,2.45-1.41,3.33
				C100.61,85.16,99.43,85.65,98.24,85.65z M98.24,78.25c-0.71,0-1.39,0.28-1.91,0.79c-0.54,0.53-0.83,1.22-0.83,1.95
				c0,1.45,1.23,2.71,2.68,2.74c0.72,0.03,1.43-0.27,1.97-0.8c0.54-0.52,0.84-1.24,0.84-1.96l0,0c0-1.45-1.23-2.7-2.69-2.73
				C98.29,78.25,98.26,78.25,98.24,78.25z"/>
		</g>
	</g>
</g>
</svg>
