<svg version="1.1" id="Layer_1" xmlns="http://www.w3.org/2000/svg" xmlns:xlink="http://www.w3.org/1999/xlink" x="0px" y="0px"
	 viewBox="0 0 165.58 177.77" style="enable-background:new 0 0 165.58 177.77;" xml:space="preserve">
<g>
	<g>
		<path class="st0" d="M155.67,35.49c-11.01-8.36-24.19-14.52-36.94-20.48c-1.53-0.71-3.05-1.42-4.55-2.13
			C104.45,8.3,92.69,3.4,79.21,1.82c-0.81-0.09-1.77-0.22-2.85-0.36c-11.68-1.51-24.6-2.79-30.14,1.23
			c-3.8,2.76-6.08,8.29-8.09,13.16c-0.91,2.21-1.77,4.3-2.67,5.91c-5.69,10.14-10,19.9-14.56,30.25c-0.83,1.86-1.66,3.75-2.51,5.67
			c-1.85,4.14-3.81,8.32-5.71,12.36C9.14,77.61,5.47,85.43,2.39,93.37c-3.37,8.73-2.45,18.36-1.55,27.69c0.3,3.12,0.58,6.07,0.71,9
			c0.07,1.56,1.12,3.36,2.99,3.77c4.07,0.88,5.19,3.69,5.41,5.9c0.42,4.31-2.28,9.15-6.02,10.77c-1.27,0.55-2.22,2.17-2.12,3.61
			c0.11,1.45,0.15,3,0.19,4.64c0.17,6.48,0.36,13.82,4.73,17.21c1.55,1.2,3.52,1.81,5.88,1.81c1.23,0,2.56-0.17,4-0.49
			c6.47-1.49,12.94-3.67,19.19-5.78c5.59-1.89,11.38-3.84,17.12-5.27c7.65-1.91,15.39-3.95,22.88-5.92l5.88-1.54
			c4.22-1.11,8.45-2.2,12.67-3.28c12.41-3.19,25.24-6.48,37.74-10.31c1.94-0.59,4.26-1.13,6.72-1.7c10.18-2.36,22.85-5.3,24.95-15.6
			c0.19-0.47,0.28-0.99,0.27-1.52c-0.2-12.11-0.42-25.84,0.36-39.4c0.11-1.78-1.31-3.62-3.03-3.93c-4.2-0.77-6.66-3.18-6.76-6.6
			c-0.11-3.61,2.59-8.12,7.78-9.39c1.68-0.4,2.92-2,2.95-3.8c0.03-1.63,0.09-3.13,0.13-4.52c0.06-1.74,0.12-3.34,0.12-4.82
			C165.58,46.65,164.24,42,155.67,35.49z M18.38,76.5l0.4-0.85c2.48-5.34,4.93-10.74,7.31-15.97c6.23-13.71,12.67-27.88,19.79-41.55
			c0.34-0.65,0.69-1.42,1.05-2.24c0.9-2.02,2.14-4.78,3.44-5.7C51.83,9.17,54,9.13,56.5,9.1c0.68-0.02,1.37-0.03,2.07-0.06
			c2.11-0.09,4.16-0.13,6.18-0.13c12.08,0,22.52,1.62,31.74,4.91c11.89,4.24,23.39,10.42,34.52,16.39c1.49,0.8,2.97,1.59,4.44,2.38
			c0.86,0.45,1.75,0.92,2.68,1.4c5.61,2.92,12.47,6.49,16.54,11.28c-6.41,2.82-12.85,5.78-19.08,8.64
			c-7.4,3.4-15.05,6.92-22.66,10.21c-3.79-4.58-10-6.86-17.26-6.29c-8.76,0.7-16.46,5.31-19.62,11.74
			c-0.25,0.51-0.29,1.07-0.34,1.79c-0.08,1.13-0.18,2.53-1.1,3.38c-0.45,0.41-0.92,0.58-1.09,0.64c-9.66,3.55-15.93,5.72-18.95,6.76
			c-1.18,0.41-1.93,0.67-2.29,0.8c-11.96,4.51-25.33,8.86-41.92,13.62C12.15,89.93,15.07,83.65,18.38,76.5z M107.36,69.94
			c-0.96,5.47-6.34,10.71-12.25,11.81c-4.66,0.87-8.6-0.68-13.05-5.21c1.27-5.6,7.32-9.58,12.88-10.67
			C100.35,64.81,104.94,66.33,107.36,69.94z M157.56,58.83c-0.21,0.66-0.36,1.21-0.47,1.68c-0.6,0.22-1.19,0.46-1.76,0.74
			c-1.3,0.62-2.55,1.42-3.67,2.3c-1.13,0.88-2.11,1.85-2.86,2.83c-3.78,4.97-3.67,13.11,0.25,18.53c2.17,3.01,5.03,4.64,7.34,5.52
			l-0.28,35.86c-0.63,5.07-14.82,8.48-21.66,10.12c-1.85,0.44-3.45,0.82-4.54,1.16l-1.17,0.36c-6.76,2.07-13.75,4.21-20.68,6.02
			c-21.74,5.67-39.91,10.32-57.18,14.62c-1.42,0.36-2.85,0.7-4.27,1.05c-4.06,0.98-8.26,2-12.35,3.24c-1.7,0.51-3.77,1.44-5.96,2.42
			c-3.92,1.76-8.36,3.76-11.25,3.63c-5.33-0.21-6.04-3.36-6.75-8.49c-0.09-0.59-0.17-1.17-0.26-1.73c-0.02-0.14-0.16-1.21-0.25-2.2
			c0.15-0.17,0.32-0.37,0.51-0.59c5.86-7.17,8.39-13.12,7.73-18.21c-0.45-3.48-2.38-6.49-5.74-8.94c-0.54-0.39-1.19-0.66-1.82-0.92
			c-0.41-0.17-1.11-0.46-1.26-0.63l-0.08-0.09c0,0-0.26-0.26-0.46-0.55c-1.01-1.46-1.1-5.78-1.15-8.37
			c-0.01-0.5-0.02-0.96-0.04-1.37c-0.07-2.11-0.29-3.8-0.47-5.16c-0.36-2.72-0.46-3.89,0.47-5.33c0.21-0.33,0.46-0.64,0.73-0.93
			c8.09-2.82,15.01-5.2,20.4-7.04c10.93-3.74,18.82-6.45,28.84-9.73c6.42-2.11,12.93-4.19,19.34-6.2
			c7.09,6.99,14.77,9.14,22.83,6.38c7.62-2.6,13.7-9.36,15.36-16.98c8.19-3.51,16.39-7.28,24.32-10.93
			c6.15-2.83,12.5-5.74,18.81-8.53C158.44,54.44,158.25,56.57,157.56,58.83z"/>
	</g>
	<g>
		<path class="st0" d="M84.89,22.78c-3.33-4.58-11.13-5.71-14.38-5.99c-8.91-0.41-19.49,2.23-22.43,10.96
			c-1.24,3.66-0.7,7.22,1.51,10.02c2.49,3.15,6.84,5.05,11.38,5.05c0.48,0,0.97-0.02,1.46-0.06c5.74-0.52,11.11-2.95,14.65-4.73
			l0.63-0.32c3.16-1.57,7.48-3.72,8.45-7.87C86.78,27.17,86.36,24.79,84.89,22.78z M55.79,31.32c0-0.01,0-0.01,0-0.02
			c0-1.51,1-3.16,2.54-4.2c2.41-1.64,5.75-2.44,10.12-2.44c0.6,0,1.22,0.01,1.86,0.04c4.2,0.36,7.02,1.54,7.32,2.47
			c0.12,0.38-0.29,1.29-1.83,2.6c-2.27,1.91-6.4,3.59-11.63,4.72c-2.24,0.5-4.79,0.92-6.65-0.31C56.38,33.44,55.8,32.47,55.79,31.32
			z"/>
	</g>
	<g>
		<path class="st0" d="M58.06,61.28c-2.6-3.5-8.26-4.33-10.63-4.53c-6.48-0.31-14.16,1.7-16.32,8.28c-0.94,2.87-0.49,5.68,1.27,7.9
			c1.91,2.41,5.22,3.88,8.63,3.88c0.34,0,0.68-0.02,1.02-0.05c4.1-0.35,7.9-2.07,10.41-3.33l0.22-0.11c2.45-1.23,5.8-2.91,6.52-6.33
			C59.64,64.82,59.26,62.9,58.06,61.28z M50.61,65.3c-0.09,0.1-0.22,0.23-0.4,0.38c-1.36,1.19-3.98,2.24-7.37,2.97
			c-1.32,0.29-2.68,0.52-3.45-0.01c-0.52-0.36-0.58-0.68-0.58-0.89c0-0.54,0.45-1.22,1.13-1.69c1.72-1.19,4.07-1.44,6.01-1.44
			c0.45,0,0.88,0.02,1.28,0.04C49.25,64.83,50.19,65.11,50.61,65.3z"/>
	</g>
	<g>
		<path class="st0" d="M132.03,36.84c-2.92-3.99-9.53-4.95-12.29-5.19c-7.54-0.35-16.5,1.94-18.99,9.46
			c-1.07,3.22-0.58,6.36,1.38,8.83c2.16,2.74,5.92,4.39,9.83,4.39c0.4,0,0.8-0.02,1.21-0.06c5.6-0.49,18.43-3.99,20.03-11.14
			C133.74,40.75,133.34,38.63,132.03,36.84z M108.45,44.2c0-0.97,0.68-2.07,1.75-2.8c2.8-1.91,6.7-1.96,9.34-1.83
			c3.56,0.3,5.05,1.1,5.21,1.4c0,0.01-0.05,0.46-1.13,1.39c-1.74,1.5-5.02,2.82-9.23,3.74c-1.7,0.37-3.61,0.69-4.86-0.15
			C108.82,45.47,108.46,44.88,108.45,44.2z"/>
	</g>
	<g>
		<path class="st0" d="M132.22,107.33c-3.04-4.32-7.61-5.15-11.68-5.4h-0.11l-0.12,0.01c-8.91,0.82-18.25,7.27-18.44,16.65
			c-0.21,9.87,9.01,16.6,17.66,17.17c0.32,0.03,0.65,0.04,0.97,0.04c7.77,0,14.59-6.17,15.76-14.45
			C136.93,116.58,135.69,112.25,132.22,107.33z M126.44,124.9c-1.13,1.57-3.26,3.34-6.99,2.89c-4.9-0.6-9.85-4.17-9.67-9.11
			c0.19-5.02,6.4-8.38,10.7-8.83c3.96,0.28,5.88,2.62,6.79,4.54C128.84,117.71,128.5,122.03,126.44,124.9z"/>
	</g>
	<g>
		<path class="st0" d="M65.65,114.8c-1.1-6.55-6.63-11.09-13.34-11.09c-0.34,0-0.68,0.02-1.03,0.04c-0.15,0.01-0.28,0.04-0.38,0.07
			c-0.12,0-0.33,0.01-0.55,0.06c-5.18,1.32-9.61,4.38-11.83,8.19c-1.66,2.84-2.07,6.04-1.19,9.27c1.16,4.25,4.46,8.43,8.41,10.63
			c1.99,1.11,4.04,1.67,6.04,1.67c1.02,0,2.02-0.14,3-0.43C62.15,131.03,66.76,121.36,65.65,114.8z M57.93,117.15
			c0,3.01-2.03,5.81-4.09,7.51c-0.91,0.75-1.89,1-3,0.76c-2.2-0.48-4.35-2.77-5.34-4.79c-0.74-1.5-0.81-2.87-0.22-4.18
			c0.91-2.02,3.53-3.88,6.7-4.79c2.01,0,4.66,0.83,5.54,3.21C57.8,115.63,57.93,116.4,57.93,117.15z"/>
	</g>
</g>
</svg>
