<?xml version="1.0" encoding="utf-8"?>
<!-- Generator: Adobe Illustrator 24.0.2, SVG Export Plug-In . SVG Version: 6.00 Build 0)  -->
<svg version="1.1" id="Layer_1" xmlns="http://www.w3.org/2000/svg" xmlns:xlink="http://www.w3.org/1999/xlink" x="0px" y="0px"
	 viewBox="0 0 150.4 150.35" style="enable-background:new 0 0 150.4 150.35;" xml:space="preserve">
<style type="text/css">
	.st0{fill:#593B21;}
</style>
<g>
	<g>
		<path class="st0" d="M74.95,150.35C33.5,150.28-0.06,116.53,0,75.11C0.06,33.69,33.9,0,75.43,0c20,0.02,38.8,7.89,52.99,22.16l0,0
			c14.19,14.27,22,33.15,21.98,53.17c-0.03,20.08-7.91,38.94-22.19,53.11C113.97,142.57,95.05,150.35,74.95,150.35z M75.47,6.01
			c-38.26,0-69.4,31-69.45,69.11c-0.05,38.11,30.81,69.16,68.81,69.22c18.63,0,36.04-7.16,49.15-20.17
			c13.14-13.04,20.39-30.38,20.42-48.85c0.02-18.41-7.16-35.79-20.23-48.92C111.11,13.27,93.81,6.03,75.47,6.01z M74.77,137.47
			h-0.36c-34.11-0.19-61.7-28.31-61.53-62.68c0.08-16.56,6.64-32.13,18.47-43.85c11.75-11.64,27.27-18.06,43.7-18.06h0.3
			c16.73,0.09,32.39,6.66,44.12,18.5c11.73,11.86,18.14,27.58,18.05,44.28c-0.08,16.63-6.69,32.21-18.62,43.88l0,0
			C107.1,131.1,91.43,137.47,74.77,137.47z M75.34,18.9h-0.28c-14.83,0-28.85,5.79-39.47,16.31C24.89,45.8,18.97,59.86,18.9,74.82
			c-0.16,31.06,24.76,56.46,55.53,56.64h0.34c15.08,0,29.25-5.76,39.93-16.21l0,0c10.77-10.54,16.74-24.61,16.81-39.62
			c0.08-15.09-5.71-29.3-16.31-40.02C104.6,24.91,90.45,18.98,75.34,18.9z"/>
	</g>
	<g>
		<path class="st0" d="M98,108.03c-2.7,0-5.23-1.04-7.12-2.94L75.2,89.42l-15.69,15.67C55.61,109,49.23,109,45.3,105.09
			c-3.92-3.94-3.92-10.33-0.01-14.24l15.68-15.67L45.29,59.5c-3.92-3.92-3.92-10.31,0-14.23c1.91-1.91,4.43-2.95,7.12-2.95
			c0.01,0,0.01,0,0.02,0c2.69,0,5.21,1.06,7.1,2.96L75.2,60.96l15.67-15.68c1.89-1.9,4.42-2.96,7.12-2.96c2.7,0,5.22,1.05,7.12,2.96
			c1.9,1.9,2.95,4.43,2.95,7.12c0,2.67-1.05,5.2-2.96,7.11L89.43,75.19l15.67,15.67c1.9,1.89,2.95,4.41,2.96,7.1
			c0,2.69-1.04,5.23-2.95,7.14C103.21,106.98,100.68,108.03,98,108.03z M75.21,80.92l19.92,19.92c1.52,1.51,4.19,1.53,5.73,0
			c0.77-0.77,1.19-1.79,1.19-2.88c0-1.08-0.42-2.09-1.19-2.85l-0.01-0.01L80.94,75.19l19.92-19.94c0.77-0.77,1.2-1.79,1.2-2.86
			c0-1.08-0.43-2.1-1.2-2.87c-1.53-1.54-4.2-1.54-5.72-0.01L75.21,69.46L55.27,49.52c-0.77-0.77-1.78-1.19-2.85-1.19c0,0,0,0-0.01,0
			c-1.08,0-2.1,0.42-2.87,1.19c-1.58,1.58-1.58,4.15,0,5.73l19.94,19.94L49.54,95.11c-1.57,1.57-1.57,4.15,0.01,5.73
			c1.57,1.57,4.15,1.57,5.72-0.01L75.21,80.92z"/>
	</g>
</g>
</svg>
