<?xml version="1.0" encoding="utf-8"?>
<!-- Generator: Adobe Illustrator 24.0.2, SVG Export Plug-In . SVG Version: 6.00 Build 0)  -->
<svg version="1.1" id="Layer_1" xmlns="http://www.w3.org/2000/svg" xmlns:xlink="http://www.w3.org/1999/xlink" x="0px" y="0px"
	 viewBox="0 0 399.43 399.43" style="enable-background:new 0 0 399.43 399.43;" xml:space="preserve">
<style type="text/css">
	.st0{fill:#593B21;}
</style>
<g id="O7amWx.tif">
	<g>
		<path class="st0" d="M4.91,86.99c0.62-2.17,1.18-4.36,1.86-6.52c5.2-16.68,20.61-28.34,38.09-28.68
			c8.28-0.16,16.56-0.03,25.4-0.03c0-2.39-0.03-4.5,0.01-6.62c0.11-6.67,3-9.63,9.59-9.68c7.02-0.06,14.05-0.1,21.07,0.04
			c2.22,0.04,3.04-0.76,3.66-2.82c5.36-18.02,20.87-29.88,39.01-29.98c18.41-0.1,34.16,11.61,39.56,29.74
			c0.77,2.59,1.92,3.08,4.26,3.04c6.77-0.11,13.54-0.07,20.31-0.03c6.94,0.04,9.63,2.81,9.7,9.84c0.02,2.01,0,4.03,0,6.46
			c8.68,0,16.95-0.22,25.2,0.05c15.35,0.5,27.04,7.5,34.91,20.68c3.89,6.52,5.4,13.74,5.41,21.27c0.03,31.67,0.02,63.34-0.01,95.01
			c0,1.51-0.12,3.1-0.59,4.52c-1.16,3.53-3.81,5.35-7.47,5.53c-3.53,0.17-6.86-2.15-7.79-5.6c-0.49-1.81-0.58-3.78-0.58-5.68
			c-0.03-30.78-0.39-61.56,0.13-92.33c0.27-15.6-10.78-28.01-27.56-27.25c-6.99,0.32-14.01,0.05-21.65,0.05c0,2.55,0.02,4.79,0,7.03
			c-0.15,15.43-10.39,25.71-25.74,25.72c-31.8,0.03-63.61,0.03-95.41,0c-15.52-0.01-25.86-10.38-26-25.97c-0.02-2.13,0-4.25,0-6.12
			c-10.3,0-20.18-0.85-29.84,0.23c-10.31,1.15-17.8,10.66-19.04,21.66c-0.11,1.01-0.16,2.04-0.16,3.06
			c-0.01,70.11-0.03,140.22,0.01,210.33c0.01,12.19,6.92,21.69,17.95,24.66c3.03,0.82,6.3,1.05,9.46,1.05
			c36.02,0.07,72.04,0.04,108.06,0.05c1.28,0,2.56-0.03,3.83,0.06c4.6,0.32,7.68,3.44,7.78,7.83c0.1,4.51-3.07,7.97-7.72,8.35
			c-1.02,0.08-2.04,0.04-3.06,0.04c-36.53,0-73.06-0.27-109.59,0.1c-24.03,0.24-40.15-17.12-42.44-34.41
			c-0.04-0.33-0.38-0.62-0.58-0.93C4.91,236.16,4.91,161.57,4.91,86.99z M201.03,52.23c-0.49-0.23-0.71-0.42-0.93-0.42
			c-6.64-0.04-13.27-0.07-19.91-0.08c-9.17-0.01-11.18-1.84-11.99-10.93c-1.16-13.04-13.87-23.28-26.84-21.61
			c-12.68,1.63-20.73,10.39-22.05,23.98c-0.56,5.79-3.4,8.44-9.15,8.55c-1.66,0.03-3.32,0.01-4.98,0.01c-6.08,0-12.16,0-18.46,0
			c0,7.53-0.01,14.54,0,21.54c0.01,8.69,2.5,11.21,11.13,11.21c30.76,0.01,61.53,0.01,92.29-0.01c1.52,0,3.08-0.05,4.56-0.37
			c3.65-0.79,6.1-3.24,6.23-6.84C201.24,68.9,201.03,60.5,201.03,52.23z"/>
		<path class="st0" d="M389.19,218.34c-7.18-7.26-14.37-14.52-21.67-21.66c-10.55-10.31-25.21-10.43-35.59-0.08
			c-42.04,41.93-84.01,83.93-125.93,125.98c-1.53,1.53-2.76,3.79-3.2,5.9c-3.76,18.1-7.32,36.24-10.91,54.38
			c-0.23,1.2-1.37,4.39,0.02,7.48c0.89,1.97,2.78,3.91,5.38,4.72c2.17,0.67,4.02,0.31,4.86,0.09c6.8-1.27,50.52-9.51,54.74-11.56
			c0.15-0.07,0.29-0.14,0.29-0.14v-0.01c0.15-0.07,6.48-3.47,7.2-3.89c2.56-1.49,19.25-14.85,39.52-35.99
			c42.58-42.67,73.59-75.35,85.16-88.53c2.79-3.17,8.34-9.76,8.33-18.44C397.38,230.21,394.65,223.85,389.19,218.34z M377.34,243.63
			c-40.69,40.72-81.4,81.42-122.17,122.07c-1.24,1.24-3.13,2.18-4.88,2.55c-12.09,2.57-24.22,4.97-36.35,7.4c-0.01,0-0.01,0-0.02,0
			c-0.25,0.04-0.5,0.08-0.75,0.13c-0.2,0.03-0.5,0.05-0.86-0.02c-0.24-0.05-0.83-0.17-1.3-0.71c0,0-0.54-0.61-0.54-1.5
			c0-0.12,0.01-0.25,0.03-0.37c0.02-0.06,0.02-0.12,0.04-0.18c0-0.02,0-0.02,0.01-0.04c0.04-0.18,0.08-0.38,0.12-0.57
			c2.36-11.72,3.91-16.78,5.23-27.22c1.13-8.92,5.43-15.21,11.66-21.37c38.22-37.78,76.12-75.88,114.12-113.87
			c6.23-6.23,9.81-6.23,16.07,0.02c6.5,6.5,13.02,12.98,19.49,19.5C382.21,234.49,382.26,238.71,377.34,243.63z"/>
		<path class="st0" d="M143.62,149.82c-26.43,0-52.87,0.01-79.3-0.03c-1.75,0-3.61-0.14-5.24-0.72c-3.54-1.26-5.56-4.95-5.03-8.55
			c0.53-3.66,3.43-6.48,7.18-6.87c1.39-0.15,2.81-0.11,4.21-0.11c52.36,0,104.72-0.01,157.07,0c7.49,0,11.46,2.91,11.31,8.29
			c-0.14,5.28-3.97,7.99-11.28,7.99C196.23,149.82,169.92,149.82,143.62,149.82z"/>
		<path class="st0" d="M143.95,182.59c26.82,0,53.64-0.02,80.45,0.02c6.28,0.01,10.19,4.08,9.24,9.39c-0.67,3.75-3.43,6.38-7.26,6.8
			c-1.26,0.14-2.55,0.07-3.83,0.07c-52.49,0-104.97,0-157.46,0c-0.26,0-0.51,0-0.77,0c-6.47-0.02-10.32-3.05-10.35-8.14
			c-0.03-5.16,3.69-8.14,10.28-8.14C90.83,182.58,117.39,182.58,143.95,182.59z"/>
		<path class="st0" d="M144.01,231.63c26.05,0,52.1,0,78.15,0c1.4,0,2.82-0.04,4.21,0.09c4.22,0.4,7.34,3.74,7.43,7.86
			c0.09,3.9-2.78,7.42-6.73,8.17c-0.99,0.19-2.03,0.16-3.05,0.16c-53.38,0.01-106.76,0.01-160.14-0.02c-1.51,0-3.09-0.12-4.5-0.59
			c-3.59-1.2-5.73-4.7-5.37-8.35c0.39-3.83,3.34-6.81,7.25-7.21c1.39-0.14,2.81-0.11,4.21-0.11
			C91.65,231.63,117.83,231.63,144.01,231.63z"/>
	</g>
</g>
</svg>
