<svg width="282" height="228" viewBox="0 0 282 228" fill="none" xmlns="http://www.w3.org/2000/svg">
<g clip-path="url(#clip0_213_2)">
<path d="M267.1 227.7C182.7 227.7 98.2001 227.7 13.8001 227.7C13.5001 227.6 13.1001 227.5 12.8001 227.4C9.2001 226.9 6.3001 225.3 3.9001 222.6C1.7001 220.1 0.700098 217.1 0.100098 213.9C0.100098 212.8 0.100098 211.7 0.100098 210.5C0.700098 207.1 2.1001 204 4.0001 201.2C5.5001 198.8 7.0001 196.3 8.5001 193.9C19.1001 177.2 29.6001 160.5 40.3001 143.8C48.4001 131.1 56.6001 118.4 64.7001 105.7C79.1001 83 93.7001 60.3 108.2 37.6C114.6 27.5 120.9 17.4 127.4 7.39999C133.6 -2.20001 146.7 -2.40001 153.3 6.89999C154.8 8.99999 156 11.3 157.4 13.5C166.2 27.3 174.9 41.2 183.7 55C196.7 75.4 209.8 95.9 222.8 116.3C231.4 129.7 240 143.1 248.6 156.5C256.4 168.7 264.2 180.8 271.9 193C275.4 198.6 279.9 203.8 281.2 210.7C281.2 211.8 281.2 212.9 281.2 214.1C281.1 214.6 281 215.1 280.9 215.6C279.8 220.3 277.2 223.9 272.8 226C270.9 226.7 268.9 227.1 267.1 227.7ZM124.4 71.5C124.9 76.9 125.2 81.2 125.6 85.5C126.4 93.9 127.1 102.2 127.9 110.5C128.8 119.8 129.6 129.1 130.5 138.4C131.1 144.6 131.6 150.8 132.3 156.9C132.8 161.5 136.5 164.5 141 164.3C145.1 164.2 148.5 160.8 148.9 156.4C149.9 145.6 151 134.8 152 124.1C152.7 116.7 153.4 109.2 154.1 101.8C154.6 96.4 155.2 91 155.7 85.6C156.4 78.7 157.1 71.8 155.9 64.9C154.5 57.1 150.9 51.5 142 50.8C134.7 50.2 128.3 52.9 126.2 60.9C125.2 64.7 124.9 68.6 124.4 71.5ZM155.9 190C156 182.6 149.8 176.2 142.4 176.1C134.8 176 128.4 182.2 128.3 189.7C128.2 197.5 134.2 203.6 142 203.7C149.5 203.9 155.8 197.6 155.9 190Z" fill="#6E492A"/>
</g>
<defs>
<clipPath id="clip0_213_2">
<rect width="281.1" height="227.7" fill="white"/>
</clipPath>
</defs>
</svg>
