<?xml version="1.0" encoding="utf-8"?>
<!-- Generator: Adobe Illustrator 24.0.2, SVG Export Plug-In . SVG Version: 6.00 Build 0)  -->
<svg version="1.1" id="Layer_1" xmlns="http://www.w3.org/2000/svg" xmlns:xlink="http://www.w3.org/1999/xlink" x="0px" y="0px"
	 viewBox="0 0 150.4 150.35" style="enable-background:new 0 0 150.4 150.35;" xml:space="preserve">
<style type="text/css">
	.st0{fill:#593B21;}
</style>
<g>
	<g>
		<path class="st0" d="M128.42,22.16C114.22,7.88,95.42,0.02,75.48,0h-0.04C33.9,0,0.06,33.69,0,75.11s33.49,75.17,74.8,75.24h0.14
			c20.11,0,39.02-7.78,53.27-21.92c14.28-14.17,22.16-33.03,22.19-53.1C150.42,55.32,142.62,36.44,128.42,22.16z M118.53,119.15
			c-11.72,11.48-27.26,17.78-43.78,17.78h-0.37c-33.78-0.19-61.13-28.07-60.96-62.14C13.5,58.37,20,42.94,31.73,31.32
			c11.66-11.55,27.03-17.9,43.32-17.9h0.31c16.57,0.09,32.1,6.6,43.73,18.34c11.62,11.75,17.98,27.34,17.89,43.9
			C136.9,92.14,130.34,107.59,118.53,119.15z"/>
	</g>
	<g>
		<path class="st0" d="M92.27,71.73c-1.85,2.25-4.01,4.27-6.1,6.22c-0.51,0.48-1.02,0.96-1.53,1.44c-3.49,3.32-4.87,6.14-4.74,9.76
			c0.06,1.81-0.57,3.49-1.78,4.71c-1.23,1.24-3,1.95-4.88,1.95h-0.18c-3.69-0.09-6.29-2.89-6.49-6.96
			c-0.32-6.75,2.28-12.74,7.96-18.31c1.03-1.01,2.07-1.99,3.11-2.98c0.95-0.9,1.89-1.79,2.82-2.69c2.29-2.24,4.25-4.8,2.98-8.27
			c-1.2-3.28-3.8-5.16-7.94-5.75c-6.46-0.93-10.13,1.36-12.27,7.62c-1.26,3.7-4.86,5.67-8.39,4.59c-3.57-1.09-5.45-4.64-4.48-8.42
			c2.81-10.88,11.98-17.38,24.56-17.38h0.04l0.05,0.01c6.7,0.32,15.69,2.91,20.46,13.44C98.76,57.95,97.65,65.22,92.27,71.73z"/>
	</g>
	<g>
		<path class="st0" d="M79.96,108.43c-0.1,3.66-3.04,6.5-6.69,6.5h-0.08c-1.85-0.02-3.49-0.76-4.68-1.96s-1.91-2.85-1.91-4.7
			c-0.01-3.74,2.85-6.58,6.64-6.59h0.03c1.87,0,3.6,0.71,4.86,2.01C79.36,104.95,80.01,106.64,79.96,108.43z"/>
	</g>
</g>
</svg>
