<?xml version="1.0" encoding="utf-8"?>
<!-- Generator: Adobe Illustrator 24.0.2, SVG Export Plug-In . SVG Version: 6.00 Build 0)  -->
<svg version="1.1" id="Layer_1" xmlns="http://www.w3.org/2000/svg" xmlns:xlink="http://www.w3.org/1999/xlink" x="0px" y="0px"
	 viewBox="0 0 151.32 150.35" style="enable-background:new 0 0 151.32 150.35;" xml:space="preserve">
<style type="text/css">
	.st0{fill:#593B21;}
</style>
<g>
	<g>
	</g>
	<g>
		<g>
			<path class="st0" d="M97.59,69.38c-2.06,2.52-4.55,4.86-6.73,6.91l-0.26,0.25l-1.76,1.63c-3.7,3.54-5.09,6.36-4.97,10.11
				c0.07,2.4-0.77,4.62-2.33,6.23c-1.64,1.63-3.96,2.56-6.39,2.56h-0.14c-4.9-0.12-8.36-3.74-8.6-9.03
				c-0.39-8.01,2.66-15.07,9.36-21.6c0.94-0.92,1.91-1.86,2.91-2.79l0.61-0.6l0.06-0.05c1.06-1,2.11-2,3.15-3.01
				c2.65-2.6,4.2-4.97,3.06-8.07c-0.75-2.07-2.42-4.93-8.01-5.73c-1.05-0.15-1.97-0.22-2.83-0.22c-6.19,0-8.4,4.07-9.76,8.05
				c-1.31,3.85-4.6,6.34-8.38,6.34c-0.87,0-1.74-0.14-2.62-0.4c-4.58-1.4-7.11-6.12-5.86-10.96c3.31-12.87,14.12-20.55,28.91-20.56
				l0.44,0.01c11.07,0.62,19.56,6.27,23.92,15.92C105.25,52.84,103.9,61.73,97.59,69.38z"/>
		</g>
	</g>
	<g>
		<g>
			<path class="st0" d="M83.95,114.23c-0.06,2.31-1,4.45-2.65,6.06c-1.61,1.59-3.79,2.46-6.1,2.46c-2.43-0.02-4.6-0.91-6.26-2.58
				c-1.61-1.64-2.51-3.83-2.51-6.16c0-2.36,0.88-4.55,2.5-6.15c1.61-1.6,3.82-2.49,6.2-2.49c2.52,0,4.74,0.91,6.42,2.64
				C83.16,109.68,84.02,111.88,83.95,114.23z"/>
		</g>
	</g>
</g>
<g>
	<g>
		<path class="st0" d="M127.71,22.87c-7.06-7.11-15.26-12.61-24.18-16.35C94.62,2.8,84.98,0.85,75.07,0.83
			C33.72,0.83,0.06,34.34,0,75.53c-0.06,41.19,33.3,74.75,74.37,74.82c20.14,0,38.96-7.74,53.14-21.8
			c14.19-14.09,22.03-32.84,22.06-52.8C149.6,55.85,141.83,37.06,127.71,22.87z M117.47,118.9v0.01
			c-11.54,11.29-26.86,17.51-43.16,17.51h-0.37c-33.26-0.19-60.19-27.65-60.02-61.21C14,59.04,20.41,43.84,31.96,32.39
			c11.48-11.37,26.63-17.64,42.67-17.64h0.29c16.33,0.09,31.64,6.52,43.09,18.07c11.45,11.58,17.72,26.95,17.63,43.26
			C135.56,92.3,129.12,107.51,117.47,118.9z"/>
	</g>
</g>
</svg>
