<svg  xmlns="http://www.w3.org/2000/svg" xmlns:xlink="http://www.w3.org/1999/xlink" 
	 viewBox="0 0 191.6 175.82" style="enable-background:new 0 0 191.6 175.82;" xml:space="preserve">
<g>
	<g>
		<path class="st0" d="M183.2,75.84h-10.03c0.1-0.7,0.2-1.39,0.3-2.08c0.34-2.36,0.67-4.59,0.85-6.89
			c0.59-7.23-0.48-13.28-3.25-18.5c-2.43-4.58-5.86-7.11-10.18-7.52c-1.9-0.18-3.83,0.11-5.7,0.4c-0.59,0.09-1.18,0.18-1.77,0.26
			l-0.17-0.46c-2.47-6.73-5.59-11.68-9.81-15.58c-8.23-7.62-19.69-8.18-28.55-1.41c-0.04-0.16-0.07-0.33-0.11-0.49
			c-0.43-1.89-0.62-3.03,0.49-4.28c0.71-0.8,0.72-2.03,0.74-3.01v-0.11c0.05-2.92,0.04-5.88,0.02-8.74V6.52
			c-0.02-4.11-2.25-6.41-6.29-6.46c-5.92-0.08-11.38-0.08-16.69,0c-3.88,0.06-6.06,2.27-6.11,6.21l-0.02,1.26
			c-0.04,2.7-0.09,5.49,0.06,8.25c0.06,1.05,0.41,2.02,0.75,2.97c0.16,0.45,0.32,0.91,0.45,1.37l0.07,0.25
			c0.12,0.44,0.25,0.92,0.2,1.22c-0.25,1.31-0.55,2.65-0.84,3.95c-0.25,1.08-0.49,2.16-0.71,3.25c-0.19,0.95-0.39,1.19-1.63,1.2
			c-9.75-0.07-19.66-0.05-29.24-0.04l-6.15,0.01c-0.76,0-1.62,0-2.44,0.23c-1.8,0.5-2.79,1.87-2.72,3.75
			c0.07,1.9,1.15,3.19,2.98,3.55c0.83,0.16,1.67,0.18,2.39,0.18c8.64,0.01,17.28,0.01,25.92,0.01H83c-0.42,0.75-0.8,1.4-1.17,2.06
			c-1.94,3.44-2.93,7.04-2.95,10.7c0,0.6,0.01,1.2,0.01,1.8c0.02,1.28,0.04,2.6-0.05,3.87c-0.05,0.67-0.33,1.42-0.7,1.86
			c-3.17,3.8-4.88,7.74-5.22,12.07c-0.12,1.54-0.09,3.11-0.06,4.62c0.01,0.36,0.02,0.72,0.02,1.08H24.22l-0.01-10.93
			c0-8.88,0-17.75-0.03-26.63c0-0.3,0.05-0.41,0.05-0.43c0.03-0.02,0.2-0.08,0.69-0.08c3.24,0.02,6.42,0.02,9.45,0
			c4.12-0.03,4.75-2.41,4.76-3.83c0-1.06-0.34-1.97-1-2.63c-0.81-0.83-2.06-1.25-3.72-1.26c-2.43-0.01-4.86-0.01-7.3,0h-1.77
			c-5.88,0-8.74,2.83-8.74,8.65c-0.01,8.38-0.01,16.76-0.01,25.14l0.01,12.1c-0.57,0.01-1.12,0.02-1.67,0.03
			c-1.88,0.03-3.66,0.05-5.42-0.06c-4.54-0.3-7.72,1.52-9.43,5.41L0,81.42v15.24l0.09,0.2c1.79,3.82,4.78,5.6,8.93,5.28h0.15
			c0.04,0.14,0.06,0.41,0.07,0.64l0.13,1.66c0.12,1.6,0.24,3.2,0.38,4.8c0.35,3.75,0.7,7.49,1.05,11.24
			c0.48,5.09,0.96,10.18,1.42,15.27c0.27,2.95,0.52,5.91,0.77,8.86c0.5,5.79,1.01,11.79,1.64,17.67c0.2,1.92,0.74,4.73,2.14,7.19
			c2.43,4.27,6.57,6.35,12.64,6.35c0.01,0,0.02,0,0.02,0c28.19-0.02,56.38-0.02,84.57-0.02h48.17c0.97,0,2-0.07,3.25-0.22
			c5.77-0.66,10.62-5.35,11.29-10.9c0.47-3.91,0.81-7.9,1.14-11.75c0.13-1.49,0.26-2.99,0.4-4.48c0.32-3.59,0.64-7.18,0.96-10.77
			c0.34-3.78,0.68-7.55,1.03-11.33c0.2-2.26,0.41-4.52,0.63-6.79c0.49-5.2,0.99-10.57,1.4-15.87c0.12-1.54,0.2-1.63,1.49-1.6
			c2.28,0.02,4.19-0.67,5.58-2.04c1.47-1.44,2.25-3.51,2.25-5.98c0.01-2.95,0.01-5.89,0.01-8.83v-0.99
			C191.59,78.84,188.61,75.85,183.2,75.84z M155.83,51.59l-0.15-1c-0.18-1.24-0.04-1.5,1.03-1.84c2.96-0.96,5.08-0.31,6.86,2.1
			c1.72,2.3,2.68,5.15,3.03,8.97c0.5,5.48,0.03,10.7-1.38,15.53c-0.04,0.12-0.25,0.35-0.39,0.44c-2.76,0.07-5.48,0.06-8.11,0.05
			h-1.13c0.1-1.24,0.22-2.47,0.33-3.7c0.34-3.64,0.69-7.41,0.78-11.13C156.77,57.85,156.29,54.67,155.83,51.59z M112.64,57.79
			c1.02-0.92,1.97-1.79,3.01-2.54c2.72-1.98,3.1-3.78,1.36-6.43c-3.25-4.96-3.48-9.95-0.68-14.84c2.82-4.93,7.17-7.25,12.97-6.89
			c4.64,0.28,8.43,2.6,11.93,7.31c3.55,4.77,5.8,10.47,7.1,17.95c1.39,7.99,1.12,15.41-0.82,22.66c-0.23,0.87-0.32,0.87-0.96,0.86
			c-1.86-0.04-3.75-0.05-5.63-0.05c-1.16,0-2.32,0.01-3.47,0.01c-0.8,0-1.61,0.01-2.42,0.01c0.03-0.27,0.06-0.55,0.08-0.81
			c0.17-1.62,0.33-3.15,0.58-4.63c0,0,0.1-0.27,0.82-0.78c4.01-2.83,6.88-6.52,8.52-10.96c0.53-1.42,0.55-2.73,0.06-3.77
			c-0.4-0.86-1.13-1.5-2.09-1.84c-0.97-0.35-3.39-0.77-5.09,2.73c-0.69,1.43-1.51,2.84-2.3,4.21l-0.14-0.79
			c-0.55-2.98-1.11-6.05-1.6-9.05c0.01-0.13,0.19-0.48,0.31-0.69c0.07-0.14,0.14-0.27,0.21-0.4c0.42-0.88,0.87-1.76,1.31-2.63
			c0.91-1.79,1.85-3.64,2.64-5.54c0.52-1.25,0.55-2.46,0.06-3.48c-0.43-0.92-1.25-1.61-2.31-1.93c-2.22-0.68-4.03,0.4-4.94,2.98
			c-0.24,0.66-0.49,1.3-0.76,1.99c-0.53-1.05-1.01-2.02-1.53-2.97c-0.67-1.24-1.59-2.06-2.67-2.36c-0.92-0.26-1.89-0.12-2.81,0.41
			c-1.99,1.15-2.47,3.27-1.25,5.52c2.26,4.15,3.73,8.35,4.49,12.76c-0.65-0.61-1.29-1.23-1.93-1.87c-0.99-0.98-2.17-1.49-3.37-1.41
			c-1.02,0.06-1.95,0.57-2.62,1.42c-0.88,1.13-1.55,2.93,0.3,5.11c2.4,2.84,5.25,5.05,8.45,6.57c0.23,0.11,0.51,0.35,0.61,0.5
			c-0.12,3.22-0.31,6.51-0.5,9.69l-0.12,1.93h-10.67c0.78-6.49-0.81-12.18-4.84-17.32C112.17,58.22,112.4,58,112.64,57.79z
			 M94.68,7.83h2.93c0.01,0.1,0.02,0.21,0.02,0.31c0.12,1.76,0.29,4.7,4.14,4.59c2.6-0.08,3.24-2.17,3.55-4.84h2.95v6.71H94.68V7.83
			z M88.39,43.65c5.02-9.1,5.99-11.68,7.69-21.17h10.62l0.4,1.66c0.59,2.44,1.2,4.96,1.74,7.42c0.01,0.12-0.15,0.47-0.24,0.68
			l-0.13,0.32c-2.36,5.81-2.24,11.63,0.36,17.28c0.35,0.76,0.33,0.77-0.09,1.07c-0.8,0.56-1.55,1.19-2.33,1.85
			c-0.19,0.16-0.39,0.33-0.59,0.5c-3.44-1.94-7.08-2.91-10.82-2.91c-2.82,0-5.69,0.55-8.56,1.66
			C86.39,48.82,87.02,46.13,88.39,43.65z M86.21,60.93c4.85-3.68,11.54-3.86,16.66-0.47c5.03,3.34,7.3,9.15,6.03,15.3H80.82
			C79.36,70.4,81.48,64.52,86.21,60.93z M184.05,93.95c0,0.3-0.05,0.42-0.04,0.43c-0.02,0-0.11,0.04-0.34,0.02
			c-0.39-0.01-0.78-0.01-1.18,0H166.5c-28.36,0-56.72,0-85.07,0.01c-0.96,0-1.89,0.02-2.8,0.24c-1.78,0.42-2.83,1.8-2.81,3.69
			c0.03,1.9,1.09,3.22,2.92,3.61c0.87,0.19,1.74,0.19,2.6,0.19c26.43,0.01,52.87,0.01,79.31,0.01h14.08l-0.05,0.72
			c-0.08,1.22-0.16,2.4-0.27,3.58c-0.45,4.9-0.91,9.8-1.37,14.7c-0.49,5.29-0.98,10.58-1.47,15.86c-0.77,8.33-1.56,16.94-2.29,25.42
			c-0.31,3.64-2.44,5.64-6,5.64c-44.99,0.01-89.98,0.01-134.97,0c-3.54,0-5.67-2-6-5.63c-0.66-7.38-1.35-14.75-2.03-22.13
			c-0.4-4.22-0.79-8.45-1.18-12.67c-0.73-7.91-1.44-15.82-2.16-23.74l-0.12-1.31c-0.01-0.14-0.01-0.28-0.01-0.44h48.08
			c1.31,0,5.28,0,5.34-3.8c0.02-1.09-0.3-1.97-0.95-2.63c-0.88-0.9-2.31-1.32-4.48-1.32H9.07c-0.59,0-1.2,0-1.47-0.05
			c-0.05-0.27-0.05-0.9-0.05-1.52c0-0.83,0.01-1.66,0.01-2.49c0.02-1.92,0.03-3.91-0.04-5.87c-0.02-0.69,0.12-0.86,0.15-0.89
			c0.03-0.02,0.2-0.15,0.84-0.1c0.33,0.03,0.66,0.02,0.99,0.02l0.39-0.01h171.82c0.21,0,0.43-0.02,0.66-0.03
			c0.25-0.03,0.63-0.06,0.74-0.01c0.38,0.18,0.75,0.48,0.87,0.64c0.08,2.23,0.08,4.5,0.07,6.7
			C184.05,91.84,184.04,92.9,184.05,93.95z"/>
	</g>
	<g>
		<path class="st0" d="M61.13,47.02c-0.14-3.52-2.35-5.73-5.77-5.78c-6.28-0.09-12.83-0.09-19.46,0c-3.35,0.04-5.61,2.23-5.77,5.56
			c-0.14,3.19-0.14,6.27,0.02,9.17c0.17,3.32,2.53,5.49,6.01,5.52c1.25,0.01,2.49,0.02,3.74,0.02c0.95,0,1.9-0.01,2.86-0.01h5.59
			c2.17,0,4.34,0.01,6.52-0.01c3.79-0.02,6.13-2.22,6.26-5.89C61.23,52.7,61.23,49.81,61.13,47.02z M53.29,49.04v4.71H37.91v-4.71
			H53.29z"/>
	</g>
	<g>
		<path class="st0" d="M119.48,129.77c0.03-4.29,0.05-8.74-0.05-13.11c-0.12-4.93-4.1-8.75-9.09-8.75h-0.13
			c-5.06,0.07-9.04,4-9.06,8.96c-0.07,12.83-0.04,25.75-0.01,36.85c0.01,2.64,1.12,4.98,3.21,6.75c1.78,1.51,3.75,2.27,5.82,2.27
			c1.2,0,2.44-0.25,3.69-0.77c3.52-1.47,5.49-4.26,5.56-7.88c0.08-4.41,0.06-8.89,0.05-13.22c-0.01-1.5-0.02-2.99-0.02-4.49l0.02-1
			C119.47,133.51,119.48,131.64,119.48,129.77z M111.86,140.4c0,4.27,0,8.54-0.01,12.81c-0.01,0.64-0.19,1.17-0.53,1.5
			c-0.25,0.23-0.55,0.35-0.94,0.34c-0.73-0.03-1.44-0.25-1.6-1.72c-0.01-0.08-0.02-0.17-0.02-0.26v-8.57
			c0-8.98-0.01-17.96,0.02-26.94c0-1.99,1.16-2,1.54-2h0.01c0.46,0,0.8,0.11,1.02,0.33c0.33,0.33,0.5,0.95,0.5,1.81
			c0.01,4.18,0.01,8.37,0.01,12.55V140.4z"/>
	</g>
	<g>
		<path class="st0" d="M90.46,117.09c-0.01-3.09-1.33-5.67-3.83-7.45c-2.86-2.04-6.05-2.34-9.22-0.87
			c-3.32,1.54-5.17,4.27-5.23,7.68c-0.08,4.41-0.06,8.9-0.05,13.23c0.01,1.5,0.01,2.99,0.01,4.48l-0.01,1
			c0,1.87-0.01,3.74-0.02,5.62c-0.03,4.29-0.05,8.73,0.05,13.1c0.12,5.03,4.04,8.78,9.18,8.77h0.19c4.98-0.09,8.91-4.08,8.93-9.08
			C90.51,140.69,90.49,127.9,90.46,117.09z M80.31,154.73c-0.37-0.37-0.57-1.08-0.57-2.02v-34.96c0.01-2.17,0.94-2.18,1.5-2.19
			c0.47,0.02,0.82,0.11,1.07,0.35c0.33,0.33,0.51,0.95,0.51,1.78c0.03,11.14,0.03,22.64,0.01,35.15c-0.01,1.46-0.53,2.21-1.55,2.22
			C80.87,155.06,80.54,154.96,80.31,154.73z"/>
	</g>
	<g>
		<path class="st0" d="M61.39,140.9c-0.01-1.8-0.02-3.59-0.02-5.39l-0.04-0.98c0.01-1.56,0.02-3.13,0.03-4.69
			c0.02-4.34,0.05-8.82-0.07-13.24c-0.13-4.91-4.09-8.69-9.07-8.69h-0.2c-5.03,0.1-8.99,4.06-9.01,9.02
			c-0.07,12.86-0.04,25.75-0.01,36.66c0.01,3.88,2.41,7.24,6.1,8.57c1.06,0.38,2.14,0.57,3.2,0.57c1.78,0,3.51-0.53,5-1.56
			c2.52-1.73,3.99-4.6,4.05-7.87C61.42,149.16,61.4,144.96,61.39,140.9z M53.73,139.8c0.01,4.4,0.02,8.96-0.08,13.43
			c-0.02,0.5-0.61,1.39-1.08,1.66c-0.23,0.07-1.05-0.14-1.55-0.5c-0.14-0.13-0.35-0.73-0.35-1.36c-0.05-11.27-0.05-22.89-0.02-35.51
			c0-0.72,0.18-1.28,0.5-1.6c0.24-0.24,0.59-0.36,1.04-0.36c0.01,0,0.02,0,0.02,0c0.45,0,1.5,0.01,1.5,1.99
			c0.02,4.32,0.01,8.64,0.01,12.96v4.8C53.72,136.81,53.72,138.3,53.73,139.8z"/>
	</g>
	<g>
		<path class="st0" d="M148.59,153.62c-0.05,4.37-3.36,8.3-7.55,8.95c-0.53,0.08-1.06,0.12-1.57,0.12c-4.06,0-7.56-2.48-8.81-6.4
			c-0.25-0.8-0.39-1.65-0.39-2.47c-0.04-4.27-0.07-8.84-0.03-13.35c0.01-1.3,0.44-2.39,1.23-3.15c0.7-0.66,1.67-1.01,2.69-0.96
			c2.2,0.08,3.69,1.81,3.7,4.31c0.02,2.34,0.02,4.68,0.02,7.02c-0.01,1.73-0.01,3.46,0,5.2c0,0.82,0.2,1.47,0.55,1.83
			c0.24,0.23,0.58,0.34,0.98,0.34c1.26-0.01,1.53-1.11,1.54-2.03c0.02-12.3,0.02-24.26-0.01-35.54c0-0.71-0.17-1.25-0.5-1.57
			c-0.25-0.25-0.6-0.37-1.08-0.36c-0.48,0.01-1.47,0.03-1.48,2.04c-0.01,1.37-0.01,2.74,0,4.11c0,1.59,0,3.18-0.01,4.77
			c-0.03,2.67-1.5,4.33-3.84,4.33H134c-2.32-0.01-3.73-1.58-3.76-4.19l-0.01-0.23c-0.04-3.09-0.08-6.29,0.03-9.44
			c0.18-5.27,4.16-9.14,9.33-9.04c5.11,0.11,8.98,4.16,9.01,9.41c0.03,4.27,0.02,8.55,0.02,12.83l-0.01,5.13
			c0,1.84,0,3.68,0.01,5.52C148.63,145,148.64,149.34,148.59,153.62z"/>
	</g>
</g>
</svg>
